<svg id="Layer_1" data-name="Layer 1" xmlns="http://www.w3.org/2000/svg" viewBox="0 0 230.24 184.35"><defs><style>.cls-1,.cls-2{fill:#000004;}.cls-1{fill-rule:evenodd;}</style></defs><title>Artboard 2</title><path class="cls-1" d="M81.4,88.65C81.86,90,81,99.81,78.14,103a29.42,29.42,0,0,1-7.63,5.25c-3.1,1.55-7.13,4.47-9.1,5.2a10.19,10.19,0,0,1-6.13.38,6.88,6.88,0,0,1-1-.39,10.86,10.86,0,0,1-3.86-3.85,8.79,8.79,0,0,1-.7-1.8,6,6,0,0,1-.14-2.71,1.81,1.81,0,0,0-.08-1.14,4.48,4.48,0,0,0-1.08-1.38,2.61,2.61,0,0,1-1.07-1.9,1.87,1.87,0,0,1,.14-.65c.56-1.26,3.05-2.21,6-2.21,3.19,0,5.82,1.08,6.13,2.46,0,0,.41,1.71-1.05,2.21a16.72,16.72,0,0,1-2.93.63c-.49,0-2.78.44-3.34,1.39a4.29,4.29,0,0,0,.64,4.61,5.67,5.67,0,0,0,2.24,1.5,6.7,6.7,0,0,0,2.26.29,10.11,10.11,0,0,0,3.22-.85c1.52-.7,2.51-2,4.06-3.11,4-2.87,9.72-4.66,11.93-7.63,1.87-3.18,1.77-7,3.84-10.76,0,0,.22-.4.5-.35A.47.47,0,0,1,81.4,88.65Z"/><path class="cls-1" d="M106.23,58.73c.13.55-4.1.49-4.92,4.24-1.4,6.41-8.39,4.55-12,9.52-.85,1-1.66.84-2.07.47,2-2.55,4.31-6.6,5.57-8.1C94.74,62.55,102.06,57.77,106.23,58.73Z"/><path class="cls-1" d="M87.1,37.17A14.62,14.62,0,0,1,90.19,46c14.42-3.78,26.28-11.79,25.64-28.52A45.74,45.74,0,0,0,111.43.91c-.24-.54,0-.8,0-.8.34-.28.72.09.72.09,4.93,6.34,9.45,22.78,5.72,31.73-5.26,12.64-15.76,15.8-22.93,20.32a31,31,0,0,0-6.44,5.49c-2,2.19-5.69,8.51-6.71,10.68,0,0-.19-3.9-5.65-6.38-.64-.29,8.24-10.11,9.13-15.23,1.08-6.24-3-14.68-8.12-16C77.15,30.75,81.9,30.31,87.1,37.17Z"/><path class="cls-1" d="M114.47,52.48a18.15,18.15,0,0,1-2.11,11.71,28.05,28.05,0,0,1-6,7.61c-2.13,2.1-4.95,3.23-7.4,5-3-.25-5.92-.6-7.87-1.91C99.43,74.13,107,67.39,108.63,62c.73-2.5,1.78-7.88-1.24-8-2.42-.06-5.68,1.69-8.2,3-2.89,1.49-7.45,4-7.85,2.89C90.24,58,95.77,54.35,99,52.68,103.37,50.43,110.59,47.38,114.47,52.48Z"/><path class="cls-1" d="M89.29,78c.62,1.09.72,2,.21,3.87-2.3,8.49.52,20.7.48,29.83,0,1.28,1.76,15.16-2,15.26-.86-.1-1.9-6.29-2.15-9.78C85.38,110.82,84,104.66,84.17,98c.26-8.51-.16-14.24,2.77-20.33.24-.6,1.1-.56,1.1-.56a1.19,1.19,0,0,1,.57.13A1.91,1.91,0,0,1,89.29,78Z"/><path class="cls-1" d="M50.94,137.68c-1.72,0-1.93-2.94-2.2-4.4-.33-1.81-.12-4.06-.46-6.37l-.1-.6-.44.47c-3.41,3.73-7,7.72-14.41,8.2-4.12.27-8.54-.21-12.88.48-4.61.73-9.26,3.53-13.36,4.77a9,9,0,0,1-6.42-.71c-.94-.35-.62-.81-.62-.81a8.84,8.84,0,0,1,3.38-2c3.14-1,12.29-4.8,14.31-5.25,6.72-1.48,14,.46,20.28-1.19,4.56-1.2,9-7.74,10.26-12.64.55-2.15,1-3.56,1.81-3.65a.88.88,0,0,1,.9.52,34.66,34.66,0,0,1,1.22,10.12c-.2,4.39,1.36,12.34-.54,13A3.19,3.19,0,0,1,50.94,137.68Z"/><path class="cls-1" d="M79.39,79.91c-2.21-.73-5.92,0-7.16.53-2,.87-2.32,3.33-2.49,4.87a2.68,2.68,0,0,0,.06,1.25.81.81,0,0,0,1,.38c.19,0,1.21-.24,1.56-.32,3-.45,5.53,0,6.71-2.44a7.67,7.67,0,0,0,.65-2.52C79.94,80.28,79.39,79.91,79.39,79.91ZM76.58,82.7a2.57,2.57,0,0,1-1-.26c-.18-.31.11-1,.11-1a.94.94,0,0,1,1.82.32A1,1,0,0,1,76.58,82.7Z"/><path class="cls-1" d="M54.35,59.15c-1.8-1.57-4-5.53-4.62-9.38A20.17,20.17,0,0,1,51.9,37.57a10.44,10.44,0,0,1,2.55-3.35,5.08,5.08,0,0,0-2.69.83s-3.43,1.85-5.17,7.21A13.89,13.89,0,0,0,46,44.32l-.15,0a37.5,37.5,0,0,1-7-2.66c-5-2.58-9.49-7-10.75-12.77-1.48-6.79,1.35-13,4.45-18a.26.26,0,0,0-.11-.34.77.77,0,0,0-.67,0c-1.74.83-11.2,10.56-5.9,25,2.86,7.79,13.17,12.87,18.23,15,0,0,.49.18.87.3a61,61,0,0,0,1.1,7.36,22.37,22.37,0,0,0,1.83,5.23c-1.23,1.55-1.1,4.46-2,6.31,0,0-.34.7-.6,1.2l-.07.11,0,0-.33-.27c-2.4-2.1-2.57-5.63-3.88-8.26-2.79-5.57-8.06-7.66-14-10.11C24.8,53.86,25,57,25.51,60.05c.52,3.27,2.37,6.48,3.75,9.34a12.12,12.12,0,0,0,5.47,5.31c2.21.9,4.52,1.19,5.48-.44a.41.41,0,0,0-.09-.5c-.11-.2-.79-.37-.79-.37-.79-.31-1.49-.55-2.16-.78-4.49-1.8-5.6-4.48-5.6-4.48-2-3.64-3.83-8.18-2-11.21,4.23,1.74,4.31,1.51,7,4.53,2.19,2.47,1.56,6.43,3.17,9.49.49.94,2.88,1.7,3.89,2.69l.08.08c-.07.09-.32.64-.32.64s-1.12,2.7.34,4.72c1.2,2,1.15,4.76,3.15,6.12.49.34,1,.63,2.23,1.37,1.08.64,2.55,1.24,2.78.83.48-4.46.17-9.74-5.22-8.37.33-5.63,4.73-11.74,5.05-12.34a8,8,0,0,1,4.88-3.6c2.35-.65,4.71-.55,6.58-2.49C59.85,60.1,56.56,61.09,54.35,59.15Zm-6.1,21.67a.94.94,0,0,1,.88.62s.29.69.11,1a2.58,2.58,0,0,1-1,.26,1,1,0,0,1-.94-.94A.94.94,0,0,1,48.26,80.83Z"/><path class="cls-2" d="M117.72,128.44v-3.8H104.34v24.42h4.19v-11h9.19v-3.8h-9.19v-5.81Z"/><path class="cls-2" d="M133.67,135.07a8.51,8.51,0,0,0-6.17-2.4,8.67,8.67,0,0,0-6.23,2.38,8.39,8.39,0,0,0,0,11.9,8.52,8.52,0,0,0,6.12,2.37,8.86,8.86,0,0,0,6.26-2.33,7.73,7.73,0,0,0,2.51-5.88A8.12,8.12,0,0,0,133.67,135.07Zm-2.79,9.26a4.68,4.68,0,0,1-3.42,1.31,4.77,4.77,0,0,1-3.46-1.3,4.43,4.43,0,0,1-1.33-3.36,4.65,4.65,0,0,1,1.3-3.42,4.42,4.42,0,0,1,3.34-1.33,4.79,4.79,0,0,1,3.5,1.34,4.88,4.88,0,0,1,.05,6.75Z"/><path class="cls-2" d="M150,134.24a5.89,5.89,0,0,0-3.9-1.87c-1.45,0-2.84,1-4.23,3V132.7H138v16.36h3.9v-8.55a5,5,0,0,1,1-3.13,2.77,2.77,0,0,1,2.26-1.26,4.21,4.21,0,0,1,2.7,1.41l.36.34,2-3.41Z"/><path class="cls-2" d="M165,140.73a9.07,9.07,0,0,0-1.94-6.06,6.57,6.57,0,0,0-5.24-2.3,7.13,7.13,0,0,0-5.52,2.36,8.71,8.71,0,0,0-2.12,6,9.2,9.2,0,0,0,1,4.36,8.17,8.17,0,0,0,2.68,3,7.74,7.74,0,0,0,4.38,1.14,12.23,12.23,0,0,0,3.38-.42,10.65,10.65,0,0,0,2.93-1.4l.18-.12v-4l-.63.46a9,9,0,0,1-5.38,1.8,4.35,4.35,0,0,1-4.61-4.09H165Zm-7.18-4.88a3.12,3.12,0,0,1,2.36.87,3.66,3.66,0,0,1,.91,2.15h-6.82a4.36,4.36,0,0,1,1.12-2.14A3.39,3.39,0,0,1,157.78,135.85Z"/><path class="cls-2" d="M174.37,139.33l-1.09-.62a8,8,0,0,1-1.66-1.12,1.07,1.07,0,0,1-.37-.75.77.77,0,0,1,.38-.68,2.1,2.1,0,0,1,1.22-.31,9.1,9.1,0,0,1,4.28,1.59l.6.36v-4l-.21-.11a10.32,10.32,0,0,0-4.87-1.34,5.93,5.93,0,0,0-3.85,1.22,4,4,0,0,0-1.54,3.23,4.49,4.49,0,0,0,1,2.81,13.79,13.79,0,0,0,4,2.94,10.48,10.48,0,0,1,1.84,1.23,1.15,1.15,0,0,1,.33.85,1,1,0,0,1-.52.81,2.45,2.45,0,0,1-1.43.4,5.9,5.9,0,0,1-2.13-.53,13.77,13.77,0,0,1-2.58-1.43l-.62-.44v4.32l.22.11a17.33,17.33,0,0,0,2.79,1.12,9.89,9.89,0,0,0,2.57.31,6.25,6.25,0,0,0,4.09-1.31,4.28,4.28,0,0,0,1.64-3.45C178.46,142.63,177.09,140.87,174.37,139.33Z"/><path class="cls-2" d="M191.16,144.73a6.62,6.62,0,0,1-3.29,1c-.78,0-1.81-.23-1.81-2.27v-7.2h4.89V132.7h-4.89v-3.79l-6.59,6.49v.87h2.72v6.5a13.55,13.55,0,0,0,.21,3,4.82,4.82,0,0,0,.53,1.32,4.05,4.05,0,0,0,.81.93,5.52,5.52,0,0,0,3.77,1.32,8.16,8.16,0,0,0,4.06-1l.2-.11v-3.78Z"/><path class="cls-2" d="M116.32,101a5.31,5.31,0,0,0,3-4.85,6,6,0,0,0-3.59-5.7,11.24,11.24,0,0,0-4.74-.82h-6.59V114h8.4a10.51,10.51,0,0,0,4.68-.94,7.16,7.16,0,0,0,2.88-2.46,6.19,6.19,0,0,0,1-3.45,6,6,0,0,0-1.63-4.21A7.39,7.39,0,0,0,116.32,101ZM114,98.76a5.43,5.43,0,0,1-3.59.93h-1.86v-6.3h2.52c3.53,0,3.94,1.71,3.94,3A3,3,0,0,1,114,98.76Zm-5.45,4.73h2.77a10.94,10.94,0,0,1,3.55.41,3.35,3.35,0,0,1,1.62,1.2,3,3,0,0,1,.56,1.76,3.13,3.13,0,0,1-.53,1.76,3.21,3.21,0,0,1-1.41,1.2,10.6,10.6,0,0,1-3.61.4h-2.94Z"/><path class="cls-2" d="M131.36,97.32c-1.45,0-2.84,1-4.23,3V97.65h-3.9V114h3.9v-8.56a5,5,0,0,1,1-3.14,2.78,2.78,0,0,1,2.26-1.27,4.21,4.21,0,0,1,2.7,1.41l.36.34,2-3.4-.23-.22A5.89,5.89,0,0,0,131.36,97.32Z"/><path class="cls-2" d="M148.76,111.29s-.14,0-.14-.4v-6.64a19.92,19.92,0,0,0-.12-2.74,4.45,4.45,0,0,0-.56-1.54,4.58,4.58,0,0,0-1-1.23,6.38,6.38,0,0,0-4.3-1.41,6.8,6.8,0,0,0-5.46,2.25l-.1.11v4.52l.69-.75a6.42,6.42,0,0,1,4.61-2.46,2.1,2.1,0,0,1,2.41,2.4v.55l-3.67,1.27a7.54,7.54,0,0,0-3.16,2,4.21,4.21,0,0,0-1.16,2.9,4.05,4.05,0,0,0,1.2,3,4.09,4.09,0,0,0,3,1.19,7.07,7.07,0,0,0,4-1.3,2.49,2.49,0,0,0,2.52,1.3A4.07,4.07,0,0,0,149,114a10.25,10.25,0,0,0,1.74-.92l.19-.12v-2.83l-.62.42A3.3,3.3,0,0,1,148.76,111.29Zm-4-4.83v3.89a3.43,3.43,0,0,1-2.32,1,1.83,1.83,0,0,1-1.28-3.12,6.55,6.55,0,0,1,2.09-1.19Z"/><path class="cls-2" d="M160.57,110.61a5.06,5.06,0,0,1-3.65-1.29,4.62,4.62,0,0,1-1.33-3.51,4.94,4.94,0,0,1,1.24-3.47A4.06,4.06,0,0,1,160,101a7.94,7.94,0,0,1,4.16,1.43l.61.38V98.55l-.24-.11a15,15,0,0,0-2.44-.88,9.88,9.88,0,0,0-2.26-.24,7.77,7.77,0,0,0-5.89,2.37,8.71,8.71,0,0,0-2.23,6.2A8.27,8.27,0,0,0,154,112a8.36,8.36,0,0,0,6.13,2.29,13.52,13.52,0,0,0,4.69-.89l.26-.1v-3.94l-.56.25A9.92,9.92,0,0,1,160.57,110.61Z"/><path class="cls-2" d="M182.65,97.65h-4.72l-6.47,7.14V89.59H167.6V114h3.87v-7.52l7.38,7.52h5.25l-8.42-8.39Z"/><path class="cls-2" d="M198.46,100.37a5.3,5.3,0,0,0-2.06-2.23,5.57,5.57,0,0,0-2.92-.81,6.37,6.37,0,0,0-4.3,1.76V97.65h-3.93V114h3.93V102.59a4,4,0,0,1,3.32-1.91,2.4,2.4,0,0,1,2.12.86,5.79,5.79,0,0,1,.66,3.19V114h3.87V104.7A10.09,10.09,0,0,0,198.46,100.37Z"/><path class="cls-2" d="M209.06,97.32a7.13,7.13,0,0,0-5.52,2.36,8.72,8.72,0,0,0-2.11,6,9.21,9.21,0,0,0,1,4.37,8.19,8.19,0,0,0,2.67,3,7.75,7.75,0,0,0,4.38,1.13,12.28,12.28,0,0,0,3.38-.42,10.73,10.73,0,0,0,2.93-1.4l.18-.12v-4l-.63.46a9,9,0,0,1-5.38,1.8,4.35,4.35,0,0,1-4.61-4.1h10.89v-.79a9.06,9.06,0,0,0-1.94-6.06A6.55,6.55,0,0,0,209.06,97.32Zm0,3.48a3.15,3.15,0,0,1,2.36.88,3.73,3.73,0,0,1,.9,2.15H205.5a4.34,4.34,0,0,1,1.12-2.14A3.4,3.4,0,0,1,209.06,100.8Z"/><rect class="cls-2" x="218.98" y="89.59" width="3.87" height="24.44"/><rect class="cls-2" x="226.37" y="89.59" width="3.87" height="24.44"/><path class="cls-2" d="M124.87,177.86a14.9,14.9,0,0,1-8.16,2.59,9.07,9.07,0,0,1-6.48-2.4,8.67,8.67,0,0,1,0-12.25,9,9,0,0,1,6.46-2.46,16,16,0,0,1,7.89,2.31l.59.34v-4.57l-.24-.1a21.76,21.76,0,0,0-8.41-2,13,13,0,0,0-9.34,3.63,12,12,0,0,0-3.8,9,12.37,12.37,0,0,0,1.66,6.23,12.18,12.18,0,0,0,4.5,4.53,13.67,13.67,0,0,0,6.91,1.64,18,18,0,0,0,8.77-2.09l.2-.11v-4.68Z"/><path class="cls-2" d="M141.82,170.1a8.54,8.54,0,0,0-6.17-2.4,8.67,8.67,0,0,0-6.23,2.38,8.37,8.37,0,0,0,0,11.9,8.52,8.52,0,0,0,6.12,2.37,8.85,8.85,0,0,0,6.27-2.33,7.74,7.74,0,0,0,2.51-5.88A8.13,8.13,0,0,0,141.82,170.1ZM139,179.37a4.65,4.65,0,0,1-3.43,1.31,4.7,4.7,0,0,1-3.45-1.3,4.43,4.43,0,0,1-1.33-3.35,4.71,4.71,0,0,1,1.31-3.42,4.43,4.43,0,0,1,3.34-1.33,4.86,4.86,0,0,1,3.51,1.34,4.46,4.46,0,0,1,1.38,3.38A4.53,4.53,0,0,1,139,179.37Z"/><path class="cls-2" d="M156.13,167.73V179.1a4.11,4.11,0,0,1-3.37,1.89,2.54,2.54,0,0,1-2.16-.81A5.81,5.81,0,0,1,150,177v-9.27H146.1V177a10.23,10.23,0,0,0,.68,4.36,5.2,5.2,0,0,0,2,2.16,5.67,5.67,0,0,0,2.93.79,6.37,6.37,0,0,0,2.69-.63,7.44,7.44,0,0,0,1.69-1.14v1.51H160V167.73Z"/><path class="cls-2" d="M176.32,170.44a5.28,5.28,0,0,0-2.06-2.23,5.58,5.58,0,0,0-2.92-.81,6.37,6.37,0,0,0-4.3,1.76v-1.43h-3.93v16.36H167V172.67a4,4,0,0,1,3.32-1.91,2.41,2.41,0,0,1,2.12.86,5.77,5.77,0,0,1,.65,3.19v9.29H177v-9.31A10.11,10.11,0,0,0,176.32,170.44Z"/><path class="cls-2" d="M191.7,179.67a10,10,0,0,1-3.94,1,5.06,5.06,0,0,1-3.65-1.29,4.68,4.68,0,0,1-1.33-3.51,4.93,4.93,0,0,1,1.24-3.46,4.06,4.06,0,0,1,3.15-1.34,8,8,0,0,1,4.16,1.43l.61.38v-4.26l-.24-.11a14.62,14.62,0,0,0-2.45-.88,9.85,9.85,0,0,0-2.26-.24,7.76,7.76,0,0,0-5.89,2.38,8.7,8.7,0,0,0-2.23,6.2,8.24,8.24,0,0,0,2.3,6.09,8.36,8.36,0,0,0,6.13,2.28,13.41,13.41,0,0,0,4.7-.89l.26-.1v-3.93Z"/><path class="cls-2" d="M197.09,165.61a2.24,2.24,0,0,0,2.24-2.22,2.11,2.11,0,0,0-.66-1.57,2.2,2.2,0,0,0-1.58-.63,2.11,2.11,0,0,0-1.53.66,2.15,2.15,0,0,0,0,3.09A2.1,2.1,0,0,0,197.09,165.61Z"/><rect class="cls-2" x="195.16" y="167.73" width="3.86" height="16.36"/><rect class="cls-2" x="202.5" y="159.67" width="3.87" height="24.42"/></svg>