<?xml version="1.0" encoding="iso-8859-1"?>
<!-- Generator: Adobe Illustrator 20.1.0, SVG Export Plug-In . SVG Version: 6.00 Build 0)  -->
<svg version="1.1" id="Layer_1" xmlns="http://www.w3.org/2000/svg" xmlns:xlink="http://www.w3.org/1999/xlink" x="0px" y="0px"
	 viewBox="0 0 512 512" style="enable-background:new 0 0 512 512;" xml:space="preserve">
<g>
	<path style="fill:#010202;" d="M477.812,113.478H351.465V83.855c0-15.176-12.345-27.521-27.521-27.521H195.511
		c-15.176,0-27.521,12.345-27.521,27.521v29.623H32.468c-15.137,0-27.521,12.385-27.521,27.521v71.288h208.911V193.94
		c0-10.114,8.229-18.348,18.348-18.348h55.043c10.114,0,18.348,8.233,18.348,18.348v18.348h199.737v-71.288
		C505.333,125.863,492.949,113.478,477.812,113.478z M204.685,93.028H314.77v20.449H204.685V93.028z"/>
	<polygon style="fill:#010202;" points="232.206,193.94 232.206,248.982 287.222,248.982 287.248,193.94 	"/>
	<path style="fill:#010202;" d="M305.596,248.982c0,10.114-8.233,18.348-18.348,18.348h-55.043
		c-10.119,0-18.348-8.233-18.348-18.348v-18.348H4.947v194.177c0,15.137,12.384,27.521,27.521,27.521h445.344
		c15.137,0,27.521-12.384,27.521-27.521V230.635H305.596V248.982z"/>
</g>
</svg>
