<?xml version="1.0" encoding="iso-8859-1"?>
<!-- Generator: Adobe Illustrator 20.1.0, SVG Export Plug-In . SVG Version: 6.00 Build 0)  -->
<svg version="1.1" id="Layer_1" xmlns="http://www.w3.org/2000/svg" xmlns:xlink="http://www.w3.org/1999/xlink" x="0px" y="0px"
	 viewBox="0 0 512 512" style="enable-background:new 0 0 512 512;" xml:space="preserve">
<path style="fill:#010202;" d="M349.044,328.571c2.781-5.783,5.494-11.86,8.043-18.573c15.552-40.963,19.328-81.564,19.58-84.44
	c26.684-8.959,45.057-20.858,51.979-34.28c2.614-5.071,0.156-11.409-5.027-13.286l-18.11-9.445h-0.45
	c-4.244-58.482-38.146-108.23-85.904-132.606l-22.248,88.992c-0.374,1.493-1.714,2.54-3.254,2.54c-2.002,0-3.559-1.745-3.331-3.735
	l10.934-95.484c-7.215-2.553-14.679-4.535-22.328-5.941v-7.662c0-4.593-3.724-8.316-8.317-8.316H237.82
	c-4.594,0-8.317,3.723-8.317,8.316v7.077c-8.959,1.424-17.671,3.637-26.051,6.619l10.923,95.392c0.227,1.99-1.329,3.735-3.331,3.735
	c-1.54,0-2.881-1.047-3.254-2.54l-22.216-88.865c-47.628,24.421-81.424,74.096-85.66,132.479l-14.871,9.001
	c-5.695,2.244-8.055,9.385-4.91,14.865c7.459,12.992,25.611,24.504,51.626,33.217c0.398,5.77,3.426,43.455,17.187,81.988
	c2.952,8.268,6.151,15.716,9.499,22.61C128.416,349.672,68.504,401.195,67,503.579l35.525,0.523
	c1.259-85.76,50.799-128.173,74.632-143.681c8.561,10.697,17.647,18.629,26.82,24.423c0.119,0.161,0.151,0.358,0.282,0.513
	c0.377,0.443,37.465,44.851,39.769,87.956l0.483,9.056h19.517l0.38-9.168c0.927-22.3,29.561-71.71,40.516-88.867
	c0.178-0.279,0.198-0.6,0.344-0.889c8.673-5.937,17.232-13.946,25.369-24.489c20.965,12.373,78.2,54.5,79.555,146.763l35.525-0.523
	C444.123,396.5,376.651,345.085,349.044,328.571z M255.385,436.32c-5.3-14.716-12.493-28.108-19.101-38.768
	c5.235,0.983,10.327,1.537,15.135,1.677c0.945,0.027,1.892,0.043,2.853,0.043c6.582,0,13.629-0.731,20.893-2.431
	C268.733,408.222,261.257,422.41,255.385,436.32z M323.643,297.986c-17.042,44.496-40.896,66.585-71.183,65.729
	c-62.482-1.83-79.797-94.899-84.032-128.742c24.896,4.713,53.796,7.434,85.654,7.434c31.814,0,60.694-2.718,85.593-7.42
	C337.522,249.35,332.861,273.91,323.643,297.986z"/>
</svg>
