<?xml version="1.0" encoding="iso-8859-1"?>
<!-- Generator: Adobe Illustrator 20.1.0, SVG Export Plug-In . SVG Version: 6.00 Build 0)  -->
<svg version="1.1" id="Layer_1" xmlns="http://www.w3.org/2000/svg" xmlns:xlink="http://www.w3.org/1999/xlink" x="0px" y="0px"
	 viewBox="0 0 512 512" style="enable-background:new 0 0 512 512;" xml:space="preserve">
<path style="fill:#010202;" d="M316.897,162.915l0.645,3.971c0,4.013-1.996,7.88-5.489,10.313c-11.186,7.734-9.71,5.78-13.93,18.401
	c-1.746,5.26-6.861,8.816-12.579,8.816h-0.042c-13.806-0.042-11.415-0.79-22.517,7.028c-2.329,1.663-5.073,2.474-7.818,2.474
	c-2.745,0-5.489-0.811-7.818-2.453c-11.103-7.818-8.712-7.069-22.517-7.028h-0.042c-5.718,0-10.832-3.555-12.579-8.816
	c-4.242-12.621-2.765-10.687-13.91-18.421c-3.514-2.433-5.51-6.3-5.51-10.313l0.645-3.95c4.304-12.558,4.325-10.146,0-22.746
	l-0.645-3.971c0-4.013,1.996-7.88,5.51-10.333c11.144-7.735,9.668-5.759,13.91-18.401c1.746-5.26,6.861-8.816,12.579-8.816h0.042
	c13.764,0.042,11.311,0.852,22.517-7.028c2.329-1.663,5.073-2.474,7.818-2.474c2.744,0,5.489,0.811,7.818,2.453
	c11.103,7.818,8.712,7.069,22.517,7.028h0.042c5.718,0,10.832,3.555,12.579,8.816c4.221,12.621,2.745,10.666,13.93,18.401
	c3.493,2.453,5.489,6.321,5.489,10.333l-0.645,3.971C312.593,152.727,312.572,150.315,316.897,162.915z M317.542,258.157h-124.75
	v20.792h124.75V258.157z M338.333,305.785H172v20.792h166.333V305.785z M176.761,401.042c-16.01,71.898-67.136,72.771-67.136,28.589
	V110.832c0-27.715-1.289-49.609-20.792-63.248h270.292c28.152,0,41.583,12.995,41.583,41.583v270.292h41.583V89.167
	C442.292,47.147,424.743,6,359.125,6h-249.5C36.979,6,5.667,66.421,5.667,109.958h62.375v332.667
	c0,34.452,27.923,62.375,62.375,62.375H421.5c55.888-11.04,80.568-61.086,83.167-103.958H176.761z"/>
</svg>
