<?xml version="1.0" encoding="iso-8859-1"?>
<!-- Generator: Adobe Illustrator 20.1.0, SVG Export Plug-In . SVG Version: 6.00 Build 0)  -->
<svg version="1.1" id="Layer_1" xmlns="http://www.w3.org/2000/svg" xmlns:xlink="http://www.w3.org/1999/xlink" x="0px" y="0px"
	 viewBox="0 0 512 512" style="enable-background:new 0 0 512 512;" xml:space="preserve">
<path style="fill:#010202;" d="M256,6C117.938,6,6,117.938,6,256s111.938,250,250,250s250-111.938,250-250S394.062,6,256,6z
	 M227.854,141.271c-1.667-16.688,11.458-31.104,28.146-31.104s29.813,14.417,28.146,31.104l-16.688,166.875
	c-0.604,5.875-5.542,10.354-11.458,10.354c-5.917,0-10.854-4.479-11.458-10.375L227.854,141.271z M256,407.042
	c-14.375,0-26.042-11.667-26.042-26.042s11.667-26.042,26.042-26.042c14.375,0,26.042,11.667,26.042,26.042
	S270.375,407.042,256,407.042z"/>
</svg>
