<?xml version="1.0" encoding="iso-8859-1"?>
<!-- Generator: Adobe Illustrator 20.1.0, SVG Export Plug-In . SVG Version: 6.00 Build 0)  -->
<svg version="1.1" id="Layer_1" xmlns="http://www.w3.org/2000/svg" xmlns:xlink="http://www.w3.org/1999/xlink" x="0px" y="0px"
	 viewBox="0 0 512 512" style="enable-background:new 0 0 512 512;" xml:space="preserve">
<g>
	<rect x="78.23" y="185.224" style="fill:#010202;" width="46.297" height="201.738"/>
	<rect x="181.683" y="185.224" style="fill:#010202;" width="46.297" height="201.738"/>
	<rect x="285.136" y="185.224" style="fill:#010202;" width="46.297" height="201.738"/>
	<rect x="388.589" y="185.224" style="fill:#010202;" width="46.297" height="201.738"/>
	<path style="fill:#010202;" d="M41.329,158.554h428.533c8.5,0,15.914-5.792,17.967-14.043c2.062-8.251-1.772-16.846-9.286-20.833
		L260.975,8.158c-5.498-2.921-12.099-2.871-17.578,0.113L32.431,123.791c-7.415,4.065-11.14,12.641-9.042,20.833
		C25.487,152.821,32.865,158.554,41.329,158.554z M252.43,45.553l143.067,75.964H113.703L252.43,45.553z"/>
	<rect x="28.959" y="408.533" style="fill:#010202;" width="450.026" height="37.037"/>
	<rect x="12.836" y="468.963" style="fill:#010202;" width="485.671" height="37.037"/>
</g>
</svg>
