<?xml version="1.0" encoding="iso-8859-1"?>
<!-- Generator: Adobe Illustrator 20.1.0, SVG Export Plug-In . SVG Version: 6.00 Build 0)  -->
<svg version="1.1" id="Layer_1" xmlns="http://www.w3.org/2000/svg" xmlns:xlink="http://www.w3.org/1999/xlink" x="0px" y="0px"
	 viewBox="0 0 512 512" style="enable-background:new 0 0 512 512;" xml:space="preserve">
<g>
	<path style="fill:#010202;" d="M505.667,257.089L255.829,25L6,256.78l33.766,36.344l25.354-23.517v217.921h378.168V266.851
		l28.612,26.578L505.667,257.089z M398.09,442.329H110.319V227.683l145.51-134.969L398.09,224.865V442.329z"/>
	<path style="fill:#010202;" d="M213.925,266.882c0,6.471,1.739,13.191,3.98,19.905h-1.491l-16.923,1.248v21.395h24.885
		c0.248,2.242,0.497,4.477,0.497,6.719c0,17.663-11.445,31.35-26.375,38.064v22.643h111.713v-30.853h-64.439v-0.994
		c7.962-8.956,11.197-16.669,11.197-28.612c0-2.242-0.248-4.726-0.497-6.968h32.095v-22.643H251.74
		c-1.491-5.969-2.733-11.943-2.733-17.911c0-15.924,8.458-23.388,21.643-23.388c7.962,0,13.936,3.484,19.656,10.446l19.904-19.905
		c-11.197-12.936-24.63-20.153-43.044-20.153C236.314,215.876,213.925,235.532,213.925,266.882z"/>
</g>
</svg>
