<?xml version="1.0" encoding="iso-8859-1"?>
<!-- Generator: Adobe Illustrator 20.1.0, SVG Export Plug-In . SVG Version: 6.00 Build 0)  -->
<svg version="1.1" id="Layer_1" xmlns="http://www.w3.org/2000/svg" xmlns:xlink="http://www.w3.org/1999/xlink" x="0px" y="0px"
	 viewBox="0 0 512 512" style="enable-background:new 0 0 512 512;" xml:space="preserve">
<path style="fill:#010202;" d="M255.583,47.667c114.875,0,208.333,93.458,208.333,208.333s-93.458,208.333-208.333,208.333
	S47.25,370.875,47.25,256S140.708,47.667,255.583,47.667z M255.583,6c-138.063,0-250,111.938-250,250s111.938,250,250,250
	s250-111.938,250-250S393.646,6,255.583,6z M338.917,360.167H172.25V318.5h166.667V360.167z M182.667,172.667
	c-17.25,0-31.25,13.979-31.25,31.25s14,31.25,31.25,31.25s31.25-13.979,31.25-31.25S199.917,172.667,182.667,172.667z
	 M328.5,172.667c-17.25,0-31.25,13.979-31.25,31.25s14,31.25,31.25,31.25c17.25,0,31.25-13.979,31.25-31.25
	S345.75,172.667,328.5,172.667z"/>
</svg>
