<?xml version="1.0" encoding="iso-8859-1"?>
<!-- Generator: Adobe Illustrator 20.1.0, SVG Export Plug-In . SVG Version: 6.00 Build 0)  -->
<svg version="1.1" id="Layer_1" xmlns="http://www.w3.org/2000/svg" xmlns:xlink="http://www.w3.org/1999/xlink" x="0px" y="0px"
	 viewBox="0 0 512 512" style="enable-background:new 0 0 512 512;" xml:space="preserve">
<path id="White_2_" style="fill:#010202;" d="M478.404,6H33.596C18.353,6,6,18.353,6,33.596v444.808
	C6,493.644,18.353,506,33.596,506h239.469V312.374h-65.159v-75.46h65.159v-55.65c0-64.581,39.444-99.746,97.054-99.746
	c27.596,0,51.314,2.055,58.225,2.973v67.491L388.389,152c-31.332,0-37.398,14.888-37.398,36.736v48.178h74.724l-9.729,75.46h-64.994
	V506h127.413c15.24,0,27.596-12.356,27.596-27.596V33.596C506,18.353,493.644,6,478.404,6z"/>
</svg>
