<?xml version="1.0" encoding="iso-8859-1"?>
<!-- Generator: Adobe Illustrator 20.1.0, SVG Export Plug-In . SVG Version: 6.00 Build 0)  -->
<svg version="1.1" id="Layer_1" xmlns="http://www.w3.org/2000/svg" xmlns:xlink="http://www.w3.org/1999/xlink" x="0px" y="0px"
	 viewBox="0 0 512 512" style="enable-background:new 0 0 512 512;" xml:space="preserve">
<g>
	<g>
		<path style="fill:#010202;" d="M475.206,158.067H37.255c-17.23,0-31.2-13.97-31.2-31.2s13.97-31.2,31.2-31.2h437.95
			c17.23,0,31.2,13.97,31.2,31.2S492.436,158.067,475.206,158.067z"/>
	</g>
	<g>
		<path style="fill:#010202;" d="M475.206,282.867H37.255c-17.23,0-31.2-13.97-31.2-31.2s13.97-31.2,31.2-31.2h437.95
			c17.23,0,31.2,13.97,31.2,31.2S492.436,282.867,475.206,282.867z"/>
	</g>
	<g>
		<path style="fill:#010202;" d="M475.206,407.667H37.255c-17.23,0-31.2-13.97-31.2-31.2s13.97-31.2,31.2-31.2h437.95
			c17.23,0,31.2,13.97,31.2,31.2S492.436,407.667,475.206,407.667z"/>
	</g>
</g>
</svg>
