<?xml version="1.0" encoding="iso-8859-1"?>
<!-- Generator: Adobe Illustrator 20.1.0, SVG Export Plug-In . SVG Version: 6.00 Build 0)  -->
<svg version="1.1" id="Layer_1" xmlns="http://www.w3.org/2000/svg" xmlns:xlink="http://www.w3.org/1999/xlink" x="0px" y="0px"
	 viewBox="0 0 512 512" style="enable-background:new 0 0 512 512;" xml:space="preserve">
<path style="fill:#010202;" d="M484.185,340.908c-2.033-7.508-6.647-13.938-12.822-17.97V216.811l34.811-20.8l-26.351-17.014
	c-1.01-0.664-1.813-1.18-2.595-1.635l-17.595-10.402c-17.921-10.588-35.841-21.172-53.8-31.726
	c-7.64-4.48-15.288-8.926-22.936-13.365l-1.707-0.994c-7.466-4.321-14.924-8.642-22.352-12.997
	c-30.319-17.766-60.599-35.554-90.865-53.407c-8.209-4.852-17.291-4.605-24.955,0.668c-1.032,0.717-2.238,1.396-4.157,2.489
	l-38.885,22.701c-29.954,17.523-59.909,35.053-89.833,52.614c-12.952,7.587-25.85,15.239-38.748,22.891L6.97,193.837l24.097,17.087
	c1.092,0.8,1.927,1.358,2.746,1.836l43.027,25.273l1.609,117.063l3.528,4.799c2.428,3.316,60.698,81.199,164.817,81.199l3.278-0.027
	c124.006-1.969,168.528-80.06,170.371-83.391l2.299-4.188l0.045-108.126l17.542-10.296v88.482
	c-7.247,4.913-11.851,12.675-13.05,22.09c-0.653,5.03-0.22,9.883,1.298,14.454c-4.212,6.157-6.443,13.524-6.472,21.449
	c-0.061,14.412-0.045,28.831-0.031,43.247l0.015,10.774c0,14.344,10.167,19.431,18.877,19.431l14.112,0.007l16.404-0.007
	c8.649-0.042,18.74-5.102,18.74-19.237l0.045-53.088c0.031-8.649-2.17-16.259-6.539-22.655
	C485.755,353.818,485.915,347.255,484.185,340.908z M362.492,153.082c8.173,4.734,16.351,9.477,24.493,14.256
	c15.835,9.306,31.669,18.65,47.48,27.993L280.71,285.62c-8.202,4.826-16.404,9.655-24.636,14.427
	c-26.707-15.611-53.384-31.279-80.06-46.946l-98.308-57.731l18.399-10.907c10.956-6.491,21.897-12.974,32.868-19.415
	c27.678-16.237,55.372-32.439,83.065-48.646l44.052-25.721c27.952,16.48,55.933,32.913,83.93,49.31
	c6.457,3.786,12.921,7.549,19.408,11.305L362.492,153.082z M385.52,343.283c-8.331,11.897-47.003,59.146-136.009,60.558
	l-2.656,0.023c-71.252,0-117.534-45.914-131.358-61.756l-1.116-82.026l51.889,30.474c26.024,15.281,52.041,30.561,78.073,45.758
	c6.806,3.995,16.214,4.116,22.853,0.292c10.827-6.218,21.616-12.557,32.382-18.893l85.987-50.485L385.52,343.283z"/>
</svg>
