<?xml version="1.0" encoding="iso-8859-1"?>
<!-- Generator: Adobe Illustrator 20.1.0, SVG Export Plug-In . SVG Version: 6.00 Build 0)  -->
<svg version="1.1" id="Layer_1" xmlns="http://www.w3.org/2000/svg" xmlns:xlink="http://www.w3.org/1999/xlink" x="0px" y="0px"
	 viewBox="0 0 512 512" style="enable-background:new 0 0 512 512;" xml:space="preserve">
<g>
	<path style="fill:#010202;" d="M386.379,76.794V6h-261.95v70.794h-49.23l31.143,428.584h298.124l31.144-428.584H386.379z
		 M178.313,51.416h154.181v25.378H178.313V51.416z M362.562,454.995H148.246l-23.817-327.817h261.95L362.562,454.995z"/>
	<path style="fill:#010202;" d="M209.177,348.778c0.784,3.728,4.072,6.39,7.89,6.39h33.939v-34.393h-36.649
		C209.108,327.179,207.464,340.634,209.177,348.778z"/>
	<path style="fill:#010202;" d="M287.999,310.147l-23.182,29.454l23.182,29.324v-12.547c10.063-0.647,24.818-2.195,33.134-7.339
		c11.515-7.14,15.965-21.255,19.295-43.583c-12.547,14.762-33.011,17.018-52.429,17.052V310.147z"/>
	<path style="fill:#010202;" d="M252.547,238.21c-3.027-7.704-13.971-15.718-21.915-18.194c-3.639-1.135-7.567,0.433-9.431,3.762
		l-16.564,29.627l30.019,16.791L252.547,238.21z"/>
	<path style="fill:#010202;" d="M202.209,353.304c-5.943-18.442,3.419-37.792,13.613-54.314l10.442,6.61l-13.234-34.552
		l-37.138,4.251l10.559,6.782c-4.753,8.887-11.109,22.073-11.109,31.855C175.341,327.489,184.991,338.708,202.209,353.304z"/>
	<path style="fill:#010202;" d="M270.83,250.124l-10.862,5.888l36.615,5.311l14.425-34.49l-11.075,5.909
		c-12.925-20.202-21.881-28.904-37.275-28.904c-8.935,0-19.487,2.992-32.584,7.883C249.08,215.538,261.393,233.154,270.83,250.124z"
		/>
	<path style="fill:#010202;" d="M306.379,312.266c8.206,1.087,20.512-4.602,26.531-10.352c2.758-2.635,3.288-6.831,1.28-10.07
		l-17.885-28.836l-29.234,18.118L306.379,312.266z"/>
</g>
</svg>
