<?xml version="1.0" encoding="iso-8859-1"?>
<!-- Generator: Adobe Illustrator 20.1.0, SVG Export Plug-In . SVG Version: 6.00 Build 0)  -->
<svg version="1.1" id="Layer_1" xmlns="http://www.w3.org/2000/svg" xmlns:xlink="http://www.w3.org/1999/xlink" x="0px" y="0px"
	 viewBox="0 0 512 512" style="enable-background:new 0 0 512 512;" xml:space="preserve">
<g>
	<path style="fill:#010202;" d="M381.461,147.546l-23.364,38.02c16.791,19.53,28.164,47.891,30.105,80.428
		c1.975,32.558-5.797,63.125-19.979,86.227l27.581,32.16c20.154-32.819,31.233-76.247,28.429-122.506
		C421.44,215.65,405.295,175.328,381.461,147.546z"/>
	<path style="fill:#010202;" d="M505.325,254.508C501,183.936,475.872,122.443,438.818,80.067l-24.414,38.978
		c29.698,33.933,49.811,83.203,53.314,139.738c3.475,56.49-10.329,109.578-35.438,149.71l28.832,32.957
		C492.477,391.351,509.71,325.088,505.325,254.508z"/>
	<path style="fill:#010202;" d="M308.143,41.915L120.439,177.48H8v157.414h112.439l187.705,135.565
		c6.125,4.424,14.685,0.047,14.685-7.508V49.423C322.828,41.868,314.268,37.492,308.143,41.915z"/>
</g>
</svg>
