<?xml version="1.0" encoding="iso-8859-1"?>
<!-- Generator: Adobe Illustrator 20.1.0, SVG Export Plug-In . SVG Version: 6.00 Build 0)  -->
<svg version="1.1" id="Layer_1" xmlns="http://www.w3.org/2000/svg" xmlns:xlink="http://www.w3.org/1999/xlink" x="0px" y="0px"
	 viewBox="0 0 512 512" style="enable-background:new 0 0 512 512;" xml:space="preserve">
<g>
	<path style="fill:#010202;" d="M402.104,15c-8.827,0-15.979,7.367-15.979,16.45v106.922c0,9.084,7.152,16.451,15.979,16.451H506V15
		H402.104z"/>
	<path style="fill:#010202;" d="M342.227,187.17l-53.163,37.976h77.047v230.16H45.889v-230.16h10.007h94.924h15.153v-20.014v-20.014
		h-3.736l17.652-28.168c9.08-18.161,71.537-24.009,46.52,18.521l-50.035,70.049c-7.479,7.485-21.218,60.681,20.014,30.021
		l109.682-100.429l19.094-27.242l30.941-22.793V35.014h-90.063l-95.227,58.379c-16.573,10.722-27.242,18.154-36.329,45.396
		c-3.118,9.372-15.282,32.695-22.564,46.329H85.473H55.896H5.861v310.215h400.278V185.118h-63.227L342.227,187.17z"/>
	<polygon style="fill:#010202;" points="148.294,348.229 130.274,372.25 196.345,421.796 285.205,288.51 260.227,271.858 
		188.976,378.739 	"/>
</g>
</svg>
