<?xml version="1.0" standalone="no"?>
<!DOCTYPE svg PUBLIC "-//W3C//DTD SVG 1.1//EN" "http://www.w3.org/Graphics/SVG/1.1/DTD/svg11.dtd" >
<svg xmlns="http://www.w3.org/2000/svg">
<metadata>Generated by IcoMoon</metadata>
<defs>
<font id="icomoon" horiz-adv-x="1024">
<font-face units-per-em="1024" ascent="960" descent="-64" />
<missing-glyph horiz-adv-x="1024" />
<glyph unicode="&#x20;" horiz-adv-x="512" d="" />
<glyph unicode="&#xe900;" glyph-name="bfc-icon-font_Artboard-41-41" horiz-adv-x="1116" d="M1054.72 691.712h-280.576v67.584c0 34.816-26.624 61.44-61.44 61.44h-286.72c-34.816 0-61.44-26.624-61.44-61.44v-65.536h-303.104c-34.816 0-61.44-28.672-61.44-61.44v-159.744h466.944v40.96c0 22.528 18.432 40.96 40.96 40.96h122.88c22.528 0 40.96-18.432 40.96-40.96v-40.96h446.464v159.744c-2.048 32.768-28.672 59.392-63.488 59.392zM446.464 738.816h245.76v-45.056h-245.76v45.056zM507.904 513.536h122.88v-122.88h-122.88v122.88zM671.744 390.656c0-22.528-18.432-40.96-40.96-40.96h-122.88c-22.528 0-40.96 18.432-40.96 40.96v40.96h-466.944v-434.176c0-34.816 26.624-61.44 61.44-61.44h993.28c34.816 0 61.44 26.624 61.44 61.44v434.176h-444.416v-40.96z" />
<glyph unicode="&#xe901;" glyph-name="bfc-icon-font_Artboard-42-copy-2" horiz-adv-x="1041" d="M819.582 904.597c-17.194 0-30.567-13.373-30.567-30.567v-204.418c0-17.194 13.373-30.567 30.567-30.567h198.687v267.463h-198.687zM704.955 576l-101.254-72.597h147.104v-439.403h-611.343v439.403h229.254v76.418h-7.642l34.388 53.493c17.194 34.388 135.642 45.851 87.881-36.299l-95.522-133.731c-13.373-13.373-40.119-116.537 38.209-57.313l210.149 191.045 36.299 51.582 59.224 43.94v171.94h-171.94l-181.493-110.806c-32.478-21.015-51.582-34.388-68.776-85.97-5.731-17.194-28.657-63.045-43.94-87.881h-202.507v-592.239h764.179v592.239h-120.358l-1.91-3.821zM334.328 268.418l-34.388-45.851 126.090-93.612 170.030 254.090-47.761 32.478-135.642-204.418z" />
<glyph unicode="&#xe902;" glyph-name="bfc-icon-font_Artboard-42-copy" horiz-adv-x="783" d="M741.254 810.985l-512 149.015c-5.731 1.91-11.463 0-17.194-3.821l-150.925-114.627c-5.731-5.731-7.642-13.373-5.731-21.015v-718.328l529.194-152.836v727.881l-458.507 135.642 105.075 74.507 458.507-135.642v-727.881l64.955 61.134v706.866c0 9.552-5.731 17.194-13.373 19.104zM156.657 663.881l299.94-85.97v-139.463l-299.94 89.791v135.642z" />
<glyph unicode="&#xe904;" glyph-name="bfc-icon-font_Artboard-42" horiz-adv-x="1041" d="M787.104 482.388c-7.642-13.373-17.194-24.836-28.657-38.209s-24.836-26.746-38.209-38.209c-28.657-22.925-63.045-43.94-93.612-64.955-15.284-11.463-30.567-21.015-38.209-32.478-9.552-11.463-19.104-28.657-28.657-42.030-17.194-30.567-34.388-59.224-47.761-84.060-1.91-5.731-5.731-9.552-7.642-13.373 7.642-13.373 13.373-22.925 17.194-32.478 502.448 215.881 382.090 523.463 450.866 823.403-150.925-152.836-26.746-24.836-406.925-341.97-108.896-85.97-131.821-183.403-122.269-271.284-1.91-7.642-5.731-15.284-7.642-22.925-3.821-11.463-7.642-24.836-9.552-40.119l-1.91-11.463c0-5.731 0-7.642 0-11.463 0-5.731 0-13.373 0-21.015 0-15.284 1.91-26.746 3.821-40.119s5.731-24.836 7.642-38.209c1.91-5.731 3.821-11.463 3.821-17.194-1.91 1.91-3.821 3.821-5.731 7.642-3.821 3.821-5.731 5.731-9.552 9.552-22.925 22.925-43.94 40.119-63.045 59.224-9.552 9.552-17.194 19.104-22.925 28.657-1.91 3.821-3.821 7.642-5.731 11.463 43.94 70.687 78.328 177.672-19.104 286.567-236.896 280.836-162.388 171.94-252.179 301.851 9.552-219.701-108.896-420.299 192.955-634.269 0 3.821 0 7.642-1.91 9.552-1.91 19.104-5.731 42.030-9.552 66.866-1.91 11.463-3.821 24.836-7.642 34.388-1.91 7.642-9.552 19.104-15.284 28.657-15.284 21.015-32.478 43.94-43.94 66.866-5.731 11.463-13.373 22.925-17.194 34.388s-5.731 22.925-7.642 32.478-1.91 38.209 0 49.672c1.91 11.463 3.821 17.194 3.821 17.194s0-7.642 0-19.104c0-11.463 1.91-28.657 9.552-45.851 3.821-9.552 7.642-19.104 13.373-28.657s11.463-17.194 21.015-26.746 36.299-34.388 55.403-53.493c9.552-9.552 21.015-19.104 30.567-34.388 7.642-15.284 13.373-26.746 19.104-38.209 1.91-1.91 1.91-3.821 3.821-7.642 0-7.642 1.91-15.284 3.821-24.836 1.91-5.731 1.91-11.463 3.821-17.194s3.821-11.463 5.731-19.104c5.731-13.373 11.463-24.836 19.104-38.209 15.284-24.836 34.388-47.761 47.761-70.687 5.731-9.552 11.463-21.015 15.284-34.388s9.552-26.746 13.373-38.209c7.642-24.836 13.373-38.209 19.104-63.045 0-21.015-1.91-30.567 0-40.119 0-5.731 0-15.284 0-21.015h101.254c0 0 21.015 0 21.015 0-7.642 17.194-15.284 28.657-21.015 40.119-5.731 15.284-9.552 22.925-21.015 43.94s-22.925 43.94-38.209 66.866c-3.821 5.731-7.642 13.373-13.373 21.015-1.91 17.194-5.731 38.209-7.642 59.224 0 11.463-1.91 22.925-1.91 36.299 0 11.463 1.91 24.836 3.821 36.299 0 3.821 1.91 9.552 3.821 15.284 0-1.91 1.91-3.821 1.91-5.731 13.373 17.194 26.746 34.388 43.94 51.582 13.373 13.373 24.836 28.657 42.030 43.94s36.299 24.836 53.493 32.478 70.687 30.567 101.254 49.672c15.284 9.552 28.657 17.194 40.119 28.657s22.925 22.925 30.567 32.478 26.746 43.94 32.478 59.224c5.731 15.284 7.642 24.836 7.642 24.836s-1.91-9.552-3.821-26.746c-1.91-11.463-9.552-36.299-24.836-61.134z" />
<glyph unicode="&#xe905;" glyph-name="bfc-icon-font_crimenemergancies" horiz-adv-x="1036" d="M529.258 666.607c11.506 0 21.094 9.588 21.094 21.094v130.397c0 11.506-9.588 21.094-21.094 21.094s-21.094-9.588-21.094-21.094v-130.397c0-11.506 9.588-21.094 21.094-21.094zM324.075 595.655c3.835-3.835 9.588-5.753 15.341-5.753s11.506 1.918 15.341 5.753c7.67 7.67 7.67 23.011 0 30.682l-92.045 92.045c-7.67 7.67-23.011 7.67-30.682 0s-7.67-23.011 0-30.682l92.045-92.045zM113.139 400.060h130.397c11.506 0 21.094 9.588 21.094 21.094s-9.588 21.094-21.094 21.094h-130.397c-11.506 0-21.094-9.588-21.094-21.094s9.588-21.094 21.094-21.094zM724.854 589.903c5.753 0 11.506 1.918 15.341 5.753l92.045 92.045c7.67 7.67 7.67 23.011 0 30.682s-23.011 7.67-30.682 0l-92.045-92.045c-7.67-7.67-7.67-23.011 0-30.682 5.753-3.835 9.588-5.753 15.341-5.753zM799.64 421.154c0-11.506 9.588-21.094 21.094-21.094h130.397c11.506 0 21.094 9.588 21.094 21.094s-9.588 21.094-21.094 21.094h-130.397c-11.506 0-21.094-9.588-21.094-21.094zM533.094 595.655c-111.221 0-201.348-90.127-201.348-201.348v-201.348h402.697v201.348c0 111.221-92.045 201.348-201.348 201.348zM437.213 256.24c0-15.341-13.423-28.764-28.764-28.764s-28.764 13.423-28.764 28.764v191.76c0 15.341 13.423 28.764 28.764 28.764s28.764-13.423 28.764-28.764v-191.76zM734.442 74.067h-402.697c-36.434 0-67.116 30.682-67.116 67.116s30.682 67.116 67.116 67.116h402.697c36.434 0 67.116-30.682 67.116-67.116s-30.682-67.116-67.116-67.116zM331.745 169.948c-15.341 0-28.764-13.423-28.764-28.764s13.423-28.764 28.764-28.764h402.697c15.341 0 28.764 13.423 28.764 28.764s-13.423 28.764-28.764 28.764h-402.697z" />
<glyph unicode="&#xe906;" glyph-name="bfc-icon-font_liscensing" horiz-adv-x="1036" d="M170.667 818.097h479.401v-76.704h-479.401v76.704zM170.667 683.865h479.401v-76.704h-479.401v76.704zM170.667 549.633h479.401v-76.704h-479.401v76.704zM170.667 415.401h479.401v-76.704h-479.401v76.704zM170.667 281.169h191.76v-76.704h-191.76v76.704zM531.176 300.345c-61.363 0-111.221-49.858-111.221-111.221 0-42.187 23.011-78.622 57.528-97.798v-155.326l57.528 95.88 55.61-95.88v159.161c30.682 19.176 51.775 53.693 51.775 93.963 1.918 61.363-47.94 111.221-111.221 111.221zM55.61 952.33v-958.801h325.993v76.704h-249.288v805.393h556.105v-805.393h-19.176v-76.704h95.88v958.801z" />
<glyph unicode="&#xe907;" glyph-name="bfc-icon-font_street" horiz-adv-x="915" d="M510.569 307.994l58.741 58.741 58.741-58.741-58.741-58.741-58.741 58.741zM727.311 302.199l-50.861-289.907h-139.020l-50.861 289.907h-59.338l59.338-349.245h240.742l59.338 349.245zM555.45 126.561l58.741 58.741 58.741-58.741-58.741-58.741-58.741 58.741zM303.47 763.338c0-35.58-28.844-64.424-64.424-64.424s-64.424 28.844-64.424 64.424c0 35.58 28.844 64.424 64.424 64.424s64.424-28.844 64.424-64.424zM437.404 364.927c0 1.695 0 3.391 0 6.781v0c0 0-72.901 264.477-81.377 283.126-1.695 1.695-1.695 3.391-3.391 6.781 0 1.695-1.695 3.391-1.695 5.086-11.868 30.517-55.947 11.868-55.947 11.868-1.695 0-1.695-1.695-3.391-1.695 0 0-22.040-11.868-55.947-13.563 0 0 0 0 0 0s0 0 0 0c-33.907 0-55.947 13.563-55.947 13.563-1.695 0-1.695 1.695-3.391 1.695 0 0-44.079 18.649-55.947-11.868-8.477-18.649-81.377-283.126-81.377-283.126v0c0-1.695 0-3.391 0-6.781 0-13.563 10.172-23.735 23.735-23.735 11.868 0 22.040 8.477 23.735 18.649l59.338 178.013 13.563-559.47c0 0 0 0 0 0 0-11.868 6.781-20.344 16.954-23.735 0-1.695-1.695-5.086-1.695-6.781 3.391-3.391 8.477-5.086 15.258-5.086 13.563 0 91.55 0 105.113 0s25.43 11.868 25.43 25.43c0 0 0 0 0 0l13.563 559.47 59.338-178.013c1.695-10.172 11.868-18.649 23.735-18.649 8.477-1.695 20.344 8.477 20.344 22.040zM232.265 144.53l3.391 11.868 3.391-11.868h-6.781z" />
<glyph unicode="&#xe908;" glyph-name="bfc-icon-font-01" d="M512 873.984c235.52 0 425.984-190.464 425.984-425.984s-190.464-425.984-425.984-425.984-425.984 190.464-425.984 425.984 190.464 425.984 425.984 425.984zM512 960c-282.624 0-512-229.376-512-512s229.376-512 512-512 512 229.376 512 512-229.376 512-512 512zM768 253.44l-196.608 194.56 194.56 196.608-61.44 59.392-192.512-196.608-196.608 194.56-59.392-59.392 196.608-194.56-194.56-196.608 59.392-59.392 194.56 196.608 196.608-194.56 59.392 59.392z" />
<glyph unicode="&#xe909;" glyph-name="bfc-icon-font-02" d="M512 873.984c235.52 0 425.984-190.464 425.984-425.984s-190.464-425.984-425.984-425.984-425.984 190.464-425.984 425.984 190.464 425.984 425.984 425.984zM512 960c-282.624 0-512-229.376-512-512s229.376-512 512-512 512 229.376 512 512-229.376 512-512 512zM428.032 235.008l-192.512 184.32 59.392 61.44 131.072-124.928 299.008 307.2 61.44-59.392-358.4-368.64z" />
<glyph unicode="&#xe90a;" glyph-name="bfc-icon-font-03" d="M512 873.984c235.52 0 425.984-190.464 425.984-425.984s-190.464-425.984-425.984-425.984-425.984 190.464-425.984 425.984 190.464 425.984 425.984 425.984zM512 960c-282.624 0-512-229.376-512-512s229.376-512 512-512 512 229.376 512 512-229.376 512-512 512zM681.984 235.008h-339.968v86.016h342.016v-86.016zM362.496 617.984c-34.816 0-63.488-28.672-63.488-63.488s28.672-63.488 63.488-63.488 63.488 28.672 63.488 63.488c0 34.816-28.672 63.488-63.488 63.488zM661.504 617.984c-34.816 0-63.488-28.672-63.488-63.488s28.672-63.488 63.488-63.488c34.816 0 63.488 28.672 63.488 63.488s-28.672 63.488-63.488 63.488z" />
<glyph unicode="&#xe90b;" glyph-name="bfc-icon-font-04" d="M512 873.984c235.52 0 425.984-190.464 425.984-425.984s-190.464-425.984-425.984-425.984-425.984 190.464-425.984 425.984 190.464 425.984 425.984 425.984zM512 960c-282.624 0-512-229.376-512-512s229.376-512 512-512 512 229.376 512 512-229.376 512-512 512zM512 361.984c-100.352 0-176.128-69.632-217.088-118.784l20.48-24.576c55.296 34.816 116.736 55.296 196.608 55.296s143.36-20.48 196.608-55.296l20.48 24.576c-40.96 49.152-116.736 118.784-217.088 118.784zM362.496 617.984c-34.816 0-63.488-28.672-63.488-63.488s28.672-63.488 63.488-63.488 63.488 28.672 63.488 63.488c0 34.816-28.672 63.488-63.488 63.488zM661.504 617.984c-34.816 0-63.488-28.672-63.488-63.488s28.672-63.488 63.488-63.488c34.816 0 63.488 28.672 63.488 63.488s-28.672 63.488-63.488 63.488z" />
<glyph unicode="&#xe90c;" glyph-name="bfc-icon-font-05" d="M512 873.984c235.52 0 425.984-190.464 425.984-425.984s-190.464-425.984-425.984-425.984-425.984 190.464-425.984 425.984 190.464 425.984 425.984 425.984zM512 960c-282.624 0-512-229.376-512-512s229.376-512 512-512 512 229.376 512 512-229.376 512-512 512zM747.52 366.080c-63.488-51.2-135.168-81.92-235.52-81.92s-169.984 30.72-235.52 81.92l-20.48-20.48c47.104-73.728 137.216-151.552 256-151.552s206.848 77.824 256 151.552l-20.48 20.48zM362.496 617.984c-34.816 0-63.488-28.672-63.488-63.488s28.672-63.488 63.488-63.488 63.488 28.672 63.488 63.488c0 34.816-28.672 63.488-63.488 63.488zM661.504 617.984c-34.816 0-63.488-28.672-63.488-63.488s28.672-63.488 63.488-63.488c34.816 0 63.488 28.672 63.488 63.488s-28.672 63.488-63.488 63.488z" />
<glyph unicode="&#xe90d;" glyph-name="bfc-icon-font-06" horiz-adv-x="1260" d="M1259.52 839.168c-47.104-20.48-96.256-34.816-147.456-40.96 53.248 32.768 94.208 81.92 114.688 143.36-49.152-28.672-104.448-51.2-163.84-63.488-47.104 51.2-114.688 81.92-188.416 81.92-145.408 0-260.096-116.736-260.096-258.048 0-20.48 2.048-40.96 6.144-59.392-215.040 10.24-405.504 114.688-532.48 270.336-22.528-38.912-34.816-81.92-34.816-129.024 0-90.112 45.056-167.936 114.688-215.040-43.008 2.048-81.92 12.288-116.736 32.768 0-2.048 0-2.048 0-4.096 0-124.928 90.112-229.376 206.848-253.952-22.528-6.144-45.056-8.192-67.584-8.192-16.384 0-32.768 2.048-49.152 4.096 32.768-102.4 129.024-178.176 241.664-180.224-88.064-69.632-200.704-110.592-321.536-110.592-20.48 0-40.96 2.048-61.44 4.096 114.688-73.728 249.856-116.736 395.264-116.736 475.136 0 735.232 393.216 735.232 735.232 0 10.24 0 22.528 0 32.768 51.2 36.864 94.208 81.92 129.024 135.168z" />
<glyph unicode="&#xe90e;" glyph-name="bfc-icon-font-07" d="M1024 60.928l-391.168 387.072 387.072 393.216-120.832 118.784-387.072-391.168-391.168 387.072-120.832-118.784 391.168-389.12-387.072-391.168 118.784-120.832 389.12 393.216 391.168-389.12 120.832 120.832z" />
<glyph unicode="&#xe90f;" glyph-name="bfc-icon-font-08" horiz-adv-x="1026" d="M890.88 187.904c-147.456 34.816-284.672 63.488-217.088 188.416 200.704 380.928 51.2 583.68-161.792 583.68-217.088 0-360.448-210.944-157.696-583.68 67.584-124.928-73.728-155.648-217.088-188.416-147.456-34.816-137.216-110.592-137.216-251.904h1026.048c0 141.312 10.24 217.088-135.168 251.904z" />
<glyph unicode="&#xe910;" glyph-name="bfc-icon-font-09" d="M966.656 960h-909.312c-32.768 0-57.344-24.576-57.344-57.344v-911.36c0-30.72 24.576-55.296 57.344-55.296h489.472v397.312h-133.12v153.6h133.12v114.688c0 133.12 79.872 204.8 198.656 204.8 57.344 0 104.448-4.096 118.784-6.144v-137.216h-81.92c-63.488 0-75.776-30.72-75.776-75.776v-98.304h153.6l-20.48-153.6h-133.12v-399.36h260.096c30.72 0 57.344 24.576 57.344 57.344v909.312c0 32.768-24.576 57.344-57.344 57.344z" />
<glyph unicode="&#xe911;" glyph-name="bfc-icon-font-10" horiz-adv-x="1456" d="M1441.792 738.816c0 0-14.336 100.352-57.344 145.408-55.296 57.344-116.736 57.344-145.408 61.44-204.8 14.336-509.952 14.336-509.952 14.336v0c0 0-305.152 0-509.952-14.336-28.672-4.096-90.112-4.096-145.408-61.44-43.008-45.056-57.344-145.408-57.344-145.408s-16.384-116.736-16.384-235.52v-110.592c0-118.784 14.336-235.52 14.336-235.52s14.336-100.352 57.344-145.408c55.296-57.344 129.024-55.296 159.744-61.44 116.736-10.24 495.616-14.336 495.616-14.336s305.152 0 509.952 14.336c28.672 4.096 90.112 4.096 145.408 61.44 43.008 45.056 57.344 145.408 57.344 145.408s14.336 118.784 14.336 235.52v110.592c2.048 118.784-12.288 235.52-12.288 235.52zM577.536 259.584v409.6l393.216-204.8-393.216-204.8z" />
<glyph unicode="&#xe912;" glyph-name="bfc-icon-font-11" horiz-adv-x="1376" d="M688.128-64l-688.128 1024h1376.256z" />
<glyph unicode="&#xe913;" glyph-name="bfc-icon-font-12" horiz-adv-x="1016" d="M987.136 103.936l-212.992 212.992c40.96 65.536 65.536 141.312 65.536 223.232 0 231.424-188.416 419.84-419.84 419.84s-419.84-188.416-419.84-419.84c0-231.424 188.416-419.84 419.84-419.84 77.824 0 151.552 22.528 215.040 59.392l215.040-215.040c90.112-90.112 227.328 47.104 137.216 139.264zM419.84 251.392c-159.744 0-288.768 129.024-288.768 288.768s129.024 288.768 288.768 288.768 288.768-129.024 288.768-288.768c0-159.744-129.024-288.768-288.768-288.768z" />
<glyph unicode="&#xe914;" glyph-name="bfc-icon-font-13" d="M512 960c-282.624 0-512-229.376-512-512s229.376-512 512-512 512 229.376 512 512-229.376 512-512 512zM454.656 683.52c-4.096 34.816 22.528 63.488 57.344 63.488s61.44-28.672 57.344-63.488l-34.816-342.016c-2.048-12.288-12.288-20.48-22.528-20.48s-22.528 8.192-22.528 20.48l-34.816 342.016zM512 138.752c-28.672 0-53.248 24.576-53.248 53.248s24.576 53.248 53.248 53.248 53.248-24.576 53.248-53.248-24.576-53.248-53.248-53.248z" />
<glyph unicode="&#xe915;" glyph-name="bfc-icon-font-14" d="M505.856 861.696c131.072 0 145.408 0 198.656-2.048 47.104-2.048 73.728-10.24 90.112-16.384 22.528-8.192 38.912-20.48 55.296-36.864s28.672-32.768 36.864-55.296c6.144-16.384 14.336-43.008 16.384-90.112 2.048-51.2 2.048-67.584 2.048-198.656s0-145.408-2.048-198.656c-2.048-47.104-10.24-73.728-16.384-90.112-8.192-22.528-20.48-38.912-36.864-55.296s-32.768-28.672-55.296-36.864c-16.384-6.144-43.008-14.336-90.112-16.384-53.248-6.144-67.584-6.144-198.656-6.144s-145.408 0-198.656 2.048c-47.104 2.048-73.728 10.24-90.112 16.384-22.528 8.192-38.912 20.48-55.296 36.864-18.432 18.432-28.672 34.816-38.912 57.344-6.144 16.384-14.336 43.008-16.384 90.112-2.048 51.2-2.048 67.584-2.048 198.656s0 145.408 2.048 198.656c2.048 47.104 10.24 73.728 16.384 90.112 8.192 22.528 20.48 38.912 36.864 55.296s32.768 28.672 55.296 36.864c18.432 8.192 45.056 16.384 92.16 18.432 51.2 2.048 67.584 2.048 198.656 2.048zM505.856 949.76c-133.12 0-149.504 0-202.752-2.048-51.2-2.048-88.064-10.24-118.784-22.528-32.768-12.288-59.392-30.72-86.016-57.344-28.672-26.624-45.056-53.248-57.344-86.016-12.288-30.72-20.48-67.584-22.528-118.784-2.048-53.248-2.048-69.632-2.048-202.752s0-149.504 2.048-202.752c2.048-51.2 10.24-86.016 22.528-116.736 12.288-32.768 28.672-59.392 57.344-86.016 26.624-28.672 53.248-45.056 86.016-57.344 30.72-12.288 67.584-20.48 118.784-22.528 53.248-2.048 69.632-2.048 202.752-2.048s149.504 0 202.752 2.048c51.2 2.048 88.064 10.24 118.784 22.528 32.768 12.288 59.392 28.672 86.016 57.344 26.624 26.624 43.008 55.296 57.344 86.016 12.288 30.72 20.48 67.584 22.528 118.784 2.048 53.248 2.048 69.632 2.048 202.752s0 149.504-2.048 202.752c-2.048 51.2-10.24 88.064-22.528 118.784-12.288 32.768-28.672 59.392-57.344 86.016-26.624 26.624-55.296 43.008-86.016 57.344-30.72 12.288-67.584 20.48-118.784 22.528-53.248 0-69.632 0-202.752 0v0zM505.856 712.192c-139.264 0-251.904-112.64-251.904-251.904s112.64-251.904 251.904-251.904 251.904 112.64 251.904 251.904-112.64 251.904-251.904 251.904zM505.856 296.448c-90.112 0-163.84 73.728-163.84 163.84s73.728 163.84 163.84 163.84 163.84-73.728 163.84-163.84-73.728-163.84-163.84-163.84zM825.344 722.432c0-32.801-26.591-59.392-59.392-59.392s-59.392 26.591-59.392 59.392c0 32.801 26.591 59.392 59.392 59.392s59.392-26.591 59.392-59.392z" />
<glyph unicode="&#xe916;" glyph-name="bfc-icon-font-15" horiz-adv-x="1106" d="M1105.92 445.952l-552.96 514.048-552.96-514.048 75.776-79.872 55.296 51.2v-481.28h837.632v489.472l63.488-59.392 73.728 79.872zM868.352 36.352h-636.928v475.136l321.536 299.008 315.392-292.864v-481.28zM460.8 425.472c0-14.336 4.096-28.672 8.192-45.056h-4.096l-36.864-2.048v-47.104h55.296c0-4.096 2.048-10.24 2.048-14.336 0-38.912-24.576-69.632-59.392-83.968v-51.2h247.808v67.584h-143.36v2.048c18.432 20.48 24.576 36.864 24.576 63.488 0 4.096 0 10.24-2.048 16.384h71.68v49.152h-81.92c-4.096 12.288-6.144 26.624-6.144 38.912 0 34.816 18.432 51.2 47.104 51.2 18.432 0 30.72-8.192 43.008-22.528l45.056 45.056c-24.576 28.672-55.296 45.056-96.256 45.056-65.536 0-114.688-45.056-114.688-112.64z" />
<glyph unicode="&#xe917;" glyph-name="bfc-icon-font-16" horiz-adv-x="1106" d="M1105.92 445.952l-552.96 514.048-552.96-514.048 73.728-79.872 55.296 51.2v-481.28h837.632v489.472l63.488-59.392 75.776 79.872zM868.352 36.352h-210.944v315.392h-229.376v-317.44h-198.656v477.184l323.584 299.008 315.392-292.864v-481.28z" />
<glyph unicode="&#xe918;" glyph-name="bfc-icon-font-17" horiz-adv-x="739" d="M638.976 814.592v145.408h-538.624v-145.408h-100.352l63.488-878.592h612.352l63.488 878.592h-100.352zM210.944 867.84h315.392v-51.2h-315.392v51.2zM589.824 38.4h-440.32l-49.152 673.792h536.576l-47.104-673.792zM274.432 257.536c2.048-8.192 8.192-12.288 16.384-12.288h69.632v69.632h-75.776c-10.24-14.336-14.336-40.96-10.24-57.344zM436.224 335.36l-47.104-59.392 47.104-59.392v26.624c20.48 2.048 51.2 4.096 67.584 14.336 24.576 14.336 32.768 43.008 38.912 90.112-26.624-30.72-67.584-34.816-106.496-34.816v22.528zM364.544 484.864c-6.144 16.384-28.672 32.768-45.056 36.864-8.192 2.048-16.384 0-18.432-8.192l-34.816-61.44 61.44-34.816 36.864 67.584zM260.096 247.296c-12.288 36.864 6.144 77.824 28.672 110.592l20.48-14.336-26.624 71.68-75.776-8.192 22.528-14.336c-10.24-18.432-22.528-45.056-22.528-65.536-2.048-26.624 18.432-49.152 53.248-79.872zM401.408 460.288l-22.528-12.288 75.776-10.24 28.672 71.68-22.528-12.288c-26.624 40.96-45.056 59.392-75.776 59.392-18.432 0-40.96-6.144-67.584-16.384 38.912-10.24 63.488-45.056 83.968-79.872zM473.088 331.264c16.384-2.048 43.008 10.24 55.296 20.48 6.144 6.144 6.144 14.336 2.048 20.48l-36.864 59.392-59.392-36.864 38.912-63.488z" />
<glyph unicode="&#xe919;" glyph-name="bfc-icon-font-18" horiz-adv-x="1077" d="M755.712 925.184l63.488-83.968-358.4-231.424-155.648 141.312-305.152-200.704 57.344-86.016 237.568 157.696 155.648-141.312 428.032 276.48 67.584-92.16 131.072 294.912zM47.104 380.416h102.4v-444.416h-102.4v444.416zM815.104 562.688h102.4v-626.688h-102.4v626.688zM233.472 478.72h102.4v-542.72h-102.4v542.72zM417.792 380.416h102.4v-444.416h-102.4v444.416zM616.448 509.44h102.4v-573.44h-102.4v573.44z" />
<glyph unicode="&#xe91a;" glyph-name="bfc-icon-font-19" d="M638.976 638.464l2.048-8.192c0-8.192-4.096-16.384-10.24-20.48-22.528-16.384-20.48-12.288-28.672-36.864-4.096-10.24-14.336-18.432-26.624-18.432v0c-28.672 0-22.528 2.048-47.104-14.336-4.096-4.096-10.24-4.096-16.384-4.096s-10.24 2.048-16.384 4.096c-22.528 16.384-18.432 14.336-47.104 14.336v0c-12.288 0-22.528 8.192-26.624 18.432-8.192 26.624-6.144 22.528-28.672 36.864-8.192 4.096-12.288 12.288-12.288 20.48l2.048 8.192c8.192 26.624 8.192 20.48 0 47.104l2.048 8.192c0 8.192 4.096 16.384 12.288 20.48 22.528 16.384 20.48 12.288 28.672 36.864 4.096 10.24 14.336 18.432 26.624 18.432v0c28.672 0 22.528-2.048 47.104 14.336 4.096 4.096 10.24 4.096 16.384 4.096s10.24-2.048 16.384-4.096c22.528-16.384 18.432-14.336 47.104-14.336v0c12.288 0 22.528-8.192 26.624-18.432 8.192-26.624 6.144-22.528 28.672-36.864 8.192-4.096 10.24-12.288 10.24-20.48l-2.048-8.192c-12.288-26.624-12.288-22.528-4.096-47.104zM638.976 441.856h-253.952v-43.008h256v43.008zM681.984 345.6h-339.968v-43.008h342.016v43.008zM350.208 148.992c-32.768-147.456-137.216-149.504-137.216-59.392v655.36c0 57.344-2.048 102.4-43.008 129.024h555.008c57.344 0 86.016-26.624 86.016-86.016v-555.008h86.016v557.056c0 86.016-36.864 169.984-172.032 169.984h-512c-149.504 0-212.992-124.928-212.992-212.992h126.976v-681.984c0-71.68 57.344-126.976 126.976-126.976h598.016c114.688 22.528 165.888 124.928 169.984 212.992h-671.744z" />
<glyph unicode="&#xe91b;" glyph-name="bfc-icon-font-20" horiz-adv-x="1354" d="M1353.728 511.488l-16.384 79.872-116.736-22.528h-8.192l-176.128 391.168h-724.992l-176.128-391.168h-8.192l-110.592 22.528-16.384-79.872 118.784-24.576v-550.912h180.224v118.784h749.568v-118.784h180.224v550.912l124.928 24.576zM364.544 878.080h618.496l118.784-262.144h-856.064l118.784 262.144zM387.072 300.544h-176.128v124.928l176.128-55.296v-69.632zM972.8 300.544v69.632l176.128 55.296v-124.928h-176.128z" />
<glyph unicode="&#xe91c;" glyph-name="bfc-icon-font-21" horiz-adv-x="764" d="M602.112 882.176c0-42.981-34.843-77.824-77.824-77.824s-77.824 34.843-77.824 77.824c0 42.981 34.843 77.824 77.824 77.824s77.824-34.843 77.824-77.824zM301.056 824.832c0-42.981-34.843-77.824-77.824-77.824s-77.824 34.843-77.824 77.824c0 42.981 34.843 77.824 77.824 77.824s77.824-34.843 77.824-77.824zM258.048 155.136h-75.776l24.576 96.256c-2.048 0-4.096 0-8.192 0-30.72 0-55.296 24.576-55.296 55.296 0 4.096 0 10.24 2.048 14.336 24.576 88.064 67.584 239.616 73.728 253.952 8.192 18.432 24.576 30.72 45.056 34.816-2.048 10.24-4.096 18.432-4.096 28.672 0 51.2 40.96 92.16 92.16 94.208-16.384 28.672-61.44 8.192-61.44 8.192-2.048 0-2.048-2.048-4.096-2.048 0 0-24.576-14.336-63.488-14.336 0 0 0 0 0 0s0 0 0 0c-36.864 0-63.488 14.336-63.488 14.336-2.048 0-2.048 2.048-4.096 2.048 0 0-49.152 20.48-63.488-12.288-8.192-20.48-88.064-305.152-92.16-317.44 0-2.048 0-4.096 0-6.144 0-14.336 12.288-26.624 26.624-26.624 12.288 0 22.528 8.192 26.624 20.48v0l67.584 200.704 12.288-57.344-73.728-286.72h83.968l6.144-290.816c0 0 0 0 0 0 0-16.384 12.288-28.672 28.672-28.672s73.728 0 90.112 0c-4.096 6.144-4.096 14.336-4.096 22.528l-6.144 196.608zM763.904 441.856v0c0 0-88.064 319.488-98.304 342.016-14.336 36.864-67.584 14.336-67.584 14.336-2.048-2.048-4.096-2.048-6.144-2.048 0 0-26.624-14.336-67.584-16.384 0 0 0 0 0 0s0 0 0 0c-40.96 0-67.584 16.384-67.584 16.384-2.048 0-2.048 2.048-4.096 2.048 0 0-53.248 22.528-67.584-14.336-2.048-4.096-8.192-24.576-16.384-51.2 45.056-6.144 81.92-45.056 81.92-94.208 0-10.24-2.048-20.48-4.096-28.672 20.48-4.096 36.864-16.384 45.056-34.816 6.144-12.288 32.768-110.592 61.44-210.944l12.288-43.008c4.096-12.288 0-26.624 0-28.672-6.144-24.576-28.672-40.96-53.248-40.96-2.048 0-4.096 0-6.144 0l24.576-96.256h-79.872l-4.096-194.56c0-6.144-2.048-12.288-4.096-18.432 4.096-4.096 10.24-6.144 18.432-6.144 16.384 0 110.592 0 126.976 0s30.72 14.336 30.72 30.72c0 0 0 0 0 0l16.384 675.84 71.68-215.040c2.048-12.288 14.336-22.528 28.672-22.528 16.384 0 28.672 12.288 28.672 28.672 0 4.096 0 6.144 0 8.192zM483.328 187.904l-57.344 225.28 10.24 45.056 53.248-157.696c2.048-10.24 10.24-16.384 20.48-16.384 12.288 0 22.528 10.24 22.528 22.528 0 2.048 0 4.096 0 6.144v0c0 0-65.536 233.472-71.68 249.856-10.24 26.624-49.152 10.24-49.152 10.24s-2.048 0-2.048-2.048c0 0-20.48-10.24-49.152-12.288 0 0 0 0 0 0s0 0 0 0c-30.72 0-49.152 12.288-49.152 12.288s-2.048 0-2.048 2.048c0 0-38.912 16.384-49.152-10.24-14.336-18.432-77.824-241.664-79.872-251.904 0-2.048 0-4.096 0-6.144 0-12.288 10.24-22.528 22.528-22.528 10.24 0 18.432 6.144 20.48 16.384v0l53.248 159.744 10.24-45.056-57.344-225.28h65.536l4.096-229.376c0 0 0 0 0 0 0-12.288 10.24-22.528 22.528-22.528s59.392 0 71.68 0c12.288 0 22.528 10.24 22.528 22.528 0 0 0 0 0 0l4.096 229.376h63.488zM415.744 638.464c0-33.932-27.508-61.44-61.44-61.44s-61.44 27.508-61.44 61.44c0 33.932 27.508 61.44 61.44 61.44s61.44-27.508 61.44-61.44z" />
<glyph unicode="&#xe91d;" glyph-name="bfc-icon-font-22" horiz-adv-x="1130" d="M970.927 676.522c33.148-44.416 24.014-107.294-20.402-140.443s-107.294-24.014-140.443 20.402c-33.148 44.416-24.014 107.294 20.402 140.443s107.294 24.014 140.443-20.402zM849.92 480.768c-2.048 0-4.096 2.048-4.096 2.048s-34.816 16.384-63.488 55.296c0 0 0 0 0 0s0 0 0 0c-28.672 38.912-34.816 75.776-34.816 75.776 0 2.048 0 4.096-2.048 6.144 0 0 0 4.096-2.048 12.288v0c-4.096 14.336-38.912 106.496-75.776 198.656 47.104 24.576 104.448 57.344 112.64 63.488 2.048 2.048 6.144 4.096 8.192 6.144 14.336 14.336 14.336 36.864 0 49.152-12.288 12.288-28.672 14.336-43.008 6.144v0l-176.128-88.064 81.92-237.568-79.872-86.016-49.152-55.296-286.72-116.736c55.296-30.72 96.256 2.048 104.448 8.192l12.288 8.192c69.632 45.056 174.080 67.584 270.336-6.144 63.488-49.152 114.688-10.24 122.88-2.048l8.192 6.144c36.864 24.576 83.968 43.008 135.168 43.008-4.096 30.72-38.912 51.2-38.912 51.2zM1062.912 56.832c-10.24 4.096-20.48 10.24-32.768 18.432-98.304 75.776-204.8 51.2-274.432 4.096l-8.192-6.144c-10.24-8.192-59.392-47.104-122.88 2.048-96.256 73.728-202.752 51.2-270.336 6.144l-12.288-8.192c-10.24-8.192-59.392-47.104-122.88 2.048-49.152 36.864-98.304 49.152-143.36 47.104l45.056-122.88c10.24-4.096 18.432-8.192 28.672-16.384 112.64-86.016 223.232-38.912 268.288 0l2.048 2.048c20.48 14.336 77.824 43.008 135.168-2.048 112.64-86.016 223.232-38.912 268.288 0h2.048c20.48 14.336 77.824 45.056 137.216-2.048 22.528-18.432 45.056-28.672 67.584-36.864l32.768 112.64zM1130.496 275.968c-22.528-10.24-59.392-16.384-102.4 16.384-98.304 75.776-204.8 51.2-274.432 4.096l-8.192-6.144c-10.24-8.192-59.392-47.104-122.88 2.048-96.256 73.728-202.752 51.2-270.336 6.144l-12.288-8.192c-10.24-8.192-59.392-47.104-122.88 2.048-77.824 59.392-159.744 53.248-217.088 32.768l38.912-108.544c26.624 10.24 65.536 14.336 108.544-16.384 112.64-86.016 223.232-38.912 268.288 0l2.048 2.048c20.48 14.336 77.824 43.008 135.168-2.048 112.64-86.016 223.232-38.912 268.288 0h2.048c20.48 14.336 77.824 45.056 137.216-2.048 47.104-34.816 92.16-49.152 133.12-49.152l36.864 126.976z" />
<glyph unicode="&#xe91e;" glyph-name="bfc-icon-font-23" horiz-adv-x="1266" d="M1210.368 224.768c-6.144 18.432-16.384 34.816-32.768 45.056v270.336l88.064 53.248-67.584 43.008c-2.048 2.048-4.096 2.048-6.144 4.096l-45.056 24.576c-45.056 26.624-90.112 53.248-137.216 79.872-18.432 12.288-38.912 22.528-57.344 34.816l-4.096 2.048c-18.432 10.24-36.864 22.528-57.344 32.768-75.776 47.104-153.6 92.16-229.376 137.216-20.48 12.288-43.008 12.288-63.488-2.048-2.048-2.048-6.144-4.096-10.24-6.144l-98.304-57.344c-75.776-45.056-151.552-88.064-227.328-133.12-32.768-20.48-65.536-38.912-98.304-59.392l-163.84-96.256 61.44-43.008c2.048-2.048 4.096-4.096 6.144-4.096l108.544-63.488 4.096-296.96 8.192-12.288c6.144-8.192 153.6-204.8 417.792-204.8h8.192c315.392 4.096 428.032 200.704 434.176 208.896l6.144 10.24v274.432l45.056 26.624v-225.28c-18.432-12.288-30.72-32.768-32.768-55.296-2.048-12.288 0-24.576 4.096-36.864-10.24-16.384-16.384-34.816-16.384-55.296 0-36.864 0-73.728 0-110.592v-26.624c0-36.864 26.624-49.152 47.104-49.152h75.776c22.528 0 47.104 12.288 47.104 49.152v135.168c0 22.528-6.144 40.96-16.384 57.344 6.144 16.384 6.144 32.768 2.048 49.152zM901.12 701.952c20.48-12.288 40.96-24.576 61.44-36.864 40.96-24.576 79.872-47.104 120.832-71.68l-389.12-227.328c-20.48-12.288-40.96-24.576-61.44-36.864-67.584 38.912-135.168 79.872-202.752 118.784l-249.856 145.408 47.104 26.624c28.672 16.384 55.296 32.768 83.968 49.152 69.632 40.96 141.312 81.92 210.944 122.88l112.64 65.536c67.584-40.96 139.264-81.92 208.896-122.88 16.384-10.24 32.768-18.432 49.152-28.672l8.192-4.096zM960.512 218.624c-20.48-30.72-118.784-149.504-344.064-153.6h-6.144c-180.224 0-296.96 116.736-333.824 155.648l-2.048 208.896 131.072-77.824c65.536-38.912 131.072-77.824 198.656-116.736 16.384-10.24 40.96-10.24 57.344 0 26.624 16.384 55.296 32.768 81.92 47.104l217.088 126.976v-190.464z" />
<glyph unicode="&#xe91f;" glyph-name="bfc-icon-font-24" horiz-adv-x="776" d="M577.536 298.496c6.144 12.288 12.288 24.576 16.384 38.912 32.768 83.968 38.912 167.936 40.96 174.080 55.296 18.432 92.16 43.008 106.496 69.632 6.144 10.24 0 22.528-10.24 26.624l-36.864 18.432c-10.24 120.832-79.872 223.232-178.176 272.384l-45.056-182.272c0-2.048-4.096-6.144-6.144-6.144-4.096 0-8.192 4.096-6.144 8.192l22.528 196.608c-14.336 6.144-30.72 10.24-45.056 12.288v16.384c0 10.24-8.192 16.384-16.384 16.384h-67.584c-10.24 0-16.384-8.192-16.384-16.384v-14.336c-18.432-2.048-36.864-8.192-53.248-14.336l22.528-196.608c0-4.096-2.048-8.192-6.144-8.192s-6.144 2.048-6.144 6.144l-49.152 182.272c-98.304-49.152-167.936-151.552-176.128-272.384l-30.72-18.432c-12.288-4.096-16.384-18.432-10.24-30.72 14.336-26.624 53.248-51.2 106.496-67.584 0-12.288 6.144-90.112 34.816-167.936 6.144-16.384 12.288-32.768 20.48-47.104-61.44-38.912-184.32-145.408-188.416-356.352l73.728-2.048c2.048 178.176 102.4 266.24 151.552 296.96 18.432-22.528 36.864-38.912 55.296-49.152 0 0 0 0 0-2.048 0 0 77.824-92.16 81.92-180.224v-18.432h40.96v18.432c2.048 45.056 61.44 147.456 83.968 182.272 0 0 0 2.048 0 2.048 18.432 12.288 34.816 28.672 51.2 51.2 43.008-24.576 159.744-112.64 163.84-301.056l73.728 2.048c-2.048 221.184-141.312 327.68-198.656 360.448zM387.072 77.312c-10.24 30.72-26.624 57.344-38.912 79.872 10.24-2.048 20.48-4.096 30.72-4.096 2.048 0 4.096 0 6.144 0 14.336 0 28.672 2.048 43.008 4.096-14.336-20.48-30.72-51.2-40.96-79.872zM526.336 361.984c-34.816-92.16-83.968-137.216-145.408-135.168-129.024 4.096-163.84 194.56-172.032 264.192 51.2-10.24 110.592-14.336 176.128-14.336s124.928 6.144 176.128 14.336c-6.144-28.672-16.384-79.872-34.816-129.024z" />
<glyph unicode="&#xe920;" glyph-name="bfc-icon-font-25" horiz-adv-x="1165" d="M872.448 960c-102.4 0-206.848-49.152-266.24-151.552-59.392 102.4-163.84 151.552-266.24 151.552-147.456 0-290.816-102.4-290.816-288.768 0-73.728 30.72-147.456 81.92-225.28l67.584 67.584c-34.816 57.344-55.296 108.544-55.296 157.696 0 133.12 102.4 194.56 198.656 194.56 151.552 0 231.424-161.792 266.24-233.472 34.816 71.68 114.688 233.472 266.24 233.472 108.544 0 198.656-69.632 198.656-194.56 0-159.744-221.184-364.544-464.896-604.16l-100.352 98.304-67.584-65.536c53.248-51.2 108.544-106.496 165.888-163.84 299.008 296.96 559.104 518.144 559.104 735.232 0 186.368-143.36 288.768-292.864 288.768zM546.816 308.736l241.664-4.096c0 0 0 0 0 0 16.384 0 30.72 14.336 30.72 30.72s-14.336 30.72-30.72 30.72l-192.512 2.048-59.392 258.048c-4.096 16.384-18.432 28.672-36.864 28.672 0 0 0 0 0 0-18.432 0-32.768-12.288-36.864-28.672l-73.728-321.536c-16.384 75.776-34.816 157.696-40.96 190.464-4.096 14.336-14.336 24.576-30.72 24.576-14.336 0-28.672-8.192-32.768-20.48l-45.056-120.832h-208.896c-16.384 2.048-30.72-12.288-30.72-28.672s14.336-30.72 30.72-30.72h249.856l26.624 67.584c16.384-77.824 38.912-178.176 45.056-219.136 2.048-16.384 16.384-28.672 32.768-30.72 0 0 0 0 2.048 0 16.384 0 30.72 12.288 34.816 26.624l77.824 346.112 47.104-200.704z" />
<glyph unicode="&#xe921;" glyph-name="bfc-icon-font-26" horiz-adv-x="996" d="M134.637 592.119h94.815v-413.393h-94.815v413.393zM345.126 592.119h94.815v-413.393h-94.815v413.393zM557.511 592.119h94.815v-413.393h-94.815v413.393zM769.896 592.119h94.815v-413.393h-94.815v413.393zM58.785 647.111h877.985c17.067 0 32.237 11.378 36.030 28.444s-3.793 34.133-18.963 41.719l-445.63 238.933c-11.378 5.689-24.652 5.689-36.030 0l-432.356-237.037c-15.17-7.585-22.756-26.548-18.963-41.719 5.689-18.963 20.859-30.341 37.926-30.341zM491.141 878.459l293.926-155.496h-578.37l284.444 155.496zM32.237 135.111h921.6v-75.852h-921.6v75.852zM0 11.852h995.556v-75.852h-995.556v75.852z" />
<glyph unicode="&#xe922;" glyph-name="bfc-icon-font-27" horiz-adv-x="602" d="M507.904-64l-507.904 507.904 516.096 516.096 86.016-86.016-430.080-430.080 421.888-421.888z" />
<glyph unicode="&#xe923;" glyph-name="bfc-icon-font-28" horiz-adv-x="602" d="M86.016-64l-86.016 86.016 430.080 430.080-421.888 421.888 86.016 86.016 507.904-507.904-47.104-47.104z" />
<glyph unicode="&#xe924;" glyph-name="bfc-icon-font-29" horiz-adv-x="1087" d="M698.368 507.392v452.608h-309.248v-452.608h-217.088l372.736-391.168 370.688 391.168zM0 44.544h1087.488v-108.544h-1087.488v108.544z" />
<glyph unicode="&#xe925;" glyph-name="bfc-icon-font-30" horiz-adv-x="1116" d="M606.208 960l-133.12-131.072 286.72-286.72h-759.808v-186.368h761.856l-286.72-286.72 133.12-131.072 509.952 512-512 509.952z" />
<glyph unicode="&#xe926;" glyph-name="bfc-icon-font-31" horiz-adv-x="1116" d="M509.952-64l133.12 131.072-286.72 286.72h761.856v186.368h-761.856l286.72 286.72-133.12 133.12-509.952-512 509.952-512z" />
<glyph unicode="&#xe927;" glyph-name="bfc-icon-font-32" d="M854.016 747.008v212.992h-684.032v-212.992h-169.984v-555.008h169.984v-256h405.504c124.928 0 258.048 153.6 274.432 256h174.080v555.008h-169.984zM768 249.344c0-153.6-141.312-86.016-141.312-86.016s63.488-143.36-86.016-143.36h-284.672v342.016h512v-112.64zM768 747.008h-512v126.976h512v-126.976zM917.504 617.984c-12.288 0-20.48 10.24-20.48 20.48s10.24 20.48 20.48 20.48c12.288 0 20.48-10.24 20.48-20.48s-8.192-20.48-20.48-20.48zM342.016 278.016h342.016v-43.008h-342.016v43.008zM342.016 192h212.992v-43.008h-212.992v43.008z" />
<glyph unicode="&#xe928;" glyph-name="bfc-icon-font-33" horiz-adv-x="1366" d="M681.984 407.040l-681.984 552.96h1363.968l-681.984-552.96zM374.784 511.488l-374.784 303.104v-710.656l374.784 407.552zM991.232 511.488l374.784-407.552v710.656l-374.784-303.104zM903.168 439.808l-219.136-178.176-219.136 178.176-462.848-503.808h1361.92l-460.8 503.808z" />
<glyph unicode="&#xe929;" glyph-name="bfc-icon-font-34" horiz-adv-x="1229" d="M307.2 192c116.736 505.856 563.2 598.016 563.2 598.016v169.984l358.4-339.968-358.4-342.016v169.984c0 0-315.392 8.192-563.2-256zM921.6 183.808v-145.408h-819.2v614.4h337.92c38.912 40.96 79.872 73.728 118.784 102.4h-559.104v-819.2h1024v346.112l-102.4-98.304z" />
<glyph unicode="&#xe92a;" glyph-name="bfc-icon-font-35" d="M69.632 474.624l-65.536 43.008 229.376 26.624 81.92-215.040-65.536 40.96c-63.488-102.4-120.832-223.232-83.968-337.92-106.496 92.16-165.888 159.744-165.888 245.76 0 59.392 38.912 141.312 69.632 196.608zM241.664 235.008c-32.768-38.912-43.008-122.88-32.768-174.080 4.096-22.528 24.576-38.912 49.152-38.912h210.944v212.992h-227.328zM698.368 13.824v-77.824l-143.36 182.272 143.36 182.272v-75.776c120.832 0 247.808 14.336 325.632 106.496-20.48-139.264-49.152-225.28-118.784-270.336-53.248-32.768-143.36-43.008-206.848-47.104zM813.056 288.256c51.2-6.144 126.976 28.672 163.84 63.488 16.384 16.384 20.48 43.008 8.192 61.44l-110.592 178.176-182.272-112.64 120.832-190.464zM772.096 779.776l69.632 36.864-90.112-212.992-227.328 32.768 67.584 36.864c-57.344 104.448-135.168 215.040-251.904 237.568 81.92 30.72 147.456 49.152 202.752 49.152 94.208 0 149.504-53.248 229.376-180.224zM479.232 747.008c-18.432 47.104-86.016 98.304-135.168 112.64-24.576 6.144-47.104-2.048-59.392-22.528l-102.4-184.32 186.368-104.448 110.592 198.656z" />
<glyph unicode="&#xe92b;" glyph-name="bfc-icon-font-36" horiz-adv-x="1366" d="M1366.016-6.656v-57.344h-227.328v57.344h47.104c14.336 0 22.528 10.24 18.432 24.576l-26.624 77.824h-126.976l-32.768 90.112h129.024l-77.824 231.424-65.536-196.608-49.152 141.312 53.248 141.312h126.976l172.032-485.376c6.144-18.432 14.336-26.624 32.768-26.624l26.624 2.048zM1024 50.688h57.344v-114.688h-399.36v114.688h30.72c26.624 0 45.056 26.624 36.864 51.2l-47.104 120.832h-354.304l-47.104-122.88c-8.192-24.576 10.24-51.2 36.864-51.2h61.44v-112.64h-399.36v114.688h24.576c32.768 0 63.488 20.48 75.776 53.248l313.344 856.064h225.28l313.344-856.064c10.24-32.768 36.864-53.248 71.68-53.248zM405.504 390.656h241.664l-129.024 352.256-112.64-352.256z" />
<glyph unicode="&#xe92c;" glyph-name="bfc-icon-font-37" horiz-adv-x="1180" d="M884.736 706.048l-55.296-90.112c38.912-47.104 67.584-112.64 71.68-190.464s-14.336-149.504-47.104-204.8l65.536-75.776c47.104 77.824 73.728 180.224 67.584 290.816-8.192 108.544-45.056 204.8-102.4 270.336zM1177.6 452.096c-10.24 167.936-69.632 313.344-155.648 413.696l-59.392-92.16c69.632-79.872 118.784-196.608 126.976-331.776 8.192-133.12-24.576-260.096-83.968-354.304l67.584-77.824c75.776 118.784 116.736 274.432 104.448 442.368zM710.656 955.904l-444.416-321.536h-266.24v-372.736h266.24l444.416-321.536c14.336-10.24 34.816 0 34.816 18.432v978.944c0 18.432-20.48 28.672-34.816 18.432z" />
<glyph unicode="&#xe92d;" glyph-name="bfc-icon-font-38" horiz-adv-x="561" d="M352.256 691.712c0 61.44-38.912 92.16-98.304 92.16-55.296 0-94.208-28.672-135.168-67.584l-118.784 108.544c65.536 79.872 159.744 135.168 268.288 135.168 165.888 0 292.864-77.824 292.864-251.904 0-182.272-221.184-237.568-202.752-413.696h-192.512c-28.672 202.752 186.368 286.72 186.368 397.312zM262.144 208.384c75.776 0 131.072-59.392 131.072-137.216 0-75.776-55.296-135.168-131.072-135.168s-129.024 59.392-129.024 135.168c-2.048 77.824 53.248 137.216 129.024 137.216z" />
<glyph unicode="&#xe92e;" glyph-name="bfc-icon-font-39" d="M512 960c-282.624 0-512-229.376-512-512s229.376-512 512-512 512 229.376 512 512c0 282.624-229.376 512-512 512zM499.712 144.896c-45.056 0-75.776 34.816-75.776 79.872 0 47.104 32.768 81.92 75.776 81.92 45.056 0 77.824-34.816 77.824-81.92 0-43.008-32.768-79.872-77.824-79.872zM557.056 357.888h-112.64c-18.432 118.784 110.592 167.936 110.592 233.472 0 34.816-22.528 55.296-57.344 55.296-32.768 0-55.296-16.384-79.872-40.96l-69.632 63.488c38.912 47.104 94.208 79.872 157.696 79.872 98.304 0 172.032-47.104 172.032-149.504 0-106.496-131.072-139.264-120.832-241.664z" />
<glyph unicode="&#xe92f;" glyph-name="bfc-icon-font-40" horiz-adv-x="1641" d="M1538.56 755.2h-1436.16c-56.32 0-102.4 46.080-102.4 102.4s46.080 102.4 102.4 102.4h1436.16c56.32 0 102.4-46.080 102.4-102.4s-43.52-102.4-102.4-102.4zM1538.56 345.6h-1436.16c-56.32 0-102.4 46.080-102.4 102.4s46.080 102.4 102.4 102.4h1436.16c56.32 0 102.4-46.080 102.4-102.4s-43.52-102.4-102.4-102.4zM1538.56-64h-1436.16c-56.32 0-102.4 46.080-102.4 102.4s46.080 102.4 102.4 102.4h1436.16c56.32 0 102.4-46.080 102.4-102.4s-43.52-102.4-102.4-102.4z" />
<glyph unicode="&#xe931;" glyph-name="bfc-icon-font-46" horiz-adv-x="1106" d="M1054.72 24.064h-225.28v167.936c12.288 4.096 24.576 10.24 34.816 18.432 14.336-8.192 30.72-14.336 49.152-14.336 55.296 0 98.304 45.056 98.304 98.304 0 45.056-30.72 81.92-71.68 94.208 6.144 12.288 8.192 24.576 8.192 38.912 0 36.864-20.48 69.632-53.248 88.064 0 6.144 2.048 10.24 2.048 16.384 0 55.296-45.056 98.304-98.304 98.304-55.296 0-98.304-45.056-98.304-98.304 0-6.144 0-12.288 2.048-16.384-14.336-8.192-26.624-18.432-34.816-32.768-14.336 10.24-30.72 18.432-47.104 24.576 8.192 18.432 12.288 38.912 12.288 59.392 0 57.344-32.768 106.496-77.824 131.072 2.048 8.192 2.048 16.384 2.048 26.624 0 81.92-65.536 147.456-147.456 147.456s-147.456-65.536-147.456-147.456c0-8.192 0-16.384 2.048-26.624-47.104-24.576-77.824-73.728-77.824-131.072 0-20.48 4.096-40.96 12.288-59.392-61.44-18.432-106.496-73.728-106.496-141.312 0-81.92 65.536-147.456 147.456-147.456 26.624 0 53.248 8.192 73.728 20.48 18.432-14.336 40.96-26.624 63.488-30.72v-184.32h-327.68c-10.24 0-20.48-10.24-20.48-20.48v-20.48c0-10.24 10.24-20.48 20.48-20.48h1003.52c10.24 0 20.48 10.24 20.48 20.48v20.48c2.048 10.24-6.144 20.48-18.432 20.48zM440.32 24.064v184.32c24.576 4.096 45.056 16.384 63.488 30.72 22.528-12.288 47.104-20.48 73.728-20.48 14.336 0 26.624 2.048 40.96 6.144 18.432-18.432 43.008-28.672 69.632-28.672 18.432 0 34.816 4.096 49.152 14.336 8.192-8.192 18.432-12.288 30.72-16.384v-169.984h-327.68z" />
<glyph unicode="&#xe932;" glyph-name="bfc-icon-font-47" horiz-adv-x="1106" d="M710.656 835.072c0 4.096-2.048 6.144-4.096 6.144 0 0-2.048 2.048-4.096 2.048 0 0-2.048 0-2.048 0l-602.112-143.36h643.072l-30.72 135.168zM489.472 957.952c-2.048 2.048-4.096 2.048-6.144 2.048 0 0-2.048 0-4.096 0 0 0 0 0-2.048 0l-354.304-251.904 419.84 174.080-53.248 75.776zM948.224 658.944h-811.008c-22.528 0-40.96-18.432-40.96-40.96v-583.68c0-22.528 18.432-40.96 40.96-40.96h811.008c22.528 0 40.96 18.432 40.96 40.96v583.68c0 22.528-18.432 40.96-40.96 40.96zM536.576 343.552h81.92v-49.152h-71.68c0-4.096 2.048-10.24 2.048-16.384 0-26.624-6.144-43.008-24.576-63.488v-2.048h143.36v-67.584h-249.856v49.152c32.768 14.336 59.392 45.056 59.392 83.968 0 4.096 0 10.24-2.048 14.336h-55.296v47.104l36.864 2.048h4.096c-4.096 14.336-8.192 30.72-8.192 45.056 0 69.632 49.152 112.64 118.784 112.64 40.96 0 69.632-16.384 96.256-45.056l-45.056-45.056c-12.288 16.384-26.624 22.528-43.008 22.528-28.672 0-47.104-16.384-47.104-51.2-2.048-10.24 0-22.528 4.096-36.864z" />
<glyph unicode="&#xe933;" glyph-name="bfc-icon-font-48" horiz-adv-x="1106" d="M1003.52 441.856l16.384 32.768c53.248 40.96 86.016 94.208 86.016 153.6 0 126.976-147.456 229.376-331.776 229.376-114.688 0-217.088-40.96-276.48-102.4 139.264-40.96 237.568-135.168 237.568-245.76 0-38.912-6.144-75.776-20.48-108.544 18.432-2.048 36.864-2.048 57.344-2.048 43.008 0 83.968 6.144 120.832 16.384 2.048-10.24 4.096 6.144 8.192-10.24 32.768-106.496 137.216-98.304 137.216-98.304-67.584 30.72-34.816 135.168-34.816 135.168zM331.776 718.336c-182.272 0-331.776-102.4-331.776-229.376 0-59.392 32.768-112.64 86.016-153.6l16.384-32.768c0 0 32.768-104.448-36.864-135.168 0 0 104.448-8.192 137.216 98.304 4.096 14.336 6.144-2.048 8.192 10.24 36.864-10.24 77.824-16.384 120.832-16.384 260.096 0 331.776 102.4 331.776 229.376s-147.456 229.376-331.776 229.376z" />
</font>
</defs>
</svg>
