<svg id="Layer_1" data-name="Layer 1" xmlns="http://www.w3.org/2000/svg" viewBox="0 0 31.31 31.31"><defs><style>.cls-1{fill:#fff;}.cls-2{fill:#363;}</style></defs><title>face-sad-active</title><circle class="cls-1" cx="15.58" cy="15.59" r="14.96"/><path class="cls-2" d="M16,3A13,13,0,1,1,3,16,13.06,13.06,0,0,1,16,3ZM16,.38A15.66,15.66,0,1,0,31.69,16,15.66,15.66,0,0,0,16,.38Zm0,18.27c-3,0-5.41,2.13-6.65,3.65L10,23a10.73,10.73,0,0,1,6-1.71,10.73,10.73,0,0,1,6,1.71l.61-.76c-1.24-1.51-3.6-3.65-6.65-3.65Zm-4.57-7.83a2,2,0,1,0,2,2A2,2,0,0,0,11.47,10.81Zm9.13,0a2,2,0,1,0,2,2A2,2,0,0,0,20.6,10.81Z" transform="translate(-0.38 -0.38)"/></svg>