<!-- Generated by IcoMoon.io -->
<svg version="1.1" xmlns="http://www.w3.org/2000/svg" width="32" height="32" viewBox="0 0 32 32">
<title>face-neutral</title>
<path d="M15.974 2.979c7.18 0 13.021 5.841 13.021 13.021s-5.841 13.021-13.021 13.021-13.021-5.841-13.021-13.021 5.841-13.021 13.021-13.021zM15.974 0.375c-8.629 0-15.625 6.996-15.625 15.625s6.996 15.625 15.625 15.625 15.625-6.996 15.625-15.625-6.996-15.625-15.625-15.625zM21.182 22.51h-10.417v-2.604h10.417v2.604zM11.417 10.792c-1.078 0-1.953 0.874-1.953 1.953s0.875 1.953 1.953 1.953 1.953-0.874 1.953-1.953-0.875-1.953-1.953-1.953zM20.531 10.792c-1.078 0-1.953 0.874-1.953 1.953s0.875 1.953 1.953 1.953c1.078 0 1.953-0.874 1.953-1.953s-0.875-1.953-1.953-1.953z"></path>
</svg>
