<svg id="Layer_1" data-name="Layer 1" xmlns="http://www.w3.org/2000/svg" viewBox="0 0 31.25 31.25"><defs><style>.cls-1{fill:#fff;}.cls-2{fill:#363;}</style></defs><title>face-happy-active</title><ellipse class="cls-1" cx="15.63" cy="15.58" rx="14.41" ry="14.22"/><path class="cls-2" d="M16,3A13,13,0,1,1,3,16,13,13,0,0,1,16,3Zm0-2.6A15.63,15.63,0,1,0,31.63,16,15.63,15.63,0,0,0,16,.38Zm7.17,18.15A10.88,10.88,0,0,1,16,21a10.88,10.88,0,0,1-7.17-2.51l-.64.64A9.6,9.6,0,0,0,16,23.81a9.6,9.6,0,0,0,7.81-4.64ZM11.44,10.79a2,2,0,1,0,2,2A2,2,0,0,0,11.44,10.79Zm9.11,0a2,2,0,1,0,2,2A2,2,0,0,0,20.56,10.79Z" transform="translate(-0.38 -0.38)"/></svg>