<!-- Generated by IcoMoon.io -->
<svg version="1.1" xmlns="http://www.w3.org/2000/svg" width="32" height="32" viewBox="0 0 32 32">
<title>face-sad</title>
<path d="M16.031 2.984c7.194 0 13.047 5.853 13.047 13.047s-5.853 13.047-13.047 13.047-13.047-5.853-13.047-13.047 5.853-13.047 13.047-13.047zM16.031 0.375c-8.646 0-15.656 7.010-15.656 15.656s7.010 15.656 15.656 15.656 15.656-7.010 15.656-15.656-7.010-15.656-15.656-15.656zM16.033 18.641c-3.043 0-5.408 2.134-6.645 3.649l0.614 0.757c1.678-1.069 3.564-1.707 6.030-1.707s4.352 0.638 6.030 1.707l0.614-0.757c-1.237-1.515-3.602-3.649-6.645-3.649zM11.465 10.813c-1.080 0-1.957 0.875-1.957 1.957s0.877 1.957 1.957 1.957 1.957-0.875 1.957-1.957-0.877-1.957-1.957-1.957zM20.598 10.813c-1.080 0-1.957 0.875-1.957 1.957s0.877 1.957 1.957 1.957c1.080 0 1.957-0.875 1.957-1.957s-0.877-1.957-1.957-1.957z"></path>
</svg>
