<svg id="Layer_1" data-name="Layer 1" xmlns="http://www.w3.org/2000/svg" viewBox="0 0 31.25 31.25"><defs><style>.cls-1{fill:#fff;}.cls-2{fill:#363;}</style></defs><title>face-neutral-active</title><circle class="cls-1" cx="15.65" cy="15.63" r="15"/><path class="cls-2" d="M16,3A13,13,0,1,1,3,16,13,13,0,0,1,16,3Zm0-2.6A15.63,15.63,0,1,0,31.6,16,15.63,15.63,0,0,0,16,.38Zm5.21,22.14H10.76v-2.6H21.18ZM11.42,10.79a2,2,0,1,0,2,2A2,2,0,0,0,11.42,10.79Zm9.11,0a2,2,0,1,0,2,2A2,2,0,0,0,20.53,10.79Z" transform="translate(-0.35 -0.38)"/></svg>