<?xml version="1.0" encoding="utf-8"?>
<!-- Generator: Adobe Illustrator 21.0.0, SVG Export Plug-In . SVG Version: 6.00 Build 0)  -->
<svg version="1.1" id="Layer_1" xmlns="http://www.w3.org/2000/svg" xmlns:xlink="http://www.w3.org/1999/xlink" x="0px" y="0px"
	 viewBox="0 0 512 512" style="enable-background:new 0 0 512 512;" xml:space="preserve">
<style type="text/css">
	.st0{fill:#336633;}
</style>
<path class="st0" d="M256,6C117.9,6,6,117.9,6,256s111.9,250,250,250s250-111.9,250-250S394.1,6,256,6z M227.9,141.3
	c-1.7-16.7,11.5-31.1,28.1-31.1s29.8,14.4,28.1,31.1l-16.7,166.9c-0.6,5.9-5.5,10.4-11.5,10.4c-5.9,0-10.9-4.5-11.5-10.4
	L227.9,141.3z M256,407c-14.4,0-26-11.7-26-26s11.7-26,26-26s26,11.7,26,26S270.4,407,256,407z"/>
</svg>
