<?xml version="1.0" encoding="iso-8859-1"?>
<!-- Generator: Adobe Illustrator 20.1.0, SVG Export Plug-In . SVG Version: 6.00 Build 0)  -->
<svg version="1.1" id="Layer_1" xmlns="http://www.w3.org/2000/svg" xmlns:xlink="http://www.w3.org/1999/xlink" x="0px" y="0px"
	 viewBox="0 0 512 512" style="enable-background:new 0 0 512 512;" xml:space="preserve">
<path style="fill:#010202;" d="M256.5,47.75c115.105,0,208.75,93.645,208.75,208.75S371.605,465.25,256.5,465.25
	S47.75,371.605,47.75,256.5S141.395,47.75,256.5,47.75z M256.5,6C118.161,6,6,118.161,6,256.5S118.161,507,256.5,507
	S507,394.839,507,256.5S394.839,6,256.5,6z M256.521,298.25c-48.68,0-86.527,34.151-106.316,58.387l9.832,12.108
	c26.845-17.097,57.031-27.305,96.484-27.305s69.639,10.208,96.484,27.305l9.832-12.108
	C343.048,332.402,305.201,298.25,256.521,298.25z M183.438,173c-17.285,0-31.313,14.007-31.313,31.313s14.028,31.313,31.313,31.313
	s31.313-14.007,31.313-31.313S200.722,173,183.438,173z M329.563,173c-17.285,0-31.313,14.007-31.313,31.313
	s14.028,31.313,31.313,31.313c17.284,0,31.313-14.007,31.313-31.313S346.847,173,329.563,173z"/>
</svg>
