<?xml version="1.0" encoding="utf-8"?>
<!-- Generator: Adobe Illustrator 21.0.0, SVG Export Plug-In . SVG Version: 6.00 Build 0)  -->
<svg version="1.1" id="Layer_1" xmlns="http://www.w3.org/2000/svg" xmlns:xlink="http://www.w3.org/1999/xlink" x="0px" y="0px"
	 viewBox="0 0 512 512" style="enable-background:new 0 0 512 512;" xml:space="preserve">
<style type="text/css">
	.st0{fill:#FFFFFF;}
</style>
<g>
	<path class="st0" d="M255.9,51.7c66.4,0,74.3,0.3,100.5,1.5c24.3,1.1,37.4,5.2,46.2,8.6c11.6,4.5,19.9,9.9,28.6,18.6
		s14.1,17,18.6,28.6c3.4,8.8,7.5,21.9,8.6,46.2c1.2,26.2,1.5,34.1,1.5,100.5s-0.3,74.3-1.5,100.5c-1.1,24.3-5.2,37.4-8.6,46.2
		c-4.5,11.6-9.9,19.9-18.6,28.6s-17,14.1-28.6,18.6c-8.8,3.4-21.9,7.5-46.2,8.6c-26.2,1.2-34.1,1.5-100.5,1.5s-74.3-0.3-100.5-1.5
		c-24.3-1.1-37.4-5.2-46.2-8.6c-11.6-4.5-19.9-9.9-28.6-18.6c-8.7-8.7-14.1-17-18.6-28.6c-3.4-8.8-7.5-21.9-8.6-46.2
		C52.2,329.9,52,322,52,255.6s0.3-74.3,1.5-100.5c1.1-24.3,5.2-37.4,8.6-46.2c4.5-11.6,9.9-19.9,18.6-28.6s17-14.1,28.6-18.6
		c8.8-3.4,21.9-7.5,46.2-8.6C181.6,51.9,189.5,51.7,255.9,51.7 M255.9,6.8c-67.6,0-76,0.3-102.6,1.5c-26.5,1.2-44.6,5.4-60.4,11.6
		c-16.4,6.4-30.2,14.9-44.1,28.7C35.1,62.4,26.6,76.3,20.2,92.6C14.1,108.5,9.9,126.5,8.7,153c-1.2,26.5-1.5,35-1.5,102.6
		s0.3,76,1.5,102.6c1.2,26.5,5.4,44.6,11.6,60.4c6.4,16.4,14.9,30.2,28.7,44.1c13.8,13.8,27.7,22.3,44.1,28.7
		c15.8,6.1,33.9,10.4,60.4,11.6c26.5,1.2,35,1.5,102.6,1.5s76-0.3,102.6-1.5c26.5-1.2,44.6-5.4,60.4-11.6
		c16.4-6.4,30.2-14.9,44.1-28.7c13.8-13.8,22.3-27.7,28.7-44.1c6.1-15.8,10.4-33.9,11.6-60.4c1.2-26.5,1.5-35,1.5-102.6
		s-0.3-76-1.5-102.6c-1.2-26.5-5.4-44.6-11.6-60.4c-6.4-16.4-14.9-30.2-28.7-44.1s-27.7-22.3-44.1-28.7
		C403,13.7,384.9,9.5,358.5,8.3C331.9,7.1,323.5,6.8,255.9,6.8L255.9,6.8z"/>
	<path class="st0" d="M255.9,127.8c-70.5,0-127.7,57.2-127.7,127.7s57.2,127.7,127.7,127.7s127.7-57.2,127.7-127.7
		C383.6,185,326.5,127.8,255.9,127.8z M255.9,338.5c-45.8,0-82.9-37.1-82.9-82.9s37.1-82.9,82.9-82.9s82.9,37.1,82.9,82.9
		S301.7,338.5,255.9,338.5z"/>
	<circle class="st0" cx="388.7" cy="122.8" r="29.8"/>
</g>
</svg>
