<?xml version="1.0" encoding="iso-8859-1"?>
<!-- Generator: Adobe Illustrator 20.1.0, SVG Export Plug-In . SVG Version: 6.00 Build 0)  -->
<svg version="1.1" id="Layer_1" xmlns="http://www.w3.org/2000/svg" xmlns:xlink="http://www.w3.org/1999/xlink" x="0px" y="0px"
	 viewBox="0 0 512 512" style="enable-background:new 0 0 512 512;" xml:space="preserve">
<g>
	<path style="fill:#010202;" d="M290.534,137.12c0-29.544-19.45-45.407-48.291-45.407c-26.66,0-46.11,13.682-65.56,33.167
		l-58.35-53.32C150.762,32.66,196.133,6,249.453,6c81.422,0,142.656,38.161,142.656,123.171c0,89.371-108.082,115.996-99.43,201.745
		h-92.923C185.335,232.224,290.534,191.143,290.534,137.12z M245.866,372.699c36.719,0,64.118,28.841,64.118,67.002
		c0,37.458-27.399,66.299-64.118,66.299c-36.754,0-63.414-28.841-63.414-66.299C182.451,401.54,209.111,372.699,245.866,372.699z"/>
</g>
</svg>
