<?xml version="1.0" encoding="utf-8"?>
<!-- Generator: Adobe Illustrator 21.0.0, SVG Export Plug-In . SVG Version: 6.00 Build 0)  -->
<svg version="1.1" id="Layer_1" xmlns="http://www.w3.org/2000/svg" xmlns:xlink="http://www.w3.org/1999/xlink" x="0px" y="0px"
	 viewBox="0 0 512 512" style="enable-background:new 0 0 512 512;" xml:space="preserve">
<style type="text/css">
	.st0{fill:#FFFFFF;}
</style>
<path class="st0" d="M489,423.5L385.4,319.9c20.1-31.6,31.7-69.1,31.7-109.3C417.2,97.8,325.4,6,212.6,6S8,97.8,8,210.6
	c0,112.8,91.8,204.6,204.6,204.6c38.2,0,73.9-10.5,104.5-28.8l104.5,104.5C466.2,535.4,533.6,468.1,489,423.5z M212.6,351.7
	c-77.8,0-141.1-63.3-141.1-141.1c0-77.8,63.3-141.1,141.1-141.1s141.1,63.3,141.1,141.1C353.7,288.4,290.4,351.7,212.6,351.7z"/>
</svg>
