<?xml version="1.0" encoding="iso-8859-1"?>
<!-- Generator: Adobe Illustrator 20.1.0, SVG Export Plug-In . SVG Version: 6.00 Build 0)  -->
<svg version="1.1" id="Layer_1" xmlns="http://www.w3.org/2000/svg" xmlns:xlink="http://www.w3.org/1999/xlink" x="0px" y="0px"
	 viewBox="0 0 512 512" style="enable-background:new 0 0 512 512;" xml:space="preserve">
<path style="fill:#010202;" d="M506,421.725v20.833h-83.333v-20.833h17.396c5.375,0,8.438-3.708,6.688-8.792l-9.854-28.563h-46.479
	l-11.979-33.125h47.813l-28.375-84.937l-24.042,71.896l-18.313-52.042l19.188-51.938H421l63.187,177.417
	c2.313,6.563,5.083,10.083,12.042,10.083L506,421.725z M381,400.892h20.833v41.667H256v-41.667h11.083
	c9.563,0,16.292-9.438,13.188-18.479l-17-44.021H133.438l-16.979,44.021c-3.104,9.042,3.625,18.479,13.187,18.479h22.188v41.667H6
	v-41.667h8.958c12.354,0,23.396-7.813,27.5-19.479L157.188,67.558h82.333L354.25,381.413
	C358.354,393.079,368.625,400.892,381,400.892z M154.208,275.892H242.5l-47.062-129.146L154.208,275.892z"/>
</svg>
