<?xml version="1.0" encoding="utf-8"?>
<!-- Generator: Adobe Illustrator 21.0.0, SVG Export Plug-In . SVG Version: 6.00 Build 0)  -->
<svg version="1.1" id="Layer_1" xmlns="http://www.w3.org/2000/svg" xmlns:xlink="http://www.w3.org/1999/xlink" x="0px" y="0px"
	 viewBox="0 0 512 512" style="enable-background:new 0 0 512 512;" xml:space="preserve">
<style type="text/css">
	.st0{fill:#FFFFFF;}
</style>
<g id="Lozenge">
	<g>
		<path class="st0" d="M500.6,151.6c0,0-4.9-34.4-19.8-49.5c-19-19.9-40.2-20-50-21.1c-69.8-5-174.4-5-174.4-5h-0.2
			c0,0-104.7,0-174.4,5c-9.7,1.2-31,1.3-50,21.1c-14.9,15.1-19.8,49.5-19.8,49.5S7,192,7,232.3v37.8c0,40.3,5,80.7,5,80.7
			s4.9,34.4,19.8,49.5c19,19.9,43.9,19.2,55,21.3c39.9,3.8,169.5,5,169.5,5s104.8-0.2,174.5-5.2c9.7-1.2,31-1.3,50-21.1
			c14.9-15.1,19.8-49.5,19.8-49.5s5-40.3,5-80.7v-37.8C505.5,192,500.6,151.6,500.6,151.6z M204.8,316l0-140.1l134.7,70.3L204.8,316
			z"/>
	</g>
</g>
</svg>
