<?xml version="1.0" encoding="iso-8859-1"?>
<!-- Generator: Adobe Illustrator 20.1.0, SVG Export Plug-In . SVG Version: 6.00 Build 0)  -->
<svg version="1.1" id="Layer_1" xmlns="http://www.w3.org/2000/svg" xmlns:xlink="http://www.w3.org/1999/xlink" x="0px" y="0px"
	 viewBox="0 0 512 512" style="enable-background:new 0 0 512 512;" xml:space="preserve">
<path style="fill:#010202;" d="M256,47.167c114.875,0,208.333,93.458,208.333,208.333S370.875,463.833,256,463.833
	S47.667,370.375,47.667,255.5S141.125,47.167,256,47.167z M256,5.5C117.938,5.5,6,117.438,6,255.5s111.938,250,250,250
	s250-111.938,250-250S394.062,5.5,256,5.5z M381,350.042l-95.667-94.75l94.708-95.562l-29.5-29.229l-94.687,95.604l-95.583-94.646
	L131,160.729l95.688,94.833l-94.729,95.667l29.271,29.271l94.896-95.75l95.646,94.792L381,350.042z"/>
</svg>
