<?xml version="1.0" encoding="iso-8859-1"?>
<!-- Generator: Adobe Illustrator 20.1.0, SVG Export Plug-In . SVG Version: 6.00 Build 0)  -->
<svg version="1.1" id="Layer_1" xmlns="http://www.w3.org/2000/svg" xmlns:xlink="http://www.w3.org/1999/xlink" x="0px" y="0px"
	 viewBox="0 0 512 512" style="enable-background:new 0 0 512 512;" xml:space="preserve">
<path d="M256,6C117.929,6,6,117.929,6,256c0,138.071,111.929,250,250,250s250-111.929,250-250C506,117.929,394.071,6,256,6z
	 M250.48,403.5c-21.685,0-37.415-17.016-37.415-39.116c0-22.515,15.73-39.531,37.415-39.531c21.665,0,37.83,17.016,37.83,39.531
	C288.31,386.484,272.145,403.5,250.48,403.5z M278.1,300.2h-54.825c-8.508-58.228,53.559-82.466,53.559-114.34
	c0-17.431-11.475-26.79-28.491-26.79c-15.729,0-27.205,8.072-38.68,19.568l-34.427-31.459c19.133-22.951,45.902-38.68,77.361-38.68
	c48.04,0,84.167,22.515,84.167,72.671C336.764,233.9,272.996,249.608,278.1,300.2z"/>
</svg>
