<?xml version="1.0" encoding="iso-8859-1"?>
<!-- Generator: Adobe Illustrator 20.1.0, SVG Export Plug-In . SVG Version: 6.00 Build 0)  -->
<svg version="1.1" id="Layer_1" xmlns="http://www.w3.org/2000/svg" xmlns:xlink="http://www.w3.org/1999/xlink" x="0px" y="0px"
	 viewBox="0 0 512 512" style="enable-background:new 0 0 512 512;" xml:space="preserve">
<path style="fill:#010202;" d="M256,47.667c114.875,0,208.333,93.458,208.333,208.333S370.875,464.333,256,464.333
	S47.667,370.875,47.667,256S141.125,47.667,256,47.667z M256,6C117.938,6,6,117.938,6,256s111.938,250,250,250s250-111.938,250-250
	S394.062,6,256,6z M370.729,296.438c-31.5,24.896-66.125,40.229-114.708,40.229c-48.625,0-83.25-15.333-114.75-40.229L131,306.708
	C154.479,342.542,197.667,381,256.021,381c58.333,0,101.5-38.458,124.979-74.292L370.729,296.438z M183.083,172.667
	c-17.25,0-31.25,13.979-31.25,31.25s14,31.25,31.25,31.25s31.25-13.979,31.25-31.25S200.333,172.667,183.083,172.667z
	 M328.917,172.667c-17.25,0-31.25,13.979-31.25,31.25s14,31.25,31.25,31.25s31.25-13.979,31.25-31.25
	S346.167,172.667,328.917,172.667z"/>
</svg>
