<?xml version="1.0" encoding="iso-8859-1"?>
<!-- Generator: Adobe Illustrator 20.1.0, SVG Export Plug-In . SVG Version: 6.00 Build 0)  -->
<svg version="1.1" id="Layer_1" xmlns="http://www.w3.org/2000/svg" xmlns:xlink="http://www.w3.org/1999/xlink" x="0px" y="0px"
	 viewBox="0 0 512 512" style="enable-background:new 0 0 512 512;" xml:space="preserve">
<g>
	<circle style="fill:#010202;" cx="322.285" cy="44.654" r="37.941"/>
	<circle style="fill:#010202;" cx="175.538" cy="72.041" r="37.941"/>
	<path style="fill:#010202;" d="M192.962,398.954h-37.076l12.141-47.039c-1.16,0.156-2.329,0.234-3.518,0.234
		c-14.752,0-26.757-12.004-26.757-26.762c0-2.343,0.322-4.653,0.984-7.05c12.082-43.287,32.603-116.221,35.711-123.748
		c3.798-9.165,11.612-15.215,21.48-16.951c-1.471-4.506-2.47-9.224-2.47-14.215c0-24.946,19.917-45.212,44.664-46.041
		c-7.935-13.553-29.742-4.251-29.742-4.251c-0.598,0.304-1.19,0.572-1.786,0.856c0,0-12.432,6.743-30.85,6.997
		c-0.056-0.001-0.114,0.002-0.171,0.001c-0.056,0.001-0.115-0.002-0.171-0.001c-18.418-0.254-30.801-6.974-30.801-6.974
		c-0.611-0.29-1.22-0.567-1.834-0.879c0,0-23.963-10.27-30.81,6.276c-4.127,9.972-42.772,148.418-44.44,154.394
		c-0.304,1.117-0.519,2.27-0.519,3.483c0,7.353,5.961,13.314,13.314,13.314c6.106,0,11.197-4.135,12.767-9.741l0.05,0.013
		l32.693-98.076l6.103,27.9L95.983,349.907h40.547l3.114,141.181c-0.002,0.107-0.032,0.206-0.032,0.313
		c0,7.721,6.259,13.979,13.979,13.979c7.69,0,35.979,0,43.831,0c-1.503-3.381-2.375-7.1-2.375-11.033L192.962,398.954z"/>
	<path style="fill:#010202;" d="M438.621,259.165l0.066-0.018c0,0-43.357-155.437-47.896-166.407
		c-7.369-17.808-33.159-6.754-33.159-6.754c-0.643,0.327-1.281,0.616-1.922,0.921c0,0-13.378,7.257-33.201,7.53
		c-0.062-0.001-0.123,0.002-0.184,0.001c-0.061,0.001-0.124-0.002-0.184-0.001c-19.823-0.273-33.15-7.505-33.15-7.505
		c-0.658-0.312-1.313-0.61-1.974-0.946c0,0-25.79-11.053-33.159,6.754c-1,2.416-3.899,11.906-7.788,25.136
		c22.417,3.158,39.771,22.273,39.771,45.547c0,5.019-1.006,9.765-2.492,14.294c9.888,1.727,17.763,7.7,21.551,16.877
		c2.602,6.29,16.165,54.259,29.826,102.852l5.915,20.969c1.754,6.114,0.244,12.877,0.068,13.627
		c-3.118,11.897-13.768,20.107-25.919,20.107c-1.16,0-2.319-0.078-3.459-0.224l12.141,47.029h-37.076l-2.105,95.071
		c0,3.078-0.608,5.975-1.513,8.729c2.415,1.653,5.332,2.626,8.48,2.626c8.309,0,53.728,0,62.036,0
		c8.309,0,15.046-6.735,15.046-15.045c0-0.065-0.019-0.125-0.019-0.191l7.549-329.184l34.893,104.681
		c1.375,6.478,7.118,11.343,14.007,11.343c7.914,0,14.33-6.415,14.33-14.329C439.099,261.445,438.903,260.288,438.621,259.165z"/>
	<path style="fill:#010202;" d="M302.484,382.694L274.12,272.84l4.817-22.016l25.585,76.752c1.008,4.75,5.219,8.317,10.27,8.317
		c5.802,0,10.506-4.704,10.506-10.506c0-0.888-0.144-1.736-0.351-2.56l0.047-0.013c0,0-31.79-113.967-35.117-122.01
		c-5.403-13.057-24.312-4.952-24.312-4.952c-0.473,0.24-0.94,0.452-1.409,0.675c0,0-9.81,5.321-24.344,5.521
		c-0.044,0-0.09,0.002-0.134,0.001c-0.045,0.001-0.09-0.001-0.135-0.001c-14.534-0.2-24.305-5.503-24.305-5.503
		c-0.482-0.229-0.963-0.448-1.448-0.694c0,0-18.909-8.104-24.312,4.952c-3.257,7.869-33.753,117.119-35.068,121.834
		c-0.239,0.881-0.409,1.791-0.409,2.748c0,5.802,4.704,10.506,10.506,10.506c4.818,0,8.835-3.263,10.075-7.687l0.039,0.01
		l25.797-77.393l4.818,22.016l-28.365,109.854h31.997l2.457,111.409c-0.001,0.084-0.024,0.162-0.024,0.247
		c0,6.092,4.939,11.031,11.031,11.031c6.091,0,28.587,0,34.68,0c6.091,0,11.031-4.938,11.031-11.031
		c0-0.048-0.015-0.092-0.015-0.139l2.46-111.516H302.484z"/>
	<circle style="fill:#010202;" cx="239.65" cy="163.426" r="29.94"/>
</g>
</svg>
