<?xml version="1.0" encoding="iso-8859-1"?>
<!-- Generator: Adobe Illustrator 20.1.0, SVG Export Plug-In . SVG Version: 6.00 Build 0)  -->
<svg version="1.1" id="Layer_1" xmlns="http://www.w3.org/2000/svg" xmlns:xlink="http://www.w3.org/1999/xlink" x="0px" y="0px"
	 viewBox="0 0 512 512" style="enable-background:new 0 0 512 512;" xml:space="preserve">
<g>
	<g>
		<g>
			<g>
				<path style="fill:#010202;" d="M253.855,136.219c6.745,0,12.236-5.491,12.236-12.236V50.585c0-6.745-5.474-12.236-12.236-12.236
					s-12.253,5.491-12.253,12.236v73.398C241.619,130.728,247.093,136.219,253.855,136.219z"/>
			</g>
		</g>
		<g>
			<g>
				<path style="fill:#010202;" d="M137.319,176.156c2.406,2.39,5.525,3.576,8.66,3.576c3.152,0,6.27-1.203,8.66-3.576
					c4.779-4.779,4.779-12.541,0-17.32l-51.892-51.892c-4.779-4.762-12.524-4.762-17.303,0c-4.779,4.779-4.779,12.541,0,17.32
					L137.319,176.156z"/>
			</g>
		</g>
		<g>
			<g>
				<path style="fill:#010202;" d="M18.253,287.603h73.398c6.745,0,12.236-5.491,12.236-12.253c0-6.745-5.474-12.236-12.236-12.236
					H18.253C11.491,263.114,6,268.605,6,275.35C6.017,282.129,11.491,287.603,18.253,287.603z"/>
			</g>
		</g>
		<g>
			<g>
				<path style="fill:#010202;" d="M364.506,179.732c3.152,0,6.253-1.203,8.66-3.576l51.909-51.892
					c4.762-4.779,4.762-12.541,0-17.32c-4.796-4.762-12.524-4.762-17.303,0l-51.909,51.892c-4.779,4.779-4.779,12.541,0,17.32
					C358.236,178.545,361.371,179.732,364.506,179.732z"/>
			</g>
		</g>
		<g>
			<g>
				<path style="fill:#010202;" d="M406.62,275.35c0,6.762,5.474,12.253,12.253,12.253h73.398c6.745,0,12.236-5.491,12.236-12.253
					c0-6.745-5.474-12.236-12.236-12.236h-73.398C412.094,263.114,406.62,268.588,406.62,275.35z"/>
			</g>
		</g>
	</g>
	<g>
		<path style="fill:#010202;" d="M255.253,176.522c-62.586,0-113.79,51.206-113.79,113.79v113.79h227.579v-113.79
			C369.043,227.728,317.839,176.522,255.253,176.522z M201.068,368.881c0,8.941-7.316,16.256-16.256,16.256
			s-16.256-7.315-16.256-16.256V260.51c0-8.941,7.316-16.256,16.256-16.256s16.256,7.315,16.256,16.256V368.881z"/>
	</g>
</g>
<g>
	<path style="fill:#010202;" d="M369.043,471.833H141.464c-20.912,0-37.93-17.018-37.93-37.93c0-20.912,17.018-37.93,37.93-37.93
		h227.579c20.912,0,37.93,17.018,37.93,37.93C406.973,454.816,389.955,471.833,369.043,471.833z M141.464,417.648
		c-8.964,0-16.256,7.292-16.256,16.256s7.292,16.256,16.256,16.256h227.579c8.964,0,16.256-7.292,16.256-16.256
		s-7.292-16.256-16.256-16.256H141.464z"/>
</g>
</svg>
