<?xml version="1.0" encoding="iso-8859-1"?>
<!-- Generator: Adobe Illustrator 20.1.0, SVG Export Plug-In . SVG Version: 6.00 Build 0)  -->
<svg version="1.1" id="Layer_1" xmlns="http://www.w3.org/2000/svg" xmlns:xlink="http://www.w3.org/1999/xlink" x="0px" y="0px"
	 viewBox="0 0 512 512" style="enable-background:new 0 0 512 512;" xml:space="preserve">
<g>
	<path style="fill:#010202;" d="M379.913,36c-43.807,0-88.411,20.777-114.034,64.763c-25.502-43.767-70.206-64.564-114.172-64.564
		c-63.347,0-125.1,43.288-125.1,123.265c0,31.445,12.942,63.168,34.736,96.267l28.852-28.852
		c-14.955-24.146-23.708-46.678-23.708-67.415c0-57.286,44.185-83.386,85.221-83.386c64.942,0,99.218,69.289,114.172,100.116
		c14.895-30.707,49.53-100.295,114.053-100.316c46.161-0.02,85.341,30.228,85.341,83.586c0,68.632-94.552,156.525-199.394,259.212
		l-43.228-42.291l-28.194,28.194c22.752,22.312,46.758,45.601,71.423,70.087C394.09,347.433,505.151,252.402,505.151,159.464
		C505.151,79.607,443.38,36,379.913,36z"/>
	<path style="fill:#010202;" d="M239.806,314.648l103.167,1.46c0.06,0,0.124,0,0.19,0c7.241,0,13.163-5.815,13.267-13.081
		c0.104-7.326-5.754-13.358-13.086-13.461l-82.413-1.167l-25.782-110.264c-1.736-7.396-8.242-12.554-15.836-12.554
		c-0.018,0-0.035,0-0.057,0.009c-7.616,0.017-14.113,5.227-15.807,12.658l-31.415,138.292c-6.705-32.028-14.563-67.142-17.894-81.89
		c-1.387-6.126-6.519-10.524-12.778-10.947c-6.257-0.311-11.988,3.266-14.192,9.158l-19.305,51.477H19.04
		c-7.331,0-13.271,5.944-13.271,13.271c0,7.327,5.941,13.271,13.271,13.271h107.218l11.068-29.523
		c7.287,33.299,16.394,76.205,18.865,93.632c1.011,7.163,6.99,12.58,14.213,12.883c0.212,0.009,0.428,0.017,0.64,0.017
		c6.985,0,13.089-4.829,14.661-11.716l33.748-148.574L239.806,314.648z"/>
</g>
</svg>
