<?xml version="1.0" encoding="iso-8859-1"?>
<!-- Generator: Adobe Illustrator 20.1.0, SVG Export Plug-In . SVG Version: 6.00 Build 0)  -->
<svg version="1.1" id="Layer_1" xmlns="http://www.w3.org/2000/svg" xmlns:xlink="http://www.w3.org/1999/xlink" x="0px" y="0px"
	 viewBox="0 0 512 512" style="enable-background:new 0 0 512 512;" xml:space="preserve">
<g>
	<path style="fill:#13110C;" d="M255.905,51.653c66.418,0,74.285,0.253,100.514,1.45c24.252,1.107,37.423,5.159,46.189,8.565
		c11.611,4.512,19.897,9.903,28.601,18.607c8.704,8.704,14.095,16.991,18.607,28.601c3.406,8.765,7.458,21.936,8.565,46.188
		c1.197,26.23,1.45,34.097,1.45,100.515s-0.253,74.285-1.45,100.514c-1.107,24.252-5.159,37.423-8.565,46.189
		c-4.512,11.611-9.903,19.897-18.607,28.601c-8.704,8.704-16.991,14.095-28.601,18.607c-8.765,3.406-21.936,7.458-46.189,8.565
		c-26.226,1.197-34.092,1.45-100.514,1.45s-74.289-0.253-100.514-1.45c-24.252-1.107-37.424-5.159-46.189-8.565
		c-11.611-4.512-19.897-9.903-28.601-18.607c-8.704-8.704-14.095-16.991-18.607-28.601c-3.406-8.765-7.458-21.936-8.565-46.188
		c-1.197-26.23-1.45-34.097-1.45-100.515s0.253-74.285,1.45-100.514c1.107-24.252,5.159-37.424,8.565-46.189
		c4.512-11.611,9.903-19.897,18.607-28.601c8.704-8.704,16.991-14.095,28.601-18.607c8.765-3.406,21.936-7.458,46.188-8.565
		C181.62,51.906,189.487,51.653,255.905,51.653 M255.905,6.834c-67.555,0-76.026,0.286-102.557,1.497
		c-26.477,1.208-44.558,5.413-60.381,11.562C76.61,26.249,62.738,34.755,48.909,48.583C35.08,62.412,26.575,76.284,20.218,92.641
		c-6.149,15.823-10.354,33.904-11.562,60.381c-1.21,26.531-1.497,35.002-1.497,102.557c0,67.555,0.286,76.026,1.497,102.557
		c1.208,26.477,5.413,44.558,11.562,60.381c6.357,16.357,14.862,30.229,28.691,44.058c13.829,13.829,27.701,22.334,44.058,28.691
		c15.823,6.149,33.904,10.354,60.381,11.562c26.531,1.211,35.002,1.497,102.557,1.497s76.026-0.286,102.557-1.497
		c26.477-1.208,44.558-5.413,60.381-11.562c16.357-6.357,30.229-14.862,44.058-28.691c13.829-13.829,22.334-27.701,28.691-44.058
		c6.149-15.823,10.354-33.904,11.562-60.381c1.21-26.531,1.497-35.002,1.497-102.557s-0.286-76.026-1.497-102.557
		c-1.208-26.477-5.413-44.558-11.562-60.381c-6.357-16.357-14.862-30.229-28.691-44.058c-13.829-13.829-27.701-22.334-44.058-28.691
		C403.02,13.743,384.939,9.539,358.462,8.33C331.931,7.12,323.46,6.834,255.905,6.834L255.905,6.834z"/>
	<path style="fill:#13110C;" d="M255.905,127.845c-70.546,0-127.734,57.188-127.734,127.734
		c0,70.546,57.189,127.734,127.734,127.734s127.734-57.188,127.734-127.734C383.639,185.034,326.451,127.845,255.905,127.845z
		 M255.905,338.494c-45.793,0-82.915-37.122-82.915-82.915s37.122-82.915,82.915-82.915c45.793,0,82.915,37.122,82.915,82.915
		S301.698,338.494,255.905,338.494z"/>
	<circle style="fill:#13110C;" cx="388.686" cy="122.798" r="29.849"/>
</g>
</svg>
