<?xml version="1.0" encoding="iso-8859-1"?>
<!-- Generator: Adobe Illustrator 20.1.0, SVG Export Plug-In . SVG Version: 6.00 Build 0)  -->
<svg version="1.1" id="Layer_1" xmlns="http://www.w3.org/2000/svg" xmlns:xlink="http://www.w3.org/1999/xlink" x="0px" y="0px"
	 viewBox="0 0 512 512" style="enable-background:new 0 0 512 512;" xml:space="preserve">
<path style="fill:#010202;" d="M392.308,239.618c-3.818,6.106-8.469,12.441-13.61,18.8c-5.409,6.671-12.019,12.738-19.148,18.386
	c-14.244,11.32-30.717,21.253-45.895,31.541c-7.545,5.196-14.836,10.334-19.108,15.743c-4.619,5.896-9.512,13.779-13.889,20.929
	c-8.853,14.673-16.717,28.914-23.331,41.139c-1.282,2.376-2.474,4.611-3.659,6.833c3.396,6.18,6.476,11.412,8.823,15.448
	C508.708,303.493,449.685,153.027,482.664,6c-73.582,75.028-12.446,11.922-198.921,166.788
	c-53.214,41.631-64.682,89.73-60.142,132.279c-1.241,3.586-2.47,7.266-3.645,11.143c-1.803,5.977-3.476,12.326-4.72,19.178
	l-0.715,5.42c-0.327,2.545-0.188,3.4-0.304,5.188c-0.151,3.047-0.23,6.306-0.084,9.939c0.066,7.084,0.881,13.489,1.892,19.968
	c1.009,6.416,2.456,12.562,3.949,18.427c0.749,2.82,1.531,5.559,2.322,8.229c-0.907-1.19-1.515-1.885-2.81-3.439
	c-1.519-1.846-2.891-3.269-4.232-4.645c-10.859-10.896-21.635-19.463-30.602-28.733c-4.467-4.568-8.471-9.171-11.575-13.849
	c-1.133-1.691-2.197-3.603-3.225-5.545c21.129-34.19,38.381-86.473-9.785-140.167C45.11,70.247,81.215,123.732,37.642,60.028
	c4.823,107.376-53.481,205.954,93.94,310.032c-0.186-1.674-0.372-3.348-0.579-5.138c-1.123-9.595-2.541-20.825-4.452-32.507
	c-0.943-5.66-2.131-12.076-3.354-16.629c-0.999-3.998-4.282-9.091-7.829-14.344c-7.158-10.464-15.437-21.201-21.933-32.321
	c-3.257-5.558-6.089-11.285-7.982-17.138c-1.752-5.47-3.21-10.827-4.168-15.812c-2.059-10.08-1.147-18.748-0.06-24.336
	c1.115-5.635,1.752-8.855,1.752-8.855s-0.004,3.27-0.011,8.993c0.025,5.717,0.769,13.698,4.42,22.436
	c1.79,4.405,4.042,8.999,6.725,13.82c2.583,4.435,6.037,8.812,10,13.113c7.937,8.663,17.669,16.887,27.528,26.184
	c4.832,4.687,10.138,9.633,14.733,17.237c4.103,7.14,6.531,12.883,9.221,18.885c0.514,1.186,0.937,2.262,1.433,3.428
	c0.124,3.828,0.501,7.922,1.514,12.335c0.562,2.714,1.269,5.489,2.078,8.394c0.769,2.769,1.631,5.661,2.828,8.903
	c2.36,6.226,5.644,12.287,9.298,18.234c7.229,11.851,16.477,23.493,23.436,34.672c3.16,4.952,5.172,10.322,7.554,16.961
	c2.31,6.36,4.497,12.782,6.517,18.997c4.053,12.433,6.5,18.297,9.548,30.431c0.352,9.847-0.733,14.683,0,19.929
	c-0.088,3.253-0.059,7.375,0,9.965h49.824c0,0,10.434,0.235,9.965,0c-3.986-8.323-7.62-14.419-9.965-19.929
	c-2.604-7.423-5.11-11.637-10.279-21.611c-5.165-9.946-11.445-21.086-18.465-32.83c-1.914-3.205-4.045-6.538-6.078-9.816
	c-1.08-8.87-2.527-18.821-3.326-29.339c-0.379-5.752-0.659-11.658-0.493-17.573c0.152-5.837,0.547-12.023,1.535-17.46
	c0.303-2.316,0.865-4.959,1.486-7.671c0.332,0.94,0.637,1.92,0.977,2.846c6.466-8.018,13.509-16.564,21.239-25.465
	c6.137-6.889,11.974-13.722,20.173-21.094c8.866-7.606,18.016-11.928,26.582-16.161c17.334-8.285,34.336-15.365,49.116-23.887
	c7.374-4.228,14.119-8.815,19.705-13.918c5.801-5.437,10.946-10.788,15.354-16.068c8.905-10.464,13.452-21.168,15.993-28.947
	c2.504-7.81,3.934-12.273,3.934-12.273s-0.818,4.627-2.247,12.726C403.378,215.451,400.162,227.358,392.308,239.618z"/>
</svg>
