<?xml version="1.0" encoding="iso-8859-1"?>
<!-- Generator: Adobe Illustrator 20.1.0, SVG Export Plug-In . SVG Version: 6.00 Build 0)  -->
<svg version="1.1" id="Layer_1" xmlns="http://www.w3.org/2000/svg" xmlns:xlink="http://www.w3.org/1999/xlink" x="0px" y="0px"
	 viewBox="0 0 512 512" style="enable-background:new 0 0 512 512;" xml:space="preserve">
<path style="fill:#010202;" d="M39.646,242.979L7.667,222.438l112.479-12.875l40.083,104.646l-31.625-20.021
	c-30.875,50.042-59.229,108.646-41.229,164.5C35.229,414.479,6,380.5,6,339.458C6,309.833,25.25,269.896,39.646,242.979z
	 M124.167,360.167c-15.896,19.396-20.875,60.146-15.688,84.813c2.375,11.292,12.333,19.354,23.896,19.354h102.792V360.167H124.167z
	 M347.208,468v38L277,417.188l70.208-89.208v37.438C406.021,365.313,468,358.479,506,313.771
	c-10.083,67.625-23.563,110.375-58.438,132C422.375,461.354,377.688,466.042,347.208,468z M402.875,334.396
	c24.854,3.292,62.125-13.938,80.354-31.354c8.354-7.979,9.958-20.688,3.875-30.5l-54.167-87.333l-88.542,54.875L402.875,334.396z
	 M383.354,93.542l33.542-17.896l-43.688,104.458l-110.896-16.083l32.896-17.833c-28.583-51.396-65.875-104.75-123.438-116.313
	C211.438,15.063,243.396,6,270.458,6C317.083,6,344.208,32.354,383.354,93.542z M239.833,110.104
	C230.667,86.771,197.521,62.5,173.458,55c-11.021-3.438-22.917,1.313-28.563,11.396l-50.167,89.729l90.917,50.854L239.833,110.104z"
	/>
</svg>
