<?xml version="1.0" encoding="iso-8859-1"?>
<!-- Generator: Adobe Illustrator 20.1.0, SVG Export Plug-In . SVG Version: 6.00 Build 0)  -->
<svg version="1.1" id="Layer_1" xmlns="http://www.w3.org/2000/svg" xmlns:xlink="http://www.w3.org/1999/xlink" x="0px" y="0px"
	 viewBox="0 0 512 512" style="enable-background:new 0 0 512 512;" xml:space="preserve">
<g>
	
		<rect x="321.518" y="278.937" transform="matrix(0.7071 -0.7071 0.7071 0.7071 -112.8465 332.6592)" style="fill:#010202;" width="47.218" height="47.218"/>
	<polygon style="fill:#010202;" points="435.262,305.903 406.677,471.698 326.638,471.698 298.053,305.903 263.751,305.903 
		298.053,506 435.262,506 469.565,305.903 	"/>
	
		<rect x="347.446" y="383.229" transform="matrix(0.7071 -0.7071 0.7071 0.7071 -178.998 381.5355)" style="fill:#010202;" width="47.218" height="47.218"/>
	<circle style="fill:#010202;" cx="156.069" cy="42.857" r="36.857"/>
	<path style="fill:#010202;" d="M269.545,270.212c0-1.176-0.19-2.3-0.465-3.391l0.064-0.017c0,0-42.118-150.994-46.527-161.651
		c-0.541-1.307-1.212-2.407-1.939-3.411c-0.369-1.102-0.678-1.981-0.886-2.484c-7.158-17.299-32.211-6.561-32.211-6.561
		c-0.642,0.326-1.279,0.616-1.918,0.919c0,0-12.947,7.026-32.203,7.291c-0.058-0.001-0.119,0.002-0.179,0.001
		c-0.059,0.001-0.118-0.002-0.179-0.001c-19.256-0.265-32.252-7.315-32.252-7.315c-0.622-0.296-1.242-0.577-1.867-0.895
		c0,0-25.053-10.737-32.211,6.561c-4.41,10.656-46.527,161.651-46.527,161.651l0.064,0.017c-0.274,1.091-0.465,2.215-0.465,3.391
		c0,7.688,6.232,13.919,13.92,13.919c6.692,0,12.271-4.725,13.606-11.019l33.895-101.689l7.334,319.777
		c0,0.063-0.019,0.122-0.019,0.185c0,6.512,4.287,11.963,10.171,13.852c-0.257,1.406-0.623,2.775-1.06,4.107
		c2.346,1.605,5.18,2.551,8.237,2.551c8.072,0,52.192,0,60.263,0c8.072,0,14.616-6.543,14.616-14.615
		c0-0.063-0.019-0.122-0.019-0.185l7.334-319.777l33.895,101.689c1.336,6.293,6.914,11.019,13.606,11.019
		C263.313,284.132,269.545,277.9,269.545,270.212z M152.167,396.72l1.766-6.842l1.766,6.842H152.167z"/>
</g>
</svg>
