<?xml version="1.0" encoding="iso-8859-1"?>
<!-- Generator: Adobe Illustrator 20.1.0, SVG Export Plug-In . SVG Version: 6.00 Build 0)  -->
<svg version="1.1" id="Layer_1" xmlns="http://www.w3.org/2000/svg" xmlns:xlink="http://www.w3.org/1999/xlink" x="0px" y="0px"
	 viewBox="0 0 512 512" style="enable-background:new 0 0 512 512;" xml:space="preserve">
<path style="fill:#010202;" d="M489.018,423.451L385.439,319.869c20.075-31.636,31.714-69.128,31.714-109.292
	C417.154,97.774,325.383,6,212.577,6C99.771,6,8,97.774,8,210.577c0,112.806,91.771,204.58,204.577,204.58
	c38.168,0,73.923-10.521,104.536-28.796l104.494,104.502C466.197,535.446,533.646,468.076,489.018,423.451z M212.577,351.725
	c-77.829,0-141.145-63.319-141.145-141.148c0-77.826,63.316-141.145,141.145-141.145s141.148,63.319,141.148,141.145
	C353.725,288.406,290.406,351.725,212.577,351.725z"/>
</svg>
