<?xml version="1.0" encoding="iso-8859-1"?>
<!-- Generator: Adobe Illustrator 20.1.0, SVG Export Plug-In . SVG Version: 6.00 Build 0)  -->
<svg version="1.1" id="Layer_1" xmlns="http://www.w3.org/2000/svg" xmlns:xlink="http://www.w3.org/1999/xlink" x="0px" y="0px"
	 viewBox="0 0 512 512" style="enable-background:new 0 0 512 512;" xml:space="preserve">
<g>
	<path style="fill:#010202;" d="M459.758,283.81l7.55-14.644C491.35,250.739,506,226.324,506,199.537
		c0-57.381-67.17-103.892-150.027-103.892c-52.192,0-98.062,18.471-124.933,46.468c63.036,18.067,107.376,61.053,107.494,111.259
		c0.041,17.52-2.577,34.132-8.892,49.13c8.279,0.576,17.008,0.911,26.331,0.926c19.375,0.031,37.874-2.573,54.876-7.206
		c1.328,4.836,1.762-2.447,3.655,4.307c15.129,47.95,61.983,44.568,61.983,44.568C445.149,331.049,459.758,283.81,459.758,283.81z"
		/>
	<path style="fill:#010202;" d="M156.027,158.45C73.169,158.45,6,204.962,6,262.342c0,26.788,14.65,51.203,38.691,69.629
		l7.551,14.644c0,0,14.609,47.238-16.73,61.287c0,0,46.854,3.381,61.983-44.568c1.893-6.754,2.327,0.529,3.655-4.307
		c17.002,4.633,35.501,7.236,54.876,7.206c117.74-0.185,150.166-46.512,150.031-103.891
		C305.924,204.962,238.892,158.45,156.027,158.45z"/>
</g>
</svg>
