<?xml version="1.0" encoding="iso-8859-1"?>
<!-- Generator: Adobe Illustrator 20.1.0, SVG Export Plug-In . SVG Version: 6.00 Build 0)  -->
<svg version="1.1" id="Layer_1" xmlns="http://www.w3.org/2000/svg" xmlns:xlink="http://www.w3.org/1999/xlink" x="0px" y="0px"
	 viewBox="0 0 512 512" style="enable-background:new 0 0 512 512;" xml:space="preserve">
<g>
	
		<ellipse transform="matrix(0.8014 -0.5981 0.5981 0.8014 -29.0755 274.8621)" style="fill:#010202;" cx="399.402" cy="181.218" rx="44.352" ry="44.352"/>
	<path style="fill:#010202;" d="M381.452,240.705c-0.704-0.348-1.37-0.715-2.052-1.075c0,0-15.009-6.931-28.123-24.009
		c-0.038-0.054-0.082-0.107-0.12-0.16c-0.04-0.052-0.079-0.108-0.119-0.16c-12.639-17.434-15.001-33.732-15.001-33.732
		c-0.155-0.776-0.321-1.539-0.46-2.333c0,0-0.327-2.04-1.231-5.445l0.334-0.065c-1.593-6.014-17.51-47.017-33.56-87.85
		c20.513-11.306,45.801-25.531,49.977-27.842c1.179-0.663,2.315-1.43,3.326-2.425c6.125-6.031,6.2-15.884,0.17-22.009
		c-5.009-5.086-12.629-5.935-18.585-2.645l-0.03-0.053l-47.371,23.23l-0.002-0.004L257.93,69.161l0.005,0.014l35.934,105.135
		l-35.401,37.755L236.6,237.291l-126.587,51.802c24.373,13.178,42.778-0.736,46.523-3.985l5.025-3.786
		c30.356-20.362,77.264-30.02,119.86,2.552c28.355,21.67,50.505,4.836,54.658,1.234l3.954-3.043
		c16.05-11.161,36.888-19.216,59.369-19.465C397.403,249.995,381.452,240.705,381.452,240.705z"/>
	<path style="fill:#010202;" d="M475.534,428.238c-4.618-1.708-9.494-4.316-14.581-8.204
		c-43.359-33.166-90.633-22.869-120.921-1.809l-3.954,3.043c-4.153,3.603-26.303,20.436-54.658-1.234
		c-42.596-32.572-89.504-22.914-119.86-2.552l-5.025,3.786c-4.153,3.603-26.303,20.436-54.658-1.234
		c-21.514-16.452-43.535-21.764-63.332-21.179l19.74,54.157c4.175,1.697,8.446,4.024,12.77,7.329
		c49.861,38.112,98.374,16.982,118.314-0.362l1.11-0.808c9.395-6.293,34.023-18.776,60.118,1.169
		c49.94,38.181,98.552,16.918,118.403-0.441l0.496-0.362c9.376-6.516,34.073-19.509,60.634,0.803
		c10.145,7.755,20.231,13.041,30.034,16.421L475.534,428.238z"/>
	<path style="fill:#010202;" d="M506.118,331.675c-9.87,4.517-26.1,7.363-45.164-7.207c-43.359-33.166-90.633-22.869-120.921-1.809
		l-3.954,3.043c-4.153,3.603-26.303,20.436-54.658-1.234c-42.596-32.572-89.504-22.914-119.86-2.552l-5.025,3.786
		c-4.153,3.603-26.303,20.436-54.658-1.234C67.496,298.175,31.785,300.233,6,309.566l17.36,47.625
		c11.686-4.333,29.313-6.466,47.697,7.584c49.861,38.112,98.374,16.982,118.314-0.362l1.11-0.808
		c9.395-6.293,34.023-18.776,60.118,1.169c49.94,38.181,98.552,16.918,118.403-0.441l0.496-0.362
		c9.376-6.516,34.073-19.509,60.634,0.803c20.433,15.621,40.639,21.281,58.746,21.337L506.118,331.675z"/>
</g>
</svg>
