<?xml version="1.0" encoding="iso-8859-1"?>
<!-- Generator: Adobe Illustrator 20.1.0, SVG Export Plug-In . SVG Version: 6.00 Build 0)  -->
<svg version="1.1" id="Layer_1" xmlns="http://www.w3.org/2000/svg" xmlns:xlink="http://www.w3.org/1999/xlink" x="0px" y="0px"
	 viewBox="0 0 512 512" style="enable-background:new 0 0 512 512;" xml:space="preserve">
<path style="fill:#010202;" d="M496.173,443.505H388.08v-80.699c6.323-1.864,12.163-4.852,17.088-8.979
	c7.036,4.136,15.206,6.55,23.958,6.55c26.175,0,47.395-21.219,47.395-47.395c0-21.499-14.325-39.628-33.943-45.43
	c2.55-5.818,3.988-12.235,3.988-18.995c0-18.141-10.202-33.887-25.174-41.853c0.467-2.671,0.758-5.404,0.758-8.209
	c0-26.175-21.219-47.395-47.395-47.395c-26.176,0-47.395,21.219-47.395,47.395c0,2.805,0.291,5.538,0.758,8.209
	c-6.966,3.706-12.832,9.148-17.185,15.68c-6.778-5.177-14.403-9.299-22.788-11.779c3.817-8.709,5.968-18.312,5.968-28.43
	c0-27.153-15.269-50.719-37.678-62.641c0.699-3.998,1.135-8.089,1.135-12.287c0-39.177-31.759-70.936-70.936-70.936
	s-70.936,31.759-70.936,70.936c0,4.198,0.435,8.289,1.135,12.287c-22.408,11.922-37.678,35.489-37.678,62.641
	c0,10.118,2.152,19.721,5.969,28.43c-29.362,8.683-50.803,35.817-50.803,67.994c0,39.177,31.759,70.936,70.936,70.936
	c13.099,0,25.327-3.613,35.857-9.804c8.722,7.309,19.242,12.511,30.78,14.959v88.813H14.666c-5.405,0-9.827,4.422-9.827,9.827v9.827
	c0,5.405,4.422,9.827,9.827,9.827h481.507c5.405,0,9.827-4.422,9.827-9.827v-9.827C506,447.928,501.578,443.505,496.173,443.505z
	 M201.373,443.505v-88.813c11.538-2.448,22.058-7.65,30.78-14.959c10.531,6.191,22.758,9.804,35.857,9.804
	c6.683,0,13.125-0.988,19.255-2.716c8.547,8.365,20.215,13.556,33.118,13.556c8.752,0,16.922-2.414,23.958-6.55
	c4.195,3.516,9.016,6.296,14.258,8.203v81.474H201.373z"/>
</svg>
