<?xml version="1.0" encoding="iso-8859-1"?>
<!-- Generator: Adobe Illustrator 20.1.0, SVG Export Plug-In . SVG Version: 6.00 Build 0)  -->
<svg version="1.1" id="Layer_1" xmlns="http://www.w3.org/2000/svg" xmlns:xlink="http://www.w3.org/1999/xlink" x="0px" y="0px"
	 viewBox="0 0 512 512" style="enable-background:new 0 0 512 512;" xml:space="preserve">
<path style="fill:#010202;" d="M506,100.096c-18.396,8.159-38.165,13.674-58.917,16.153c21.18-12.695,37.446-32.799,45.104-56.753
	c-19.82,11.756-41.773,20.293-65.14,24.894c-18.712-19.937-45.372-32.395-74.876-32.395c-56.655,0-102.584,45.93-102.584,102.579
	c0,8.041,0.907,15.869,2.656,23.377c-85.254-4.278-160.841-45.117-211.435-107.179c-8.83,15.151-13.888,32.772-13.888,51.571
	c0,35.588,18.11,66.987,45.635,85.383c-16.815-0.532-32.633-5.147-46.464-12.831c-0.007,0.429-0.009,0.857-0.009,1.29
	c0,49.703,35.36,91.163,82.288,100.586c-8.609,2.343-17.671,3.597-27.026,3.597c-6.61,0-13.036-0.643-19.3-1.84
	c13.054,40.754,50.938,70.412,95.826,71.241C122.762,397.281,78.531,413.68,30.47,413.68c-8.28,0-16.446-0.486-24.47-1.432
	c45.397,29.105,99.317,46.087,157.247,46.087c188.685,0,291.864-156.31,291.864-291.866c0-4.447-0.1-8.871-0.296-13.27
	C474.855,138.734,492.248,120.667,506,100.096z"/>
</svg>
