<?xml version="1.0" encoding="iso-8859-1"?>
<!-- Generator: Adobe Illustrator 20.1.0, SVG Export Plug-In . SVG Version: 6.00 Build 0)  -->
<svg version="1.1" id="Layer_1" xmlns="http://www.w3.org/2000/svg" xmlns:xlink="http://www.w3.org/1999/xlink" x="0px" y="0px"
	 viewBox="0 0 512 512" style="enable-background:new 0 0 512 512;" xml:space="preserve">
<g>
	<path style="fill:#010202;" d="M343.16,70.084c-0.383-1.789-1.531-2.779-2.173-3.214c-0.507-0.339-1.445-0.818-2.631-0.818
		c-0.335,0-0.679,0.04-1.053,0.126l-311.256,74.43h332.228L343.16,70.084z"/>
	<path style="fill:#010202;" d="M227.994,7.455c-0.707-1.004-1.71-1.307-2.24-1.403c-0.418-0.072-1.153-0.117-1.929,0.204
		c-0.218,0.09-0.434,0.208-0.655,0.362L38.771,136.636l217.112-89.627L227.994,7.455z"/>
	<path style="fill:#010202;" d="M465.597,161.778H46.167c-11.65,0-21.182,9.532-21.182,21.182v301.858
		c0,11.65,9.531,21.182,21.182,21.182h419.43c11.65,0,21.182-9.531,21.182-21.182V182.96
		C486.779,171.31,477.247,161.778,465.597,161.778z M252.891,324.572h42.164v25.924h-36.747c0.284,2.566,0.569,5.411,0.569,7.978
		c0,13.673-3.704,22.505-12.82,32.757v1.138h73.777v35.324H191.933v-25.924c17.093-7.687,30.198-23.358,30.198-43.58
		c0-2.566-0.284-5.127-0.569-7.693h-28.49v-24.496l19.375-1.429h1.707c-2.567-7.687-4.558-15.38-4.558-22.788
		c0-35.893,25.633-58.397,60.957-58.397c21.082,0,36.462,8.262,49.282,23.073l-22.789,22.788
		c-6.549-7.971-13.389-11.96-22.504-11.96c-15.096,0-24.78,8.546-24.78,26.777C249.761,310.899,251.183,317.739,252.891,324.572z"/>
</g>
</svg>
