<?xml version="1.0" encoding="iso-8859-1"?>
<!-- Generator: Adobe Illustrator 20.1.0, SVG Export Plug-In . SVG Version: 6.00 Build 0)  -->
<svg version="1.1" id="Layer_1" xmlns="http://www.w3.org/2000/svg" xmlns:xlink="http://www.w3.org/1999/xlink" x="0px" y="0px"
	 viewBox="0 0 512 512" style="enable-background:new 0 0 512 512;" xml:space="preserve">
<g id="Lozenge">
	<g>
		<path style="fill:#010202;" d="M500.554,151.649c0,0-4.872-34.357-19.82-49.487c-18.959-19.858-40.21-19.956-49.956-21.119
			C361.01,76,256.354,76,256.354,76h-0.217c0,0-104.654,0-174.425,5.043c-9.746,1.162-30.99,1.261-49.956,21.119
			c-14.948,15.13-19.813,49.487-19.813,49.487s-4.986,40.346-4.986,80.693v37.825c0,40.346,4.986,80.692,4.986,80.692
			s4.864,34.358,19.813,49.487c18.966,19.858,43.879,19.23,54.975,21.311c39.887,3.825,169.514,5.008,169.514,5.008
			s104.764-0.158,174.533-5.201c9.745-1.163,30.997-1.261,49.956-21.119c14.948-15.13,19.82-49.487,19.82-49.487
			s4.979-40.346,4.979-80.692v-37.825C505.533,191.996,500.554,151.649,500.554,151.649z M204.774,316.004l-0.023-140.086
			l134.717,70.287L204.774,316.004z"/>
	</g>
</g>
</svg>
