<?xml version="1.0" encoding="iso-8859-1"?>
<!-- Generator: Adobe Illustrator 20.1.0, SVG Export Plug-In . SVG Version: 6.00 Build 0)  -->
<svg version="1.1" id="Layer_1" xmlns="http://www.w3.org/2000/svg" xmlns:xlink="http://www.w3.org/1999/xlink" x="0px" y="0px"
	 viewBox="0 0 512 512" style="enable-background:new 0 0 512 512;" xml:space="preserve">
<g>
	<rect x="137.836" y="72.038" style="fill:#010202;" width="235.849" height="37.736"/>
	<rect x="137.836" y="138.075" style="fill:#010202;" width="235.849" height="37.736"/>
	<rect x="137.836" y="204.113" style="fill:#010202;" width="235.849" height="37.736"/>
	<rect x="137.836" y="270.151" style="fill:#010202;" width="235.849" height="37.736"/>
	<rect x="137.836" y="336.189" style="fill:#010202;" width="94.34" height="37.736"/>
	<path style="fill:#010202;" d="M315.43,326.755c-30.349,0-54.952,24.603-54.952,54.952c0,20.674,11.429,38.661,28.302,48.042V506
		l28.302-47.17L344.793,506v-77.899c15.362-9.744,25.589-26.856,25.589-46.394C370.382,351.358,345.779,326.755,315.43,326.755z"/>
	<polygon style="fill:#010202;" points="81.232,6 81.232,477.698 241.609,477.698 241.609,439.962 118.968,439.962 118.968,43.736 
		392.553,43.736 392.553,439.962 383.119,439.962 383.119,477.698 430.289,477.698 430.289,6 	"/>
</g>
</svg>
