<?xml version="1.0" encoding="utf-8"?>
<!-- Generator: Adobe Illustrator 21.0.0, SVG Export Plug-In . SVG Version: 6.00 Build 0)  -->
<svg version="1.1" id="Layer_1" xmlns="http://www.w3.org/2000/svg" xmlns:xlink="http://www.w3.org/1999/xlink" x="0px" y="0px"
	 viewBox="0 0 512 512" style="enable-background:new 0 0 512 512;" xml:space="preserve">
<style type="text/css">
	.st0{fill:#336633;}
</style>
<g>
	<path class="st0" d="M477.8,113.5H351.5V83.9c0-15.2-12.3-27.5-27.5-27.5H195.5c-15.2,0-27.5,12.3-27.5,27.5v29.6H32.5
		c-15.1,0-27.5,12.4-27.5,27.5v71.3h208.9v-18.3c0-10.1,8.2-18.3,18.3-18.3h55c10.1,0,18.3,8.2,18.3,18.3v18.3h199.7V141
		C505.3,125.9,492.9,113.5,477.8,113.5z M204.7,93h110.1v20.4H204.7V93z"/>
	<polygon class="st0" points="232.2,193.9 232.2,249 287.2,249 287.2,193.9 	"/>
	<path class="st0" d="M305.6,249c0,10.1-8.2,18.3-18.3,18.3h-55c-10.1,0-18.3-8.2-18.3-18.3v-18.3H4.9v194.2
		c0,15.1,12.4,27.5,27.5,27.5h445.3c15.1,0,27.5-12.4,27.5-27.5V230.6H305.6V249z"/>
</g>
</svg>
