<?xml version="1.0" encoding="utf-8"?>
<!-- Generator: Adobe Illustrator 21.0.0, SVG Export Plug-In . SVG Version: 6.00 Build 0)  -->
<svg version="1.1" id="Layer_1" xmlns="http://www.w3.org/2000/svg" xmlns:xlink="http://www.w3.org/1999/xlink" x="0px" y="0px"
	 viewBox="0 0 512 512" style="enable-background:new 0 0 512 512;" xml:space="preserve">
<style type="text/css">
	.st0{fill:#336633;}
</style>
<path class="st0" d="M349,328.6c2.8-5.8,5.5-11.9,8-18.6c15.6-41,19.3-81.6,19.6-84.4c26.7-9,45.1-20.9,52-34.3
	c2.6-5.1,0.2-11.4-5-13.3l-18.1-9.4h-0.5c-4.2-58.5-38.1-108.2-85.9-132.6l-22.2,89c-0.4,1.5-1.7,2.5-3.3,2.5c-2,0-3.6-1.7-3.3-3.7
	l10.9-95.5c-7.2-2.6-14.7-4.5-22.3-5.9v-7.7c0-4.6-3.7-8.3-8.3-8.3h-32.8c-4.6,0-8.3,3.7-8.3,8.3v7.1c-9,1.4-17.7,3.6-26.1,6.6
	l10.9,95.4c0.2,2-1.3,3.7-3.3,3.7c-1.5,0-2.9-1-3.3-2.5l-22.2-88.9c-47.6,24.4-81.4,74.1-85.7,132.5l-14.9,9
	c-5.7,2.2-8.1,9.4-4.9,14.9c7.5,13,25.6,24.5,51.6,33.2c0.4,5.8,3.4,43.5,17.2,82c3,8.3,6.2,15.7,9.5,22.6
	c-30,19.4-89.9,71-91.4,173.4l35.5,0.5c1.3-85.8,50.8-128.2,74.6-143.7c8.6,10.7,17.6,18.6,26.8,24.4c0.1,0.2,0.2,0.4,0.3,0.5
	c0.4,0.4,37.5,44.9,39.8,88l0.5,9.1H264l0.4-9.2c0.9-22.3,29.6-71.7,40.5-88.9c0.2-0.3,0.2-0.6,0.3-0.9c8.7-5.9,17.2-13.9,25.4-24.5
	c21,12.4,78.2,54.5,79.6,146.8l35.5-0.5C444.1,396.5,376.7,345.1,349,328.6z M255.4,436.3c-5.3-14.7-12.5-28.1-19.1-38.8
	c5.2,1,10.3,1.5,15.1,1.7c0.9,0,1.9,0,2.9,0c6.6,0,13.6-0.7,20.9-2.4C268.7,408.2,261.3,422.4,255.4,436.3z M323.6,298
	c-17,44.5-40.9,66.6-71.2,65.7c-62.5-1.8-79.8-94.9-84-128.7c24.9,4.7,53.8,7.4,85.7,7.4c31.8,0,60.7-2.7,85.6-7.4
	C337.5,249.4,332.9,273.9,323.6,298z"/>
</svg>
