<?xml version="1.0" encoding="utf-8"?>
<!-- Generator: Adobe Illustrator 21.0.0, SVG Export Plug-In . SVG Version: 6.00 Build 0)  -->
<svg version="1.1" id="Layer_1" xmlns="http://www.w3.org/2000/svg" xmlns:xlink="http://www.w3.org/1999/xlink" x="0px" y="0px"
	 viewBox="0 0 512 512" style="enable-background:new 0 0 512 512;" xml:space="preserve">
<style type="text/css">
	.st0{fill:#336633;}
</style>
<path class="st0" d="M506.6,233.8l-5.8-29.7l-43,8.4h-2.9L389.6,68H121.4L56.1,212.4h-2.9L12,204l-6,29.7l43.9,8.9v86.3v74.2v43.6
	h66.6v-43.6H394v43.6h66.6v-43.6v-74.2v-86.2h0.1L506.6,233.8z M141,98.3h229l43.8,96.8H97.2L141,98.3z M149,311.9H84.1v-46.2
	L149,286V311.9z M365.5,311.9v-26l64.9-20.2v46.2L365.5,311.9L365.5,311.9z"/>
</svg>
