<?xml version="1.0" encoding="utf-8"?>
<!-- Generator: Adobe Illustrator 21.0.0, SVG Export Plug-In . SVG Version: 6.00 Build 0)  -->
<svg version="1.1" id="Layer_1" xmlns="http://www.w3.org/2000/svg" xmlns:xlink="http://www.w3.org/1999/xlink" x="0px" y="0px"
	 viewBox="0 0 512 512" style="enable-background:new 0 0 512 512;" xml:space="preserve">
<style type="text/css">
	.st0{fill:#336633;}
</style>
<path class="st0" d="M316.9,162.9l0.6,4c0,4-2,7.9-5.5,10.3c-11.2,7.7-9.7,5.8-13.9,18.4c-1.7,5.3-6.9,8.8-12.6,8.8h0
	c-13.8,0-11.4-0.8-22.5,7c-2.3,1.7-5.1,2.5-7.8,2.5s-5.5-0.8-7.8-2.5c-11.1-7.8-8.7-7.1-22.5-7h0c-5.7,0-10.8-3.6-12.6-8.8
	c-4.2-12.6-2.8-10.7-13.9-18.4c-3.5-2.4-5.5-6.3-5.5-10.3l0.6-3.9c4.3-12.6,4.3-10.1,0-22.7l-0.6-4c0-4,2-7.9,5.5-10.3
	c11.1-7.7,9.7-5.8,13.9-18.4c1.7-5.3,6.9-8.8,12.6-8.8h0c13.8,0,11.3,0.9,22.5-7c2.3-1.7,5.1-2.5,7.8-2.5c2.7,0,5.5,0.8,7.8,2.5
	c11.1,7.8,8.7,7.1,22.5,7h0c5.7,0,10.8,3.6,12.6,8.8c4.2,12.6,2.7,10.7,13.9,18.4c3.5,2.5,5.5,6.3,5.5,10.3l-0.6,4
	C312.6,152.7,312.6,150.3,316.9,162.9z M317.5,258.2H192.8v20.8h124.8V258.2z M338.3,305.8H172v20.8h166.3V305.8z M176.8,401
	c-16,71.9-67.1,72.8-67.1,28.6V110.8c0-27.7-1.3-49.6-20.8-63.2h270.3c28.2,0,41.6,13,41.6,41.6v270.3h41.6V89.2
	c0-42-17.5-83.2-83.2-83.2H109.6C37,6,5.7,66.4,5.7,110H68v332.7C68,477.1,96,505,130.4,505h291.1c55.9-11,80.6-61.1,83.2-104H176.8
	z"/>
</svg>
