<?xml version="1.0" encoding="utf-8"?>
<!-- Generator: Adobe Illustrator 21.0.0, SVG Export Plug-In . SVG Version: 6.00 Build 0)  -->
<svg version="1.1" id="Layer_1" xmlns="http://www.w3.org/2000/svg" xmlns:xlink="http://www.w3.org/1999/xlink" x="0px" y="0px"
	 viewBox="0 0 512 512" style="enable-background:new 0 0 512 512;" xml:space="preserve">
<style type="text/css">
	.st0{fill:#336633;}
</style>
<g>
	<path class="st0" d="M505.7,257.1L255.8,25L6,256.8l33.8,36.3l25.4-23.5v217.9h378.2V266.9l28.6,26.6L505.7,257.1z M398.1,442.3
		H110.3V227.7l145.5-135l142.3,132.2V442.3z"/>
	<path class="st0" d="M213.9,266.9c0,6.5,1.7,13.2,4,19.9h-1.5l-16.9,1.2v21.4h24.9c0.2,2.2,0.5,4.5,0.5,6.7
		c0,17.7-11.4,31.4-26.4,38.1v22.6h111.7V346h-64.4v-1c8-9,11.2-16.7,11.2-28.6c0-2.2-0.2-4.7-0.5-7h32.1v-22.6h-36.8
		c-1.5-6-2.7-11.9-2.7-17.9c0-15.9,8.5-23.4,21.6-23.4c8,0,13.9,3.5,19.7,10.4l19.9-19.9c-11.2-12.9-24.6-20.2-43-20.2
		C236.3,215.9,213.9,235.5,213.9,266.9z"/>
</g>
</svg>
