<?xml version="1.0" encoding="utf-8"?>
<!-- Generator: Adobe Illustrator 21.0.0, SVG Export Plug-In . SVG Version: 6.00 Build 0)  -->
<svg version="1.1" id="Layer_1" xmlns="http://www.w3.org/2000/svg" xmlns:xlink="http://www.w3.org/1999/xlink" x="0px" y="0px"
	 viewBox="0 0 512 512" style="enable-background:new 0 0 512 512;" xml:space="preserve">
<style type="text/css">
	.st0{fill:#336633;}
</style>
<g>
	<rect x="78.2" y="185.2" class="st0" width="46.3" height="201.7"/>
	<rect x="181.7" y="185.2" class="st0" width="46.3" height="201.7"/>
	<rect x="285.1" y="185.2" class="st0" width="46.3" height="201.7"/>
	<rect x="388.6" y="185.2" class="st0" width="46.3" height="201.7"/>
	<path class="st0" d="M41.3,158.6h428.5c8.5,0,15.9-5.8,18-14c2.1-8.3-1.8-16.8-9.3-20.8L261,8.2c-5.5-2.9-12.1-2.9-17.6,0.1
		l-211,115.5c-7.4,4.1-11.1,12.6-9,20.8C25.5,152.8,32.9,158.6,41.3,158.6z M252.4,45.6l143.1,76H113.7L252.4,45.6z"/>
	<rect x="29" y="408.5" class="st0" width="450" height="37"/>
	<rect x="12.8" y="469" class="st0" width="485.7" height="37"/>
</g>
</svg>
