<?xml version="1.0" encoding="utf-8"?>
<!-- Generator: Adobe Illustrator 21.0.0, SVG Export Plug-In . SVG Version: 6.00 Build 0)  -->
<svg version="1.1" id="Layer_1" xmlns="http://www.w3.org/2000/svg" xmlns:xlink="http://www.w3.org/1999/xlink" x="0px" y="0px"
	 viewBox="0 0 512 512" style="enable-background:new 0 0 512 512;" xml:space="preserve">
<style type="text/css">
	.st0{fill:#336633;}
</style>
<g>
	<circle class="st0" cx="322.3" cy="44.7" r="37.9"/>
	<circle class="st0" cx="175.5" cy="72" r="37.9"/>
	<path class="st0" d="M193,399h-37.1l12.1-47c-1.2,0.2-2.3,0.2-3.5,0.2c-14.8,0-26.8-12-26.8-26.8c0-2.3,0.3-4.7,1-7
		c12.1-43.3,32.6-116.2,35.7-123.7c3.8-9.2,11.6-15.2,21.5-17c-1.5-4.5-2.5-9.2-2.5-14.2c0-24.9,19.9-45.2,44.7-46
		c-7.9-13.6-29.7-4.3-29.7-4.3c-0.6,0.3-1.2,0.6-1.8,0.9c0,0-12.4,6.7-30.9,7c-0.1,0-0.1,0-0.2,0c-0.1,0-0.1,0-0.2,0
		c-18.4-0.3-30.8-7-30.8-7c-0.6-0.3-1.2-0.6-1.8-0.9c0,0-24-10.3-30.8,6.3c-4.1,10-42.8,148.4-44.4,154.4c-0.3,1.1-0.5,2.3-0.5,3.5
		c0,7.4,6,13.3,13.3,13.3c6.1,0,11.2-4.1,12.8-9.7l0.1,0l32.7-98.1l6.1,27.9L96,349.9h40.5l3.1,141.2c0,0.1,0,0.2,0,0.3
		c0,7.7,6.3,14,14,14c7.7,0,36,0,43.8,0c-1.5-3.4-2.4-7.1-2.4-11L193,399z"/>
	<path class="st0" d="M438.6,259.2L438.6,259.2c0.1,0-43.3-155.5-47.8-166.4c-7.4-17.8-33.2-6.8-33.2-6.8c-0.6,0.3-1.3,0.6-1.9,0.9
		c0,0-13.4,7.3-33.2,7.5c-0.1,0-0.1,0-0.2,0c-0.1,0-0.1,0-0.2,0c-19.8-0.3-33.1-7.5-33.1-7.5c-0.7-0.3-1.3-0.6-2-0.9
		c0,0-25.8-11.1-33.2,6.8c-1,2.4-3.9,11.9-7.8,25.1c22.4,3.2,39.8,22.3,39.8,45.5c0,5-1,9.8-2.5,14.3c9.9,1.7,17.8,7.7,21.6,16.9
		c2.6,6.3,16.2,54.3,29.8,102.9l5.9,21c1.8,6.1,0.2,12.9,0.1,13.6c-3.1,11.9-13.8,20.1-25.9,20.1c-1.2,0-2.3-0.1-3.5-0.2l12.1,47
		h-37.1l-2.1,95.1c0,3.1-0.6,6-1.5,8.7c2.4,1.7,5.3,2.6,8.5,2.6c8.3,0,53.7,0,62,0c8.3,0,15-6.7,15-15c0-0.1,0-0.1,0-0.2l7.5-329.2
		l34.9,104.7c1.4,6.5,7.1,11.3,14,11.3c7.9,0,14.3-6.4,14.3-14.3C439.1,261.4,438.9,260.3,438.6,259.2z"/>
	<path class="st0" d="M302.5,382.7l-28.4-109.9l4.8-22l25.6,76.8c1,4.8,5.2,8.3,10.3,8.3c5.8,0,10.5-4.7,10.5-10.5
		c0-0.9-0.1-1.7-0.4-2.6l0,0c0,0-31.8-114-35.1-122c-5.4-13.1-24.3-5-24.3-5c-0.5,0.2-0.9,0.5-1.4,0.7c0,0-9.8,5.3-24.3,5.5
		c0,0-0.1,0-0.1,0c0,0-0.1,0-0.1,0c-14.5-0.2-24.3-5.5-24.3-5.5c-0.5-0.2-1-0.4-1.4-0.7c0,0-18.9-8.1-24.3,5
		c-3.3,7.9-33.8,117.1-35.1,121.8c-0.2,0.9-0.4,1.8-0.4,2.7c0,5.8,4.7,10.5,10.5,10.5c4.8,0,8.8-3.3,10.1-7.7l0,0l25.8-77.4l4.8,22
		l-28.4,109.9h32l2.5,111.4c0,0.1,0,0.2,0,0.2c0,6.1,4.9,11,11,11c6.1,0,28.6,0,34.7,0c6.1,0,11-4.9,11-11c0,0,0-0.1,0-0.1
		l2.5-111.5L302.5,382.7L302.5,382.7z"/>
	<circle class="st0" cx="239.6" cy="163.4" r="29.9"/>
</g>
</svg>
