<?xml version="1.0" encoding="utf-8"?>
<!-- Generator: Adobe Illustrator 21.0.0, SVG Export Plug-In . SVG Version: 6.00 Build 0)  -->
<svg version="1.1" id="Layer_1" xmlns="http://www.w3.org/2000/svg" xmlns:xlink="http://www.w3.org/1999/xlink" x="0px" y="0px"
	 viewBox="0 0 512 512" style="enable-background:new 0 0 512 512;" xml:space="preserve">
<style type="text/css">
	.st0{fill:#336633;}
</style>
<g>
	<g>
		<g>
			<g>
				<path class="st0" d="M253.9,136.2c6.7,0,12.2-5.5,12.2-12.2V50.6c0-6.7-5.5-12.2-12.2-12.2s-12.3,5.5-12.3,12.2V124
					C241.6,130.7,247.1,136.2,253.9,136.2z"/>
			</g>
		</g>
		<g>
			<g>
				<path class="st0" d="M137.3,176.2c2.4,2.4,5.5,3.6,8.7,3.6c3.2,0,6.3-1.2,8.7-3.6c4.8-4.8,4.8-12.5,0-17.3l-51.9-51.9
					c-4.8-4.8-12.5-4.8-17.3,0c-4.8,4.8-4.8,12.5,0,17.3L137.3,176.2z"/>
			</g>
		</g>
		<g>
			<g>
				<path class="st0" d="M18.3,287.6h73.4c6.7,0,12.2-5.5,12.2-12.3c0-6.7-5.5-12.2-12.2-12.2H18.3c-6.8,0-12.3,5.5-12.3,12.2
					C6,282.1,11.5,287.6,18.3,287.6z"/>
			</g>
		</g>
		<g>
			<g>
				<path class="st0" d="M364.5,179.7c3.2,0,6.3-1.2,8.7-3.6l51.9-51.9c4.8-4.8,4.8-12.5,0-17.3c-4.8-4.8-12.5-4.8-17.3,0
					l-51.9,51.9c-4.8,4.8-4.8,12.5,0,17.3C358.2,178.5,361.4,179.7,364.5,179.7z"/>
			</g>
		</g>
		<g>
			<g>
				<path class="st0" d="M406.6,275.4c0,6.8,5.5,12.3,12.3,12.3h73.4c6.7,0,12.2-5.5,12.2-12.3c0-6.7-5.5-12.2-12.2-12.2h-73.4
					C412.1,263.1,406.6,268.6,406.6,275.4z"/>
			</g>
		</g>
	</g>
	<g>
		<path class="st0" d="M255.3,176.5c-62.6,0-113.8,51.2-113.8,113.8v113.8H369V290.3C369,227.7,317.8,176.5,255.3,176.5z
			 M201.1,368.9c0,8.9-7.3,16.3-16.3,16.3s-16.3-7.3-16.3-16.3V260.5c0-8.9,7.3-16.3,16.3-16.3s16.3,7.3,16.3,16.3V368.9z"/>
	</g>
</g>
<g>
	<path class="st0" d="M369,471.8H141.5c-20.9,0-37.9-17-37.9-37.9s17-37.9,37.9-37.9H369c20.9,0,37.9,17,37.9,37.9
		C407,454.8,390,471.8,369,471.8z M141.5,417.6c-9,0-16.3,7.3-16.3,16.3s7.3,16.3,16.3,16.3H369c9,0,16.3-7.3,16.3-16.3
		s-7.3-16.3-16.3-16.3H141.5z"/>
</g>
</svg>
