<?xml version="1.0" encoding="utf-8"?>
<!-- Generator: Adobe Illustrator 21.0.0, SVG Export Plug-In . SVG Version: 6.00 Build 0)  -->
<svg version="1.1" id="Layer_1" xmlns="http://www.w3.org/2000/svg" xmlns:xlink="http://www.w3.org/1999/xlink" x="0px" y="0px"
	 viewBox="0 0 512 512" style="enable-background:new 0 0 512 512;" xml:space="preserve">
<style type="text/css">
	.st0{fill:#336633;}
</style>
<g>
	<path class="st0" d="M379.9,36c-43.8,0-88.4,20.8-114,64.8C240.4,57,195.7,36.2,151.7,36.2c-63.3,0-125.1,43.3-125.1,123.3
		c0,31.4,12.9,63.2,34.7,96.3l28.9-28.9c-15-24.1-23.7-46.7-23.7-67.4c0-57.3,44.2-83.4,85.2-83.4c64.9,0,99.2,69.3,114.2,100.1
		c14.9-30.7,49.5-100.3,114.1-100.3c46.2,0,85.3,30.2,85.3,83.6c0,68.6-94.6,156.5-199.4,259.2l-43.2-42.3l-28.2,28.2
		c22.8,22.3,46.8,45.6,71.4,70.1c128.2-127.2,239.3-222.3,239.3-315.2C505.2,79.6,443.4,36,379.9,36z"/>
	<path class="st0" d="M239.8,314.6l103.2,1.5c0.1,0,0.1,0,0.2,0c7.2,0,13.2-5.8,13.3-13.1c0.1-7.3-5.8-13.4-13.1-13.5l-82.4-1.2
		l-25.8-110.3c-1.7-7.4-8.2-12.6-15.8-12.6c0,0,0,0-0.1,0c-7.6,0-14.1,5.2-15.8,12.7L172,316.5c-6.7-32-14.6-67.1-17.9-81.9
		c-1.4-6.1-6.5-10.5-12.8-10.9c-6.3-0.3-12,3.3-14.2,9.2l-19.3,51.5H19c-7.3,0-13.3,5.9-13.3,13.3s5.9,13.3,13.3,13.3h107.2
		l11.1-29.5c7.3,33.3,16.4,76.2,18.9,93.6c1,7.2,7,12.6,14.2,12.9c0.2,0,0.4,0,0.6,0c7,0,13.1-4.8,14.7-11.7l33.7-148.6L239.8,314.6
		z"/>
</g>
</svg>
