<?xml version="1.0" encoding="utf-8"?>
<!-- Generator: Adobe Illustrator 21.0.0, SVG Export Plug-In . SVG Version: 6.00 Build 0)  -->
<svg version="1.1" id="Layer_1" xmlns="http://www.w3.org/2000/svg" xmlns:xlink="http://www.w3.org/1999/xlink" x="0px" y="0px"
	 viewBox="0 0 512 512" style="enable-background:new 0 0 512 512;" xml:space="preserve">
<style type="text/css">
	.st0{fill:#336633;}
</style>
<path class="st0" d="M392.3,239.6c-3.8,6.1-8.5,12.4-13.6,18.8c-5.4,6.7-12,12.7-19.1,18.4c-14.2,11.3-30.7,21.3-45.9,31.5
	c-7.5,5.2-14.8,10.3-19.1,15.7c-4.6,5.9-9.5,13.8-13.9,20.9c-8.9,14.7-16.7,28.9-23.3,41.1c-1.3,2.4-2.5,4.6-3.7,6.8
	c3.4,6.2,6.5,11.4,8.8,15.4C508.7,303.5,449.7,153,482.7,6c-73.6,75-12.4,11.9-198.9,166.8c-53.2,41.6-64.7,89.7-60.1,132.3
	c-1.2,3.6-2.5,7.3-3.6,11.1c-1.8,6-3.5,12.3-4.7,19.2l-0.7,5.4c-0.3,2.5-0.2,3.4-0.3,5.2c-0.2,3-0.2,6.3-0.1,9.9
	c0.1,7.1,0.9,13.5,1.9,20c1,6.4,2.5,12.6,3.9,18.4c0.7,2.8,1.5,5.6,2.3,8.2c-0.9-1.2-1.5-1.9-2.8-3.4c-1.5-1.8-2.9-3.3-4.2-4.6
	c-10.9-10.9-21.6-19.5-30.6-28.7c-4.5-4.6-8.5-9.2-11.6-13.8c-1.1-1.7-2.2-3.6-3.2-5.5c21.1-34.2,38.4-86.5-9.8-140.2
	C45.1,70.2,81.2,123.7,37.6,60c4.8,107.4-53.5,206,93.9,310c-0.2-1.7-0.4-3.3-0.6-5.1c-1.1-9.6-2.5-20.8-4.5-32.5
	c-0.9-5.7-2.1-12.1-3.4-16.6c-1-4-4.3-9.1-7.8-14.3c-7.2-10.5-15.4-21.2-21.9-32.3c-3.3-5.6-6.1-11.3-8-17.1
	c-1.8-5.5-3.2-10.8-4.2-15.8c-2.1-10.1-1.1-18.7-0.1-24.3c1.1-5.6,1.8-8.9,1.8-8.9s0,3.3,0,9c0,5.7,0.8,13.7,4.4,22.4
	c1.8,4.4,4,9,6.7,13.8c2.6,4.4,6,8.8,10,13.1c7.9,8.7,17.7,16.9,27.5,26.2c4.8,4.7,10.1,9.6,14.7,17.2c4.1,7.1,6.5,12.9,9.2,18.9
	c0.5,1.2,0.9,2.3,1.4,3.4c0.1,3.8,0.5,7.9,1.5,12.3c0.6,2.7,1.3,5.5,2.1,8.4c0.8,2.8,1.6,5.7,2.8,8.9c2.4,6.2,5.6,12.3,9.3,18.2
	c7.2,11.9,16.5,23.5,23.4,34.7c3.2,5,5.2,10.3,7.6,17c2.3,6.4,4.5,12.8,6.5,19c4.1,12.4,6.5,18.3,9.5,30.4c0.4,9.8-0.7,14.7,0,19.9
	c-0.1,3.3-0.1,7.4,0,10h49.8c0,0,10.4,0.2,10,0c-4-8.3-7.6-14.4-10-19.9c-2.6-7.4-5.1-11.6-10.3-21.6c-5.2-9.9-11.4-21.1-18.5-32.8
	c-1.9-3.2-4-6.5-6.1-9.8c-1.1-8.9-2.5-18.8-3.3-29.3c-0.4-5.8-0.7-11.7-0.5-17.6c0.2-5.8,0.5-12,1.5-17.5c0.3-2.3,0.9-5,1.5-7.7
	c0.3,0.9,0.6,1.9,1,2.8c6.5-8,13.5-16.6,21.2-25.5c6.1-6.9,12-13.7,20.2-21.1c8.9-7.6,18-11.9,26.6-16.2
	c17.3-8.3,34.3-15.4,49.1-23.9c7.4-4.2,14.1-8.8,19.7-13.9c5.8-5.4,10.9-10.8,15.4-16.1c8.9-10.5,13.5-21.2,16-28.9
	c2.5-7.8,3.9-12.3,3.9-12.3s-0.8,4.6-2.2,12.7C403.4,215.5,400.2,227.4,392.3,239.6z"/>
</svg>
