<?xml version="1.0" encoding="utf-8"?>
<!-- Generator: Adobe Illustrator 21.0.0, SVG Export Plug-In . SVG Version: 6.00 Build 0)  -->
<svg version="1.1" id="Layer_1" xmlns="http://www.w3.org/2000/svg" xmlns:xlink="http://www.w3.org/1999/xlink" x="0px" y="0px"
	 viewBox="0 0 512 512" style="enable-background:new 0 0 512 512;" xml:space="preserve">
<style type="text/css">
	.st0{fill:#336633;}
</style>
<g>
	<rect x="137.8" y="72" class="st0" width="235.8" height="37.7"/>
	<rect x="137.8" y="138.1" class="st0" width="235.8" height="37.7"/>
	<rect x="137.8" y="204.1" class="st0" width="235.8" height="37.7"/>
	<rect x="137.8" y="270.2" class="st0" width="235.8" height="37.7"/>
	<rect x="137.8" y="336.2" class="st0" width="94.3" height="37.7"/>
	<path class="st0" d="M315.4,326.8c-30.3,0-55,24.6-55,55c0,20.7,11.4,38.7,28.3,48V506l28.3-47.2l27.7,47.2v-77.9
		c15.4-9.7,25.6-26.9,25.6-46.4C370.4,351.4,345.8,326.8,315.4,326.8z"/>
	<polygon class="st0" points="81.2,6 81.2,477.7 241.6,477.7 241.6,440 119,440 119,43.7 392.6,43.7 392.6,440 383.1,440 
		383.1,477.7 430.3,477.7 430.3,6 	"/>
</g>
</svg>
