<?xml version="1.0" encoding="utf-8"?>
<!-- Generator: Adobe Illustrator 21.0.0, SVG Export Plug-In . SVG Version: 6.00 Build 0)  -->
<svg version="1.1" id="Layer_1" xmlns="http://www.w3.org/2000/svg" xmlns:xlink="http://www.w3.org/1999/xlink" x="0px" y="0px"
	 viewBox="0 0 512 512" style="enable-background:new 0 0 512 512;" xml:space="preserve">
<style type="text/css">
	.st0{fill:#336633;}
</style>
<path class="st0" d="M484.2,340.9c-2-7.5-6.6-13.9-12.8-18V216.8l34.8-20.8l-26.4-17c-1-0.7-1.8-1.2-2.6-1.6L459.6,167
	c-17.9-10.6-35.8-21.2-53.8-31.7c-7.6-4.5-15.3-8.9-22.9-13.4l-1.7-1c-7.5-4.3-14.9-8.6-22.4-13c-30.3-17.8-60.6-35.6-90.9-53.4
	c-8.2-4.9-17.3-4.6-25,0.7c-1,0.7-2.2,1.4-4.2,2.5L200,80.3c-30,17.5-59.9,35.1-89.8,52.6c-13,7.6-25.8,15.2-38.7,22.9L7,193.8
	l24.1,17.1c1.1,0.8,1.9,1.4,2.7,1.8l43,25.3l1.6,117.1l3.5,4.8c2.4,3.3,60.7,81.2,164.8,81.2l3.3,0c124-2,168.5-80.1,170.4-83.4
	l2.3-4.2l0-108.1l17.5-10.3v88.5c-7.2,4.9-11.9,12.7-13,22.1c-0.7,5-0.2,9.9,1.3,14.5c-4.2,6.2-6.4,13.5-6.5,21.4
	c-0.1,14.4,0,28.8,0,43.2l0,10.8c0,14.3,10.2,19.4,18.9,19.4l14.1,0l16.4,0c8.6,0,18.7-5.1,18.7-19.2l0-53.1
	c0-8.6-2.2-16.3-6.5-22.7C485.8,353.8,485.9,347.3,484.2,340.9z M362.5,153.1c8.2,4.7,16.4,9.5,24.5,14.3
	c15.8,9.3,31.7,18.6,47.5,28l-153.8,90.3c-8.2,4.8-16.4,9.7-24.6,14.4c-26.7-15.6-53.4-31.3-80.1-46.9l-98.3-57.7l18.4-10.9
	c11-6.5,21.9-13,32.9-19.4c27.7-16.2,55.4-32.4,83.1-48.6l44.1-25.7c28,16.5,55.9,32.9,83.9,49.3c6.5,3.8,12.9,7.5,19.4,11.3
	L362.5,153.1z M385.5,343.3c-8.3,11.9-47,59.1-136,60.6l-2.7,0c-71.3,0-117.5-45.9-131.4-61.8l-1.1-82l51.9,30.5
	c26,15.3,52,30.6,78.1,45.8c6.8,4,16.2,4.1,22.9,0.3c10.8-6.2,21.6-12.6,32.4-18.9l86-50.5L385.5,343.3z"/>
</svg>
