<?xml version="1.0" encoding="utf-8"?>
<!-- Generator: Adobe Illustrator 21.0.0, SVG Export Plug-In . SVG Version: 6.00 Build 0)  -->
<svg version="1.1" id="Layer_1" xmlns="http://www.w3.org/2000/svg" xmlns:xlink="http://www.w3.org/1999/xlink" x="0px" y="0px"
	 viewBox="0 0 512 512" style="enable-background:new 0 0 512 512;" xml:space="preserve">
<style type="text/css">
	.st0{fill:#336633;}
</style>
<path class="st0" d="M39.6,243l-32-20.5l112.5-12.9l40.1,104.6l-31.6-20c-30.9,50-59.2,108.6-41.2,164.5C35.2,414.5,6,380.5,6,339.5
	C6,309.8,25.2,269.9,39.6,243z M124.2,360.2c-15.9,19.4-20.9,60.1-15.7,84.8c2.4,11.3,12.3,19.4,23.9,19.4h102.8V360.2H124.2z
	 M347.2,468v38L277,417.2l70.2-89.2v37.4c58.8-0.1,120.8-6.9,158.8-51.6c-10.1,67.6-23.6,110.4-58.4,132
	C422.4,461.4,377.7,466,347.2,468z M402.9,334.4c24.9,3.3,62.1-13.9,80.4-31.4c8.4-8,10-20.7,3.9-30.5l-54.2-87.3l-88.5,54.9
	L402.9,334.4z M383.4,93.5l33.5-17.9l-43.7,104.5L262.3,164l32.9-17.8C266.6,94.8,229.3,41.4,171.8,29.9C211.4,15.1,243.4,6,270.5,6
	C317.1,6,344.2,32.4,383.4,93.5z M239.8,110.1c-9.2-23.3-42.3-47.6-66.4-55.1c-11-3.4-22.9,1.3-28.6,11.4l-50.2,89.7l90.9,50.9
	L239.8,110.1z"/>
</svg>
