<?xml version="1.0" encoding="utf-8"?>
<!-- Generator: Adobe Illustrator 21.0.0, SVG Export Plug-In . SVG Version: 6.00 Build 0)  -->
<svg version="1.1" id="Layer_1" xmlns="http://www.w3.org/2000/svg" xmlns:xlink="http://www.w3.org/1999/xlink" x="0px" y="0px"
	 viewBox="0 0 512 512" style="enable-background:new 0 0 512 512;" xml:space="preserve">
<style type="text/css">
	.st0{fill:#336633;}
</style>
<g>
	
		<rect x="321.5" y="278.9" transform="matrix(0.7071 -0.7071 0.7071 0.7071 -112.8511 332.6537)" class="st0" width="47.2" height="47.2"/>
	<polygon class="st0" points="435.3,305.9 406.7,471.7 326.6,471.7 298.1,305.9 263.8,305.9 298.1,506 435.3,506 469.6,305.9 	"/>
	
		<rect x="347.4" y="383.2" transform="matrix(0.7071 -0.7071 0.7071 0.7071 -178.9996 381.532)" class="st0" width="47.2" height="47.2"/>
	<circle class="st0" cx="156.1" cy="42.9" r="36.9"/>
	<path class="st0" d="M269.5,270.2c0-1.2-0.2-2.3-0.5-3.4l0.1,0c0,0-42.1-151-46.5-161.7c-0.5-1.3-1.2-2.4-1.9-3.4
		c-0.4-1.1-0.7-2-0.9-2.5c-7.2-17.3-32.2-6.6-32.2-6.6c-0.6,0.3-1.3,0.6-1.9,0.9c0,0-12.9,7-32.2,7.3c-0.1,0-0.1,0-0.2,0
		c-0.1,0-0.1,0-0.2,0c-19.3-0.3-32.3-7.3-32.3-7.3c-0.6-0.3-1.2-0.6-1.9-0.9c0,0-25.1-10.7-32.2,6.6
		c-4.4,10.7-46.5,161.7-46.5,161.7l0.1,0c-0.3,1.1-0.5,2.2-0.5,3.4c0,7.7,6.2,13.9,13.9,13.9c6.7,0,12.3-4.7,13.6-11l33.9-101.7
		l7.3,319.8c0,0.1,0,0.1,0,0.2c0,6.5,4.3,12,10.2,13.9c-0.3,1.4-0.6,2.8-1.1,4.1c2.3,1.6,5.2,2.6,8.2,2.6c8.1,0,52.2,0,60.3,0
		c8.1,0,14.6-6.5,14.6-14.6c0-0.1,0-0.1,0-0.2l7.3-319.8L242,273.1c1.3,6.3,6.9,11,13.6,11C263.3,284.1,269.5,277.9,269.5,270.2z
		 M152.2,396.7l1.8-6.8l1.8,6.8H152.2z"/>
</g>
</svg>
