<?xml version="1.0" encoding="utf-8"?>
<!-- Generator: Adobe Illustrator 21.0.0, SVG Export Plug-In . SVG Version: 6.00 Build 0)  -->
<svg version="1.1" id="Layer_1" xmlns="http://www.w3.org/2000/svg" xmlns:xlink="http://www.w3.org/1999/xlink" x="0px" y="0px"
	 viewBox="0 0 512 512" style="enable-background:new 0 0 512 512;" xml:space="preserve">
<style type="text/css">
	.st0{fill:#336633;}
</style>
<g>
	<path class="st0" d="M459.8,283.8l7.5-14.6c24-18.4,38.7-42.8,38.7-69.6c0-57.4-67.2-103.9-150-103.9c-52.2,0-98.1,18.5-124.9,46.5
		c63,18.1,107.4,61.1,107.5,111.3c0,17.5-2.6,34.1-8.9,49.1c8.3,0.6,17,0.9,26.3,0.9c19.4,0,37.9-2.6,54.9-7.2
		c1.3,4.8,1.8-2.4,3.7,4.3c15.1,48,62,44.6,62,44.6C445.1,331,459.8,283.8,459.8,283.8z"/>
	<path class="st0" d="M156,158.4C73.2,158.4,6,205,6,262.3c0,26.8,14.6,51.2,38.7,69.6l7.6,14.6c0,0,14.6,47.2-16.7,61.3
		c0,0,46.9,3.4,62-44.6c1.9-6.8,2.3,0.5,3.7-4.3c17,4.6,35.5,7.2,54.9,7.2c117.7-0.2,150.2-46.5,150-103.9
		C305.9,205,238.9,158.4,156,158.4z"/>
</g>
</svg>
