<?xml version="1.0" encoding="utf-8"?>
<!-- Generator: Adobe Illustrator 21.0.0, SVG Export Plug-In . SVG Version: 6.00 Build 0)  -->
<svg version="1.1" id="Layer_1" xmlns="http://www.w3.org/2000/svg" xmlns:xlink="http://www.w3.org/1999/xlink" x="0px" y="0px"
	 viewBox="0 0 512 512" style="enable-background:new 0 0 512 512;" xml:space="preserve">
<style type="text/css">
	.st0{fill:#336633;}
</style>
<g>
	
		<ellipse transform="matrix(0.8014 -0.5981 0.5981 0.8014 -29.0686 274.8657)" class="st0" cx="399.4" cy="181.2" rx="44.4" ry="44.4"/>
	<path class="st0" d="M381.5,240.7c-0.7-0.3-1.4-0.7-2.1-1.1c0,0-15-6.9-28.1-24c0-0.1-0.1-0.1-0.1-0.2c0-0.1-0.1-0.1-0.1-0.2
		c-12.6-17.4-15-33.7-15-33.7c-0.2-0.8-0.3-1.5-0.5-2.3c0,0-0.3-2-1.2-5.4l0.3-0.1c-1.6-6-17.5-47-33.6-87.8
		c20.5-11.3,45.8-25.5,50-27.8c1.2-0.7,2.3-1.4,3.3-2.4c6.1-6,6.2-15.9,0.2-22c-5-5.1-12.6-5.9-18.6-2.6l0-0.1l-47.4,23.2l0,0
		l-30.7,15l0,0l35.9,105.1l-35.4,37.8l-21.9,25.2L110,289.1c24.4,13.2,42.8-0.7,46.5-4l5-3.8c30.4-20.4,77.3-30,119.9,2.6
		c28.4,21.7,50.5,4.8,54.7,1.2l4-3c16-11.2,36.9-19.2,59.4-19.5C397.4,250,381.5,240.7,381.5,240.7z"/>
	<path class="st0" d="M475.5,428.2c-4.6-1.7-9.5-4.3-14.6-8.2c-43.4-33.2-90.6-22.9-120.9-1.8l-4,3c-4.2,3.6-26.3,20.4-54.7-1.2
		c-42.6-32.6-89.5-22.9-119.9-2.6l-5,3.8c-4.2,3.6-26.3,20.4-54.7-1.2c-21.5-16.5-43.5-21.8-63.3-21.2L58.3,453
		c4.2,1.7,8.4,4,12.8,7.3c49.9,38.1,98.4,17,118.3-0.4l1.1-0.8c9.4-6.3,34-18.8,60.1,1.2c49.9,38.2,98.6,16.9,118.4-0.4l0.5-0.4
		c9.4-6.5,34.1-19.5,60.6,0.8c10.1,7.8,20.2,13,30,16.4L475.5,428.2z"/>
	<path class="st0" d="M506.1,331.7c-9.9,4.5-26.1,7.4-45.2-7.2c-43.4-33.2-90.6-22.9-120.9-1.8l-4,3c-4.2,3.6-26.3,20.4-54.7-1.2
		c-42.6-32.6-89.5-22.9-119.9-2.6l-5,3.8c-4.2,3.6-26.3,20.4-54.7-1.2C67.5,298.2,31.8,300.2,6,309.6l17.4,47.6
		c11.7-4.3,29.3-6.5,47.7,7.6c49.9,38.1,98.4,17,118.3-0.4l1.1-0.8c9.4-6.3,34-18.8,60.1,1.2c49.9,38.2,98.6,16.9,118.4-0.4l0.5-0.4
		c9.4-6.5,34.1-19.5,60.6,0.8c20.4,15.6,40.6,21.3,58.7,21.3L506.1,331.7z"/>
</g>
</svg>
