<?xml version="1.0" encoding="utf-8"?>
<!-- Generator: Adobe Illustrator 21.0.0, SVG Export Plug-In . SVG Version: 6.00 Build 0)  -->
<svg version="1.1" id="Layer_1" xmlns="http://www.w3.org/2000/svg" xmlns:xlink="http://www.w3.org/1999/xlink" x="0px" y="0px"
	 viewBox="0 0 512 512" style="enable-background:new 0 0 512 512;" xml:space="preserve">
<style type="text/css">
	.st0{fill:#336633;}
</style>
<path class="st0" d="M496.2,443.5H388.1v-80.7c6.3-1.9,12.2-4.9,17.1-9c7,4.1,15.2,6.5,24,6.5c26.2,0,47.4-21.2,47.4-47.4
	c0-21.5-14.3-39.6-33.9-45.4c2.5-5.8,4-12.2,4-19c0-18.1-10.2-33.9-25.2-41.9c0.5-2.7,0.8-5.4,0.8-8.2c0-26.2-21.2-47.4-47.4-47.4
	s-47.4,21.2-47.4,47.4c0,2.8,0.3,5.5,0.8,8.2c-7,3.7-12.8,9.1-17.2,15.7c-6.8-5.2-14.4-9.3-22.8-11.8c3.8-8.7,6-18.3,6-28.4
	c0-27.2-15.3-50.7-37.7-62.6c0.7-4,1.1-8.1,1.1-12.3c0-39.2-31.8-70.9-70.9-70.9s-70.9,31.8-70.9,70.9c0,4.2,0.4,8.3,1.1,12.3
	c-22.4,11.9-37.7,35.5-37.7,62.6c0,10.1,2.2,19.7,6,28.4c-29.4,8.7-50.8,35.8-50.8,68c0,39.2,31.8,70.9,70.9,70.9
	c13.1,0,25.3-3.6,35.9-9.8c8.7,7.3,19.2,12.5,30.8,15v88.8H14.7c-5.4,0-9.8,4.4-9.8,9.8v9.8c0,5.4,4.4,9.8,9.8,9.8h481.5
	c5.4,0,9.8-4.4,9.8-9.8v-9.8C506,447.9,501.6,443.5,496.2,443.5z M201.4,443.5v-88.8c11.5-2.4,22.1-7.6,30.8-15
	c10.5,6.2,22.8,9.8,35.9,9.8c6.7,0,13.1-1,19.3-2.7c8.5,8.4,20.2,13.6,33.1,13.6c8.8,0,16.9-2.4,24-6.5c4.2,3.5,9,6.3,14.3,8.2v81.5
	L201.4,443.5L201.4,443.5z"/>
</svg>
