<?xml version="1.0" encoding="utf-8"?>
<!-- Generator: Adobe Illustrator 21.0.0, SVG Export Plug-In . SVG Version: 6.00 Build 0)  -->
<svg version="1.1" id="Layer_1" xmlns="http://www.w3.org/2000/svg" xmlns:xlink="http://www.w3.org/1999/xlink" x="0px" y="0px"
	 viewBox="0 0 512 512" style="enable-background:new 0 0 512 512;" xml:space="preserve">
<style type="text/css">
	.st0{fill:#336633;}
</style>
<g>
	<path class="st0" d="M402.1,15c-8.8,0-16,7.4-16,16.5v106.9c0,9.1,7.2,16.5,16,16.5H506V15H402.1z"/>
	<path class="st0" d="M342.2,187.2l-53.2,38h77v230.2H45.9V225.1h10h94.9H166v-20v-20h-3.7l17.7-28.2c9.1-18.2,71.5-24,46.5,18.5
		l-50,70c-7.5,7.5-21.2,60.7,20,30l109.7-100.4l19.1-27.2l30.9-22.8V35H266l-95.2,58.4c-16.6,10.7-27.2,18.2-36.3,45.4
		c-3.1,9.4-15.3,32.7-22.6,46.3H85.5H55.9h-50v310.2h400.3V185.1h-63.2L342.2,187.2z"/>
	<polygon class="st0" points="148.3,348.2 130.3,372.2 196.3,421.8 285.2,288.5 260.2,271.9 189,378.7 	"/>
</g>
</svg>
