<?xml version="1.0" encoding="utf-8"?>
<!-- Generator: Adobe Illustrator 21.0.0, SVG Export Plug-In . SVG Version: 6.00 Build 0)  -->
<svg version="1.1" id="Layer_1" xmlns="http://www.w3.org/2000/svg" xmlns:xlink="http://www.w3.org/1999/xlink" x="0px" y="0px"
	 viewBox="0 0 512 512" style="enable-background:new 0 0 512 512;" xml:space="preserve">
<style type="text/css">
	.st0{fill:#336633;}
</style>
<g>
	<path class="st0" d="M343.2,70.1c-0.4-1.8-1.5-2.8-2.2-3.2c-0.5-0.3-1.4-0.8-2.6-0.8c-0.3,0-0.7,0-1.1,0.1L26,140.6h332.2
		L343.2,70.1z"/>
	<path class="st0" d="M228,7.5c-0.7-1-1.7-1.3-2.2-1.4c-0.4-0.1-1.2-0.1-1.9,0.2c-0.2,0.1-0.4,0.2-0.7,0.4l-184.4,130L255.9,47
		L228,7.5z"/>
	<path class="st0" d="M465.6,161.8H46.2c-11.7,0-21.2,9.5-21.2,21.2v301.9c0,11.6,9.5,21.2,21.2,21.2h419.4
		c11.6,0,21.2-9.5,21.2-21.2V183C486.8,171.3,477.2,161.8,465.6,161.8z M252.9,324.6h42.2v25.9h-36.7c0.3,2.6,0.6,5.4,0.6,8
		c0,13.7-3.7,22.5-12.8,32.8v1.1h73.8v35.3H191.9v-25.9c17.1-7.7,30.2-23.4,30.2-43.6c0-2.6-0.3-5.1-0.6-7.7h-28.5V326l19.4-1.4h1.7
		c-2.6-7.7-4.6-15.4-4.6-22.8c0-35.9,25.6-58.4,61-58.4c21.1,0,36.5,8.3,49.3,23.1L297,289.2c-6.5-8-13.4-12-22.5-12
		c-15.1,0-24.8,8.5-24.8,26.8C249.8,310.9,251.2,317.7,252.9,324.6z"/>
</g>
</svg>
